%TF.GenerationSoftware,KiCad,Pcbnew,10.0.1*%
%TF.CreationDate,2026-05-06T01:35:01-06:00*%
%TF.ProjectId,2026_12_2Wheel_Balance_Robot_v1,32303236-5f31-4325-9f32-576865656c5f,rev?*%
%TF.SameCoordinates,Original*%
%TF.FileFunction,Copper,L2,Bot*%
%TF.FilePolarity,Positive*%
%FSLAX46Y46*%
G04 Gerber Fmt 4.6, Leading zero omitted, Abs format (unit mm)*
G04 Created by KiCad (PCBNEW 10.0.1) date 2026-05-06 01:35:01*
%MOMM*%
%LPD*%
G01*
G04 APERTURE LIST*
G04 Aperture macros list*
%AMRoundRect*
0 Rectangle with rounded corners*
0 $1 Rounding radius*
0 $2 $3 $4 $5 $6 $7 $8 $9 X,Y pos of 4 corners*
0 Add a 4 corners polygon primitive as box body*
4,1,4,$2,$3,$4,$5,$6,$7,$8,$9,$2,$3,0*
0 Add four circle primitives for the rounded corners*
1,1,$1+$1,$2,$3*
1,1,$1+$1,$4,$5*
1,1,$1+$1,$6,$7*
1,1,$1+$1,$8,$9*
0 Add four rect primitives between the rounded corners*
20,1,$1+$1,$2,$3,$4,$5,0*
20,1,$1+$1,$4,$5,$6,$7,0*
20,1,$1+$1,$6,$7,$8,$9,0*
20,1,$1+$1,$8,$9,$2,$3,0*%
G04 Aperture macros list end*
%TA.AperFunction,ComponentPad*%
%ADD10R,1.700000X1.700000*%
%TD*%
%TA.AperFunction,ComponentPad*%
%ADD11C,1.700000*%
%TD*%
%TA.AperFunction,ComponentPad*%
%ADD12RoundRect,0.250000X-0.600000X-0.750000X0.600000X-0.750000X0.600000X0.750000X-0.600000X0.750000X0*%
%TD*%
%TA.AperFunction,ComponentPad*%
%ADD13O,1.700000X2.000000*%
%TD*%
%TA.AperFunction,ComponentPad*%
%ADD14RoundRect,0.250000X0.600000X0.750000X-0.600000X0.750000X-0.600000X-0.750000X0.600000X-0.750000X0*%
%TD*%
%TA.AperFunction,ComponentPad*%
%ADD15RoundRect,0.250000X-0.600000X-0.725000X0.600000X-0.725000X0.600000X0.725000X-0.600000X0.725000X0*%
%TD*%
%TA.AperFunction,ComponentPad*%
%ADD16O,1.700000X1.950000*%
%TD*%
%TA.AperFunction,ComponentPad*%
%ADD17O,2.100000X1.000000*%
%TD*%
%TA.AperFunction,ComponentPad*%
%ADD18O,1.600000X1.000000*%
%TD*%
%TA.AperFunction,ComponentPad*%
%ADD19RoundRect,0.250000X0.600000X0.725000X-0.600000X0.725000X-0.600000X-0.725000X0.600000X-0.725000X0*%
%TD*%
%TA.AperFunction,ViaPad*%
%ADD20C,0.600000*%
%TD*%
%TA.AperFunction,Conductor*%
%ADD21C,0.200000*%
%TD*%
%TA.AperFunction,Conductor*%
%ADD22C,0.203200*%
%TD*%
G04 APERTURE END LIST*
D10*
%TO.P,J4,1,Pin_1_1*%
%TO.N,GND*%
X105403700Y-76835000D03*
D11*
%TO.P,J4,2,Pin_2_2*%
%TO.N,/ESP_TX*%
X107943700Y-76835000D03*
%TO.P,J4,3,Pin_3_3*%
%TO.N,unconnected-(J4-Pin_3-Pad3)*%
X105403700Y-74295000D03*
%TO.P,J4,4,Pin_4_4*%
%TO.N,+3.3V*%
X107943700Y-74295000D03*
%TO.P,J4,5,Pin_5_5*%
%TO.N,Net-(J4-Pin_5)*%
X105403700Y-71755000D03*
%TO.P,J4,6,Pin_6_6*%
%TO.N,+3.3V*%
X107943700Y-71755000D03*
%TO.P,J4,7,Pin_7_7*%
%TO.N,/ESP_RX*%
X105403700Y-69215000D03*
%TO.P,J4,8,Pin_8_8*%
%TO.N,+3.3V*%
X107943700Y-69215000D03*
%TD*%
D12*
%TO.P,J7,1,Pin_1_1*%
%TO.N,/MD_BO1*%
X158794500Y-60731400D03*
D13*
%TO.P,J7,2,Pin_2_2*%
%TO.N,/MD_BO2*%
X161294500Y-60731400D03*
%TD*%
D10*
%TO.P,J1,1,Pin_1_1*%
%TO.N,+3.3V*%
X103397100Y-106400600D03*
D11*
%TO.P,J1,2,Pin_2_2*%
%TO.N,/SWCLK*%
X103397100Y-103860600D03*
%TO.P,J1,3,Pin_3_3*%
%TO.N,GND*%
X103397100Y-101320600D03*
%TO.P,J1,4,Pin_4_4*%
%TO.N,/SWDIO*%
X103397100Y-98780600D03*
%TD*%
D14*
%TO.P,J5,1,Pin_1_1*%
%TO.N,VM*%
X150499500Y-61442600D03*
D13*
%TO.P,J5,2,Pin_2_2*%
%TO.N,GND*%
X147999500Y-61442600D03*
%TD*%
D12*
%TO.P,J6,1,Pin_1_1*%
%TO.N,/MD_AO1*%
X158916100Y-104961200D03*
D13*
%TO.P,J6,2,Pin_2_2*%
%TO.N,/MD_AO2*%
X161416100Y-104961200D03*
%TD*%
D15*
%TO.P,J9,1,Pin_1_1*%
%TO.N,+3.3V*%
X113337043Y-65425082D03*
D16*
%TO.P,J9,2,Pin_2_2*%
%TO.N,GND*%
X115837043Y-65425082D03*
%TO.P,J9,3,Pin_3_3*%
%TO.N,/MT_PWM*%
X118337043Y-65425082D03*
%TO.P,J9,4,Pin_4_4*%
%TO.N,/MT_SCL*%
X120837043Y-65425082D03*
%TO.P,J9,5,Pin_5_5*%
%TO.N,/MT_SDA*%
X123337043Y-65425082D03*
%TD*%
D17*
%TO.P,J3,SH,SHIELD_SH*%
%TO.N,GND*%
X106875900Y-85664400D03*
D18*
X102695900Y-85664400D03*
D17*
X106875900Y-94304400D03*
D18*
X102695900Y-94304400D03*
%TD*%
D10*
%TO.P,J2,1,Pin_1_1*%
%TO.N,+5V*%
X134512100Y-107365800D03*
D11*
%TO.P,J2,2,Pin_2_2*%
%TO.N,GND*%
X137052100Y-107365800D03*
%TO.P,J2,3,Pin_3_3*%
%TO.N,/IMU_SCL*%
X139592100Y-107365800D03*
%TO.P,J2,4,Pin_4_4*%
%TO.N,/IMU_SDA*%
X142132100Y-107365800D03*
%TO.P,J2,5,Pin_5_5*%
%TO.N,unconnected-(J2-Pin_5-Pad5)*%
X144672100Y-107365800D03*
%TO.P,J2,6,Pin_6_6*%
%TO.N,unconnected-(J2-Pin_6-Pad6)*%
X147212100Y-107365800D03*
%TO.P,J2,7,Pin_7_7*%
%TO.N,unconnected-(J2-Pin_7-Pad7)*%
X149752100Y-107365800D03*
%TO.P,J2,8,Pin_8_8*%
%TO.N,/IMU_INT*%
X152292100Y-107365800D03*
%TD*%
D19*
%TO.P,J8,1,Pin_1_1*%
%TO.N,+3.3V*%
X116753700Y-102412800D03*
D16*
%TO.P,J8,2,Pin_2_2*%
%TO.N,/ENC_A*%
X114253700Y-102412800D03*
%TO.P,J8,3,Pin_3_3*%
%TO.N,/ENC_B*%
X111753700Y-102412800D03*
%TO.P,J8,4,Pin_4_4*%
%TO.N,GND*%
X109253700Y-102412800D03*
%TD*%
D20*
%TO.N,GND*%
X133470900Y-67066800D03*
X119970900Y-81566800D03*
X124970900Y-77066800D03*
X124470900Y-58566800D03*
X123470900Y-73066800D03*
X160111200Y-75707100D03*
X116970900Y-63066800D03*
X160470900Y-80066800D03*
X136970900Y-97066800D03*
X138804700Y-58954200D03*
X127970900Y-83566800D03*
X163470900Y-85066800D03*
X121970900Y-103066800D03*
X136970900Y-79566800D03*
X141243100Y-58979600D03*
X124970900Y-91066800D03*
X119970900Y-75066800D03*
X138970900Y-86066800D03*
X152561200Y-77657100D03*
X109470900Y-90066800D03*
X150970900Y-94566800D03*
X112970900Y-85566800D03*
X157470900Y-85066800D03*
X120470900Y-96066800D03*
X114970900Y-83066800D03*
X131970900Y-76066800D03*
X112470900Y-94066800D03*
X138970900Y-92566800D03*
X120470900Y-79066800D03*
X125970900Y-83566800D03*
X142470900Y-101066800D03*
X147970900Y-97066800D03*
X103470900Y-91566800D03*
X145970900Y-88566800D03*
X151970900Y-83566800D03*
%TO.N,+3.3V*%
X120470900Y-100066800D03*
X134470900Y-94066800D03*
X145470900Y-73066800D03*
X143970900Y-79066800D03*
X136470900Y-81066800D03*
X152970900Y-79005500D03*
X119870900Y-96966800D03*
X132970900Y-84066800D03*
X157090500Y-80066800D03*
X155470900Y-73066800D03*
X157970900Y-73066800D03*
X130970900Y-97066800D03*
X122470900Y-101566800D03*
%TO.N,VM*%
X152470900Y-86566800D03*
X151970900Y-74566800D03*
X147970900Y-76066800D03*
X155970900Y-70066800D03*
%TO.N,+5V*%
X149970900Y-103066800D03*
X140077396Y-104460304D03*
X134970900Y-105566800D03*
X147970900Y-103066800D03*
%TO.N,/MD_PWMB*%
X149970900Y-78908700D03*
X149970900Y-76405500D03*
%TO.N,/MD_AIN1*%
X146470900Y-81066800D03*
X148470900Y-82066800D03*
%TO.N,/WS_DIN*%
X149470900Y-85757000D03*
X149470900Y-87066800D03*
%TO.N,/SWCLK*%
X124970900Y-96566800D03*
X123970900Y-98668400D03*
%TD*%
%TO.N,GND*%
D21*
X137052100Y-107365800D02*
X135902100Y-108515800D01*
X135902100Y-108515800D02*
X132919900Y-108515800D01*
X132919900Y-108515800D02*
X131970900Y-107566800D01*
%TO.N,+3.3V*%
X119870900Y-96966800D02*
X120470900Y-97566800D01*
D22*
X134470900Y-94066800D02*
X131470900Y-97066800D01*
X131470900Y-97066800D02*
X130970900Y-97066800D01*
X122470900Y-101566800D02*
X122470900Y-101066800D01*
D21*
X135970900Y-81066800D02*
X136470900Y-81066800D01*
X117124900Y-102412800D02*
X116753700Y-102412800D01*
X120470900Y-99066800D02*
X120470900Y-100066800D01*
D22*
X122470900Y-101066800D02*
X121470900Y-100066800D01*
D21*
X145470900Y-73066800D02*
X145470900Y-77566800D01*
X154032200Y-80066800D02*
X157090500Y-80066800D01*
X120470900Y-97566800D02*
X120470900Y-99066800D01*
X132970900Y-84066800D02*
X135970900Y-81066800D01*
X155470900Y-73066800D02*
X157970900Y-73066800D01*
X152970900Y-79005500D02*
X154032200Y-80066800D01*
X145470900Y-77566800D02*
X143970900Y-79066800D01*
D22*
X121470900Y-100066800D02*
X120470900Y-100066800D01*
%TO.N,VM*%
X147970900Y-80417591D02*
X152470900Y-84917591D01*
X152470900Y-84917591D02*
X152470900Y-86566800D01*
D21*
X155970900Y-70566800D02*
X151970900Y-74566800D01*
D22*
X147970900Y-76066800D02*
X147970900Y-80417591D01*
D21*
X155970900Y-70066800D02*
X155970900Y-70566800D01*
%TO.N,+5V*%
X140077396Y-104460304D02*
X138970900Y-105566800D01*
X138970900Y-105566800D02*
X134970900Y-105566800D01*
X149970900Y-103066800D02*
X147970900Y-103066800D01*
%TO.N,/MD_PWMB*%
D22*
X149970900Y-78908700D02*
X149970900Y-76405500D01*
%TO.N,/MD_AIN1*%
X148470900Y-82066800D02*
X147470900Y-81066800D01*
X145970900Y-81066800D02*
X146470900Y-81066800D01*
X147470900Y-81066800D02*
X145970900Y-81066800D01*
%TO.N,/WS_DIN*%
X149470900Y-85757000D02*
X149470900Y-87066800D01*
%TO.N,/SWCLK*%
X123970900Y-98668400D02*
X123970900Y-97566800D01*
X123970900Y-97566800D02*
X124970900Y-96566800D01*
%TD*%
%TA.AperFunction,Conductor*%
%TO.N,GND*%
G36*
X165413939Y-57586485D02*
G01*
X165459694Y-57639289D01*
X165470900Y-57690800D01*
X165470900Y-73080855D01*
X165451215Y-73147894D01*
X165445276Y-73156341D01*
X165301065Y-73344280D01*
X165164213Y-73581316D01*
X165164209Y-73581326D01*
X165059468Y-73834193D01*
X164988625Y-74098580D01*
X164952901Y-74369934D01*
X164952900Y-74369951D01*
X164952900Y-74643648D01*
X164952901Y-74643665D01*
X164988625Y-74915019D01*
X165059468Y-75179406D01*
X165164209Y-75432273D01*
X165164213Y-75432283D01*
X165301062Y-75669315D01*
X165315109Y-75687621D01*
X165426900Y-75833310D01*
X165445276Y-75857257D01*
X165470470Y-75922427D01*
X165470900Y-75932744D01*
X165470900Y-101020855D01*
X165451215Y-101087894D01*
X165445276Y-101096341D01*
X165301065Y-101284280D01*
X165164213Y-101521316D01*
X165164209Y-101521326D01*
X165059468Y-101774193D01*
X164988625Y-102038580D01*
X164952901Y-102309934D01*
X164952900Y-102309951D01*
X164952900Y-102583648D01*
X164952901Y-102583665D01*
X164988481Y-102853927D01*
X164988626Y-102855023D01*
X165011670Y-102941024D01*
X165059468Y-103119406D01*
X165164209Y-103372273D01*
X165164213Y-103372283D01*
X165301062Y-103609315D01*
X165301066Y-103609320D01*
X165439212Y-103789355D01*
X165445276Y-103797257D01*
X165470470Y-103862427D01*
X165470900Y-103872744D01*
X165470900Y-109439836D01*
X165451215Y-109506875D01*
X165398411Y-109552630D01*
X165343972Y-109563801D01*
X139738751Y-108958953D01*
X139672195Y-108937691D01*
X139627700Y-108883821D01*
X139619392Y-108814447D01*
X139649910Y-108751595D01*
X139709564Y-108715219D01*
X139722271Y-108712517D01*
X139908343Y-108683046D01*
X140110512Y-108617357D01*
X140299916Y-108520851D01*
X140386238Y-108458135D01*
X140471886Y-108395909D01*
X140471888Y-108395906D01*
X140471892Y-108395904D01*
X140622204Y-108245592D01*
X140622206Y-108245588D01*
X140622209Y-108245586D01*
X140747148Y-108073620D01*
X140747150Y-108073617D01*
X140747151Y-108073616D01*
X140751614Y-108064854D01*
X140799588Y-108014059D01*
X140867408Y-107997263D01*
X140933544Y-108019799D01*
X140972586Y-108064856D01*
X140977051Y-108073620D01*
X141101990Y-108245586D01*
X141252313Y-108395909D01*
X141424279Y-108520848D01*
X141424281Y-108520849D01*
X141424284Y-108520851D01*
X141613688Y-108617357D01*
X141815857Y-108683046D01*
X142025813Y-108716300D01*
X142025814Y-108716300D01*
X142238386Y-108716300D01*
X142238387Y-108716300D01*
X142448343Y-108683046D01*
X142650512Y-108617357D01*
X142839916Y-108520851D01*
X142926238Y-108458135D01*
X143011886Y-108395909D01*
X143011888Y-108395906D01*
X143011892Y-108395904D01*
X143162204Y-108245592D01*
X143162206Y-108245588D01*
X143162209Y-108245586D01*
X143287148Y-108073620D01*
X143287150Y-108073617D01*
X143287151Y-108073616D01*
X143291614Y-108064854D01*
X143339588Y-108014059D01*
X143407408Y-107997263D01*
X143473544Y-108019799D01*
X143512586Y-108064856D01*
X143517051Y-108073620D01*
X143641990Y-108245586D01*
X143792313Y-108395909D01*
X143964279Y-108520848D01*
X143964281Y-108520849D01*
X143964284Y-108520851D01*
X144153688Y-108617357D01*
X144355857Y-108683046D01*
X144565813Y-108716300D01*
X144565814Y-108716300D01*
X144778386Y-108716300D01*
X144778387Y-108716300D01*
X144988343Y-108683046D01*
X145190512Y-108617357D01*
X145379916Y-108520851D01*
X145466238Y-108458135D01*
X145551886Y-108395909D01*
X145551888Y-108395906D01*
X145551892Y-108395904D01*
X145702204Y-108245592D01*
X145702206Y-108245588D01*
X145702209Y-108245586D01*
X145827148Y-108073620D01*
X145827150Y-108073617D01*
X145827151Y-108073616D01*
X145831614Y-108064854D01*
X145879588Y-108014059D01*
X145947408Y-107997263D01*
X146013544Y-108019799D01*
X146052586Y-108064856D01*
X146057051Y-108073620D01*
X146181990Y-108245586D01*
X146332313Y-108395909D01*
X146504279Y-108520848D01*
X146504281Y-108520849D01*
X146504284Y-108520851D01*
X146693688Y-108617357D01*
X146895857Y-108683046D01*
X147105813Y-108716300D01*
X147105814Y-108716300D01*
X147318386Y-108716300D01*
X147318387Y-108716300D01*
X147528343Y-108683046D01*
X147730512Y-108617357D01*
X147919916Y-108520851D01*
X148006238Y-108458135D01*
X148091886Y-108395909D01*
X148091888Y-108395906D01*
X148091892Y-108395904D01*
X148242204Y-108245592D01*
X148242206Y-108245588D01*
X148242209Y-108245586D01*
X148367148Y-108073620D01*
X148367150Y-108073617D01*
X148367151Y-108073616D01*
X148371614Y-108064854D01*
X148419588Y-108014059D01*
X148487408Y-107997263D01*
X148553544Y-108019799D01*
X148592586Y-108064856D01*
X148597051Y-108073620D01*
X148721990Y-108245586D01*
X148872313Y-108395909D01*
X149044279Y-108520848D01*
X149044281Y-108520849D01*
X149044284Y-108520851D01*
X149233688Y-108617357D01*
X149435857Y-108683046D01*
X149645813Y-108716300D01*
X149645814Y-108716300D01*
X149858386Y-108716300D01*
X149858387Y-108716300D01*
X150068343Y-108683046D01*
X150270512Y-108617357D01*
X150459916Y-108520851D01*
X150546238Y-108458135D01*
X150631886Y-108395909D01*
X150631888Y-108395906D01*
X150631892Y-108395904D01*
X150782204Y-108245592D01*
X150782206Y-108245588D01*
X150782209Y-108245586D01*
X150907148Y-108073620D01*
X150907150Y-108073617D01*
X150907151Y-108073616D01*
X150911614Y-108064854D01*
X150959588Y-108014059D01*
X151027408Y-107997263D01*
X151093544Y-108019799D01*
X151132586Y-108064856D01*
X151137051Y-108073620D01*
X151261990Y-108245586D01*
X151412313Y-108395909D01*
X151584279Y-108520848D01*
X151584281Y-108520849D01*
X151584284Y-108520851D01*
X151773688Y-108617357D01*
X151975857Y-108683046D01*
X152185813Y-108716300D01*
X152185814Y-108716300D01*
X152398386Y-108716300D01*
X152398387Y-108716300D01*
X152608343Y-108683046D01*
X152810512Y-108617357D01*
X152999916Y-108520851D01*
X153086238Y-108458135D01*
X153171886Y-108395909D01*
X153171888Y-108395906D01*
X153171892Y-108395904D01*
X153322204Y-108245592D01*
X153322206Y-108245588D01*
X153322209Y-108245586D01*
X153447148Y-108073620D01*
X153447150Y-108073617D01*
X153447151Y-108073616D01*
X153543657Y-107884212D01*
X153609346Y-107682043D01*
X153642600Y-107472087D01*
X153642600Y-107259513D01*
X153609346Y-107049557D01*
X153543657Y-106847388D01*
X153447151Y-106657984D01*
X153447149Y-106657981D01*
X153447148Y-106657979D01*
X153322209Y-106486013D01*
X153171886Y-106335690D01*
X152999920Y-106210751D01*
X152810514Y-106114244D01*
X152810513Y-106114243D01*
X152810512Y-106114243D01*
X152608343Y-106048554D01*
X152608341Y-106048553D01*
X152608340Y-106048553D01*
X152447057Y-106023008D01*
X152398387Y-106015300D01*
X152185813Y-106015300D01*
X152137142Y-106023008D01*
X151975860Y-106048553D01*
X151773685Y-106114244D01*
X151584279Y-106210751D01*
X151412313Y-106335690D01*
X151261990Y-106486013D01*
X151137049Y-106657982D01*
X151132584Y-106666746D01*
X151084609Y-106717542D01*
X151016788Y-106734336D01*
X150950653Y-106711798D01*
X150911616Y-106666746D01*
X150907150Y-106657982D01*
X150782209Y-106486013D01*
X150631886Y-106335690D01*
X150459920Y-106210751D01*
X150270514Y-106114244D01*
X150270513Y-106114243D01*
X150270512Y-106114243D01*
X150068343Y-106048554D01*
X150068341Y-106048553D01*
X150068340Y-106048553D01*
X149907057Y-106023008D01*
X149858387Y-106015300D01*
X149645813Y-106015300D01*
X149597142Y-106023008D01*
X149435860Y-106048553D01*
X149233685Y-106114244D01*
X149044279Y-106210751D01*
X148872313Y-106335690D01*
X148721990Y-106486013D01*
X148597049Y-106657982D01*
X148592584Y-106666746D01*
X148544609Y-106717542D01*
X148476788Y-106734336D01*
X148410653Y-106711798D01*
X148371616Y-106666746D01*
X148367150Y-106657982D01*
X148242209Y-106486013D01*
X148091886Y-106335690D01*
X147919920Y-106210751D01*
X147730514Y-106114244D01*
X147730513Y-106114243D01*
X147730512Y-106114243D01*
X147528343Y-106048554D01*
X147528341Y-106048553D01*
X147528340Y-106048553D01*
X147367057Y-106023008D01*
X147318387Y-106015300D01*
X147105813Y-106015300D01*
X147057142Y-106023008D01*
X146895860Y-106048553D01*
X146693685Y-106114244D01*
X146504279Y-106210751D01*
X146332313Y-106335690D01*
X146181990Y-106486013D01*
X146057049Y-106657982D01*
X146052584Y-106666746D01*
X146004609Y-106717542D01*
X145936788Y-106734336D01*
X145870653Y-106711798D01*
X145831616Y-106666746D01*
X145827150Y-106657982D01*
X145702209Y-106486013D01*
X145551886Y-106335690D01*
X145379920Y-106210751D01*
X145190514Y-106114244D01*
X145190513Y-106114243D01*
X145190512Y-106114243D01*
X144988343Y-106048554D01*
X144988341Y-106048553D01*
X144988340Y-106048553D01*
X144827057Y-106023008D01*
X144778387Y-106015300D01*
X144565813Y-106015300D01*
X144517142Y-106023008D01*
X144355860Y-106048553D01*
X144153685Y-106114244D01*
X143964279Y-106210751D01*
X143792313Y-106335690D01*
X143641990Y-106486013D01*
X143517049Y-106657982D01*
X143512584Y-106666746D01*
X143464609Y-106717542D01*
X143396788Y-106734336D01*
X143330653Y-106711798D01*
X143291616Y-106666746D01*
X143287150Y-106657982D01*
X143162209Y-106486013D01*
X143011886Y-106335690D01*
X142839920Y-106210751D01*
X142650514Y-106114244D01*
X142650513Y-106114243D01*
X142650512Y-106114243D01*
X142448343Y-106048554D01*
X142448341Y-106048553D01*
X142448340Y-106048553D01*
X142287057Y-106023008D01*
X142238387Y-106015300D01*
X142025813Y-106015300D01*
X141977142Y-106023008D01*
X141815860Y-106048553D01*
X141613685Y-106114244D01*
X141424279Y-106210751D01*
X141252313Y-106335690D01*
X141101990Y-106486013D01*
X140977049Y-106657982D01*
X140972584Y-106666746D01*
X140924609Y-106717542D01*
X140856788Y-106734336D01*
X140790653Y-106711798D01*
X140751616Y-106666746D01*
X140747150Y-106657982D01*
X140622209Y-106486013D01*
X140471886Y-106335690D01*
X140299920Y-106210751D01*
X140110514Y-106114244D01*
X140110513Y-106114243D01*
X140110512Y-106114243D01*
X139908343Y-106048554D01*
X139908341Y-106048553D01*
X139908340Y-106048553D01*
X139747057Y-106023008D01*
X139698387Y-106015300D01*
X139670996Y-106015300D01*
X139603957Y-105995615D01*
X139558202Y-105942811D01*
X139548258Y-105873653D01*
X139577283Y-105810097D01*
X139583315Y-105803619D01*
X139618434Y-105768500D01*
X140092061Y-105294874D01*
X140153380Y-105261392D01*
X140155547Y-105260941D01*
X140156236Y-105260804D01*
X140156238Y-105260804D01*
X140310893Y-105230041D01*
X140456575Y-105169698D01*
X140587685Y-105082093D01*
X140699185Y-104970593D01*
X140786790Y-104839483D01*
X140847133Y-104693801D01*
X140877896Y-104539146D01*
X140877896Y-104381462D01*
X140877896Y-104381459D01*
X140877895Y-104381457D01*
X140866364Y-104323488D01*
X140847133Y-104226807D01*
X140830493Y-104186634D01*
X140819951Y-104161183D01*
X157565600Y-104161183D01*
X157565600Y-105761201D01*
X157565601Y-105761218D01*
X157576100Y-105863996D01*
X157576101Y-105863999D01*
X157631285Y-106030531D01*
X157631287Y-106030536D01*
X157656865Y-106072004D01*
X157723388Y-106179856D01*
X157847444Y-106303912D01*
X157996766Y-106396014D01*
X158163303Y-106451199D01*
X158266091Y-106461700D01*
X159566108Y-106461699D01*
X159668897Y-106451199D01*
X159835434Y-106396014D01*
X159984756Y-106303912D01*
X160108812Y-106179856D01*
X160200914Y-106030534D01*
X160200914Y-106030531D01*
X160204278Y-106025079D01*
X160256226Y-105978354D01*
X160325188Y-105967131D01*
X160389270Y-105994974D01*
X160397498Y-106002494D01*
X160536313Y-106141309D01*
X160708279Y-106266248D01*
X160708281Y-106266249D01*
X160708284Y-106266251D01*
X160897688Y-106362757D01*
X161099857Y-106428446D01*
X161309813Y-106461700D01*
X161309814Y-106461700D01*
X161522386Y-106461700D01*
X161522387Y-106461700D01*
X161732343Y-106428446D01*
X161934512Y-106362757D01*
X162123916Y-106266251D01*
X162200306Y-106210751D01*
X162295886Y-106141309D01*
X162295888Y-106141306D01*
X162295892Y-106141304D01*
X162446204Y-105990992D01*
X162446206Y-105990988D01*
X162446209Y-105990986D01*
X162571148Y-105819020D01*
X162571147Y-105819020D01*
X162571151Y-105819016D01*
X162667657Y-105629612D01*
X162733346Y-105427443D01*
X162766600Y-105217487D01*
X162766600Y-104704913D01*
X162733346Y-104494957D01*
X162667657Y-104292788D01*
X162571151Y-104103384D01*
X162571149Y-104103381D01*
X162571148Y-104103379D01*
X162446209Y-103931413D01*
X162295886Y-103781090D01*
X162123920Y-103656151D01*
X161934514Y-103559644D01*
X161934513Y-103559643D01*
X161934512Y-103559643D01*
X161732343Y-103493954D01*
X161732341Y-103493953D01*
X161732340Y-103493953D01*
X161571057Y-103468408D01*
X161522387Y-103460700D01*
X161309813Y-103460700D01*
X161261142Y-103468408D01*
X161099860Y-103493953D01*
X160897685Y-103559644D01*
X160708279Y-103656151D01*
X160536315Y-103781089D01*
X160397498Y-103919906D01*
X160336175Y-103953390D01*
X160266483Y-103948406D01*
X160210550Y-103906534D01*
X160204278Y-103897320D01*
X160189119Y-103872744D01*
X160108812Y-103742544D01*
X159984756Y-103618488D01*
X159864570Y-103544357D01*
X159835436Y-103526387D01*
X159835431Y-103526385D01*
X159767171Y-103503766D01*
X159668897Y-103471201D01*
X159668895Y-103471200D01*
X159566110Y-103460700D01*
X158266098Y-103460700D01*
X158266081Y-103460701D01*
X158163303Y-103471200D01*
X158163300Y-103471201D01*
X157996768Y-103526385D01*
X157996763Y-103526387D01*
X157847442Y-103618489D01*
X157723389Y-103742542D01*
X157631287Y-103891863D01*
X157631285Y-103891868D01*
X157626425Y-103906534D01*
X157576101Y-104058403D01*
X157576101Y-104058404D01*
X157576100Y-104058404D01*
X157565600Y-104161183D01*
X140819951Y-104161183D01*
X140786793Y-104081131D01*
X140786786Y-104081118D01*
X140699185Y-103950015D01*
X140699182Y-103950011D01*
X140587688Y-103838517D01*
X140587684Y-103838514D01*
X140456581Y-103750913D01*
X140456568Y-103750906D01*
X140310897Y-103690568D01*
X140310885Y-103690565D01*
X140156241Y-103659804D01*
X140156238Y-103659804D01*
X139998554Y-103659804D01*
X139998551Y-103659804D01*
X139843906Y-103690565D01*
X139843894Y-103690568D01*
X139698223Y-103750906D01*
X139698210Y-103750913D01*
X139567107Y-103838514D01*
X139567103Y-103838517D01*
X139455609Y-103950011D01*
X139455606Y-103950015D01*
X139368005Y-104081118D01*
X139367998Y-104081131D01*
X139307660Y-104226802D01*
X139307657Y-104226812D01*
X139276758Y-104382152D01*
X139244373Y-104444063D01*
X139242822Y-104445641D01*
X138758484Y-104929981D01*
X138697161Y-104963466D01*
X138670803Y-104966300D01*
X135550666Y-104966300D01*
X135483627Y-104946615D01*
X135481775Y-104945402D01*
X135350085Y-104857409D01*
X135350072Y-104857402D01*
X135204401Y-104797064D01*
X135204389Y-104797061D01*
X135049745Y-104766300D01*
X135049742Y-104766300D01*
X134892058Y-104766300D01*
X134892055Y-104766300D01*
X134737410Y-104797061D01*
X134737398Y-104797064D01*
X134591727Y-104857402D01*
X134591714Y-104857409D01*
X134460611Y-104945010D01*
X134460607Y-104945013D01*
X134349113Y-105056507D01*
X134349110Y-105056511D01*
X134261509Y-105187614D01*
X134261502Y-105187627D01*
X134201164Y-105333298D01*
X134201161Y-105333310D01*
X134170400Y-105487953D01*
X134170400Y-105645646D01*
X134201161Y-105800289D01*
X134201164Y-105800301D01*
X134219202Y-105843848D01*
X134226671Y-105913317D01*
X134195396Y-105975796D01*
X134135307Y-106011448D01*
X134104641Y-106015300D01*
X133614229Y-106015300D01*
X133614223Y-106015301D01*
X133554616Y-106021708D01*
X133419771Y-106072002D01*
X133419764Y-106072006D01*
X133304555Y-106158252D01*
X133304552Y-106158255D01*
X133218306Y-106273464D01*
X133218302Y-106273471D01*
X133168008Y-106408317D01*
X133161601Y-106467916D01*
X133161600Y-106467935D01*
X133161600Y-108263670D01*
X133161601Y-108263676D01*
X133168008Y-108323283D01*
X133218302Y-108458128D01*
X133218306Y-108458135D01*
X133304552Y-108573344D01*
X133304553Y-108573345D01*
X133316363Y-108582186D01*
X133358235Y-108638119D01*
X133363219Y-108707811D01*
X133329735Y-108769134D01*
X133268412Y-108802619D01*
X133239125Y-108805418D01*
X117012718Y-108422117D01*
X116946162Y-108400855D01*
X116901667Y-108346985D01*
X116893359Y-108277611D01*
X116901082Y-108250706D01*
X116922332Y-108199406D01*
X116993174Y-107935023D01*
X117028900Y-107663655D01*
X117028900Y-107389945D01*
X116993174Y-107118577D01*
X116922332Y-106854194D01*
X116817588Y-106601320D01*
X116816814Y-106599980D01*
X116781027Y-106537995D01*
X123204999Y-106537995D01*
X123231918Y-106673322D01*
X123231921Y-106673332D01*
X123284721Y-106800804D01*
X123284728Y-106800817D01*
X123361385Y-106915541D01*
X123361388Y-106915545D01*
X123458954Y-107013111D01*
X123458958Y-107013114D01*
X123573682Y-107089771D01*
X123573695Y-107089778D01*
X123701167Y-107142578D01*
X123701172Y-107142580D01*
X123701176Y-107142580D01*
X123701177Y-107142581D01*
X123836504Y-107169500D01*
X123836507Y-107169500D01*
X123974495Y-107169500D01*
X124065541Y-107151389D01*
X124109828Y-107142580D01*
X124237311Y-107089775D01*
X124352042Y-107013114D01*
X124449614Y-106915542D01*
X124526275Y-106800811D01*
X124579080Y-106673328D01*
X124593402Y-106601326D01*
X124606000Y-106537995D01*
X126204999Y-106537995D01*
X126231918Y-106673322D01*
X126231921Y-106673332D01*
X126284721Y-106800804D01*
X126284728Y-106800817D01*
X126361385Y-106915541D01*
X126361388Y-106915545D01*
X126458954Y-107013111D01*
X126458958Y-107013114D01*
X126573682Y-107089771D01*
X126573695Y-107089778D01*
X126701167Y-107142578D01*
X126701172Y-107142580D01*
X126701176Y-107142580D01*
X126701177Y-107142581D01*
X126836504Y-107169500D01*
X126836507Y-107169500D01*
X126974495Y-107169500D01*
X127065541Y-107151389D01*
X127109828Y-107142580D01*
X127237311Y-107089775D01*
X127352042Y-107013114D01*
X127449614Y-106915542D01*
X127526275Y-106800811D01*
X127579080Y-106673328D01*
X127593402Y-106601326D01*
X127606000Y-106537995D01*
X127606000Y-106400004D01*
X127579081Y-106264677D01*
X127579080Y-106264676D01*
X127579080Y-106264672D01*
X127576014Y-106257270D01*
X127526278Y-106137195D01*
X127526271Y-106137182D01*
X127449614Y-106022458D01*
X127449611Y-106022454D01*
X127352045Y-105924888D01*
X127352041Y-105924885D01*
X127237317Y-105848228D01*
X127237304Y-105848221D01*
X127109832Y-105795421D01*
X127109822Y-105795418D01*
X126974495Y-105768500D01*
X126974493Y-105768500D01*
X126836507Y-105768500D01*
X126836505Y-105768500D01*
X126701177Y-105795418D01*
X126701167Y-105795421D01*
X126573695Y-105848221D01*
X126573682Y-105848228D01*
X126458958Y-105924885D01*
X126458954Y-105924888D01*
X126361388Y-106022454D01*
X126361385Y-106022458D01*
X126284728Y-106137182D01*
X126284721Y-106137195D01*
X126231921Y-106264667D01*
X126231918Y-106264677D01*
X126205000Y-106400004D01*
X126205000Y-106400007D01*
X126205000Y-106537993D01*
X126205000Y-106537995D01*
X126204999Y-106537995D01*
X124606000Y-106537995D01*
X124606000Y-106400004D01*
X124579081Y-106264677D01*
X124579080Y-106264676D01*
X124579080Y-106264672D01*
X124576014Y-106257270D01*
X124526278Y-106137195D01*
X124526271Y-106137182D01*
X124449614Y-106022458D01*
X124449611Y-106022454D01*
X124352045Y-105924888D01*
X124352041Y-105924885D01*
X124237317Y-105848228D01*
X124237304Y-105848221D01*
X124109832Y-105795421D01*
X124109822Y-105795418D01*
X123974495Y-105768500D01*
X123974493Y-105768500D01*
X123836507Y-105768500D01*
X123836505Y-105768500D01*
X123701177Y-105795418D01*
X123701167Y-105795421D01*
X123573695Y-105848221D01*
X123573682Y-105848228D01*
X123458958Y-105924885D01*
X123458954Y-105924888D01*
X123361388Y-106022454D01*
X123361385Y-106022458D01*
X123284728Y-106137182D01*
X123284721Y-106137195D01*
X123231921Y-106264667D01*
X123231918Y-106264677D01*
X123205000Y-106400004D01*
X123205000Y-106400007D01*
X123205000Y-106537993D01*
X123205000Y-106537995D01*
X123204999Y-106537995D01*
X116781027Y-106537995D01*
X116733639Y-106455915D01*
X116733638Y-106455914D01*
X116730915Y-106451198D01*
X116680734Y-106364280D01*
X116680733Y-106364278D01*
X116514111Y-106147133D01*
X116514105Y-106147126D01*
X116320573Y-105953594D01*
X116320566Y-105953588D01*
X116103419Y-105786965D01*
X115866383Y-105650113D01*
X115866373Y-105650109D01*
X115613506Y-105545368D01*
X115399251Y-105487958D01*
X115349123Y-105474526D01*
X115349122Y-105474525D01*
X115349119Y-105474525D01*
X115077765Y-105438801D01*
X115077760Y-105438800D01*
X115077755Y-105438800D01*
X114804045Y-105438800D01*
X114804039Y-105438800D01*
X114804034Y-105438801D01*
X114532680Y-105474525D01*
X114268293Y-105545368D01*
X114015426Y-105650109D01*
X114015416Y-105650113D01*
X113778380Y-105786965D01*
X113561233Y-105953588D01*
X113561226Y-105953594D01*
X113367694Y-106147126D01*
X113367688Y-106147133D01*
X113201065Y-106364280D01*
X113064213Y-106601316D01*
X113064209Y-106601326D01*
X112959468Y-106854193D01*
X112888625Y-107118580D01*
X112852901Y-107389934D01*
X112852900Y-107389951D01*
X112852900Y-107663648D01*
X112852901Y-107663665D01*
X112881936Y-107884214D01*
X112888626Y-107935023D01*
X112909804Y-108014059D01*
X112950841Y-108167210D01*
X112949178Y-108237060D01*
X112910016Y-108294923D01*
X112845787Y-108322427D01*
X112828138Y-108323269D01*
X102095983Y-108069754D01*
X102029427Y-108048492D01*
X101984932Y-107994622D01*
X101974977Y-107941751D01*
X101982964Y-107696808D01*
X102004823Y-107630448D01*
X102059090Y-107586439D01*
X102128536Y-107578754D01*
X102180979Y-107604802D01*
X102182455Y-107602832D01*
X102304764Y-107694393D01*
X102304771Y-107694397D01*
X102439617Y-107744691D01*
X102439616Y-107744691D01*
X102446544Y-107745435D01*
X102499227Y-107751100D01*
X104294972Y-107751099D01*
X104354583Y-107744691D01*
X104489431Y-107694396D01*
X104604646Y-107608146D01*
X104690896Y-107492931D01*
X104741191Y-107358083D01*
X104747600Y-107298473D01*
X104747599Y-105502728D01*
X104741191Y-105443117D01*
X104739581Y-105438801D01*
X104690897Y-105308271D01*
X104690893Y-105308264D01*
X104604647Y-105193055D01*
X104604644Y-105193052D01*
X104489435Y-105106806D01*
X104489428Y-105106802D01*
X104358017Y-105057789D01*
X104302083Y-105015918D01*
X104277666Y-104950453D01*
X104292518Y-104882180D01*
X104313663Y-104853932D01*
X104427204Y-104740392D01*
X104552151Y-104568416D01*
X104648657Y-104379012D01*
X104714346Y-104176843D01*
X104747600Y-103966887D01*
X104747600Y-103754313D01*
X104714346Y-103544357D01*
X104648657Y-103342188D01*
X104552151Y-103152784D01*
X104552149Y-103152781D01*
X104552148Y-103152779D01*
X104427209Y-102980813D01*
X104276892Y-102830496D01*
X104135590Y-102727835D01*
X104104916Y-102705549D01*
X104089619Y-102697755D01*
X104084003Y-102694080D01*
X104065520Y-102672392D01*
X104044807Y-102652830D01*
X104043151Y-102646143D01*
X104038684Y-102640902D01*
X104034860Y-102612664D01*
X104028012Y-102585009D01*
X104030233Y-102578490D01*
X104029309Y-102571664D01*
X104041358Y-102545843D01*
X104050549Y-102518874D01*
X104056249Y-102513934D01*
X104058856Y-102508349D01*
X104072991Y-102499427D01*
X104095607Y-102479832D01*
X104104655Y-102475222D01*
X104158816Y-102435870D01*
X104158817Y-102435870D01*
X103885747Y-102162800D01*
X107906670Y-102162800D01*
X108849554Y-102162800D01*
X108811070Y-102229457D01*
X108778700Y-102350265D01*
X108778700Y-102475335D01*
X108811070Y-102596143D01*
X108849554Y-102662800D01*
X107906670Y-102662800D01*
X107936942Y-102853927D01*
X107936942Y-102853930D01*
X108002604Y-103056017D01*
X108099079Y-103245357D01*
X108223972Y-103417259D01*
X108223976Y-103417264D01*
X108374235Y-103567523D01*
X108374240Y-103567527D01*
X108546142Y-103692420D01*
X108735482Y-103788895D01*
X108937571Y-103854557D01*
X109003700Y-103865031D01*
X109003700Y-102816945D01*
X109070357Y-102855430D01*
X109191165Y-102887800D01*
X109316235Y-102887800D01*
X109437043Y-102855430D01*
X109503700Y-102816945D01*
X109503700Y-103865030D01*
X109569826Y-103854557D01*
X109569829Y-103854557D01*
X109771917Y-103788895D01*
X109961257Y-103692420D01*
X110133159Y-103567527D01*
X110133164Y-103567523D01*
X110283421Y-103417266D01*
X110403071Y-103252581D01*
X110458401Y-103209915D01*
X110528014Y-103203936D01*
X110589810Y-103236541D01*
X110603708Y-103252581D01*
X110723590Y-103417585D01*
X110723594Y-103417590D01*
X110873913Y-103567909D01*
X111045879Y-103692848D01*
X111045881Y-103692849D01*
X111045884Y-103692851D01*
X111235288Y-103789357D01*
X111437457Y-103855046D01*
X111647413Y-103888300D01*
X111647414Y-103888300D01*
X111859986Y-103888300D01*
X111859987Y-103888300D01*
X112069943Y-103855046D01*
X112272112Y-103789357D01*
X112461516Y-103692851D01*
X112512032Y-103656149D01*
X112633486Y-103567909D01*
X112633488Y-103567906D01*
X112633492Y-103567904D01*
X112783804Y-103417592D01*
X112903383Y-103253004D01*
X112958711Y-103210340D01*
X113028324Y-103204361D01*
X113090120Y-103236966D01*
X113104013Y-103252999D01*
X113191649Y-103373620D01*
X113223596Y-103417592D01*
X113373913Y-103567909D01*
X113545879Y-103692848D01*
X113545881Y-103692849D01*
X113545884Y-103692851D01*
X113735288Y-103789357D01*
X113937457Y-103855046D01*
X114147413Y-103888300D01*
X114147414Y-103888300D01*
X114359986Y-103888300D01*
X114359987Y-103888300D01*
X114569943Y-103855046D01*
X114772112Y-103789357D01*
X114961516Y-103692851D01*
X115133492Y-103567904D01*
X115272304Y-103429091D01*
X115333623Y-103395609D01*
X115403315Y-103400593D01*
X115459249Y-103442464D01*
X115465521Y-103451678D01*
X115468885Y-103457133D01*
X115468886Y-103457134D01*
X115560988Y-103606456D01*
X115685044Y-103730512D01*
X115834366Y-103822614D01*
X116000903Y-103877799D01*
X116103691Y-103888300D01*
X117403708Y-103888299D01*
X117506497Y-103877799D01*
X117673034Y-103822614D01*
X117822356Y-103730512D01*
X117946412Y-103606456D01*
X118038514Y-103457134D01*
X118093699Y-103290597D01*
X118104200Y-103187809D01*
X118104200Y-102987953D01*
X147170400Y-102987953D01*
X147170400Y-103145646D01*
X147201161Y-103300289D01*
X147201164Y-103300301D01*
X147261502Y-103445972D01*
X147261509Y-103445985D01*
X147349110Y-103577088D01*
X147349113Y-103577092D01*
X147460607Y-103688586D01*
X147460611Y-103688589D01*
X147591714Y-103776190D01*
X147591727Y-103776197D01*
X147713094Y-103826468D01*
X147737403Y-103836537D01*
X147867560Y-103862427D01*
X147892053Y-103867299D01*
X147892056Y-103867300D01*
X147892058Y-103867300D01*
X148049744Y-103867300D01*
X148049745Y-103867299D01*
X148204397Y-103836537D01*
X148319416Y-103788895D01*
X148350072Y-103776197D01*
X148350072Y-103776196D01*
X148350079Y-103776194D01*
X148418450Y-103730510D01*
X148481775Y-103688198D01*
X148548453Y-103667320D01*
X148550666Y-103667300D01*
X149391134Y-103667300D01*
X149458173Y-103686985D01*
X149460025Y-103688198D01*
X149591714Y-103776190D01*
X149591727Y-103776197D01*
X149713094Y-103826468D01*
X149737403Y-103836537D01*
X149867560Y-103862427D01*
X149892053Y-103867299D01*
X149892056Y-103867300D01*
X149892058Y-103867300D01*
X150049744Y-103867300D01*
X150049745Y-103867299D01*
X150204397Y-103836537D01*
X150319416Y-103788895D01*
X150350072Y-103776197D01*
X150350072Y-103776196D01*
X150350079Y-103776194D01*
X150481189Y-103688589D01*
X150592689Y-103577089D01*
X150680294Y-103445979D01*
X150740637Y-103300297D01*
X150771400Y-103145642D01*
X150771400Y-102987958D01*
X150771400Y-102987955D01*
X150771399Y-102987953D01*
X150751477Y-102887800D01*
X150740637Y-102833303D01*
X150685754Y-102700802D01*
X150680297Y-102687627D01*
X150680290Y-102687614D01*
X150592689Y-102556511D01*
X150592686Y-102556507D01*
X150481192Y-102445013D01*
X150481188Y-102445010D01*
X150350085Y-102357409D01*
X150350072Y-102357402D01*
X150204401Y-102297064D01*
X150204389Y-102297061D01*
X150049745Y-102266300D01*
X150049742Y-102266300D01*
X149892058Y-102266300D01*
X149892055Y-102266300D01*
X149737410Y-102297061D01*
X149737398Y-102297064D01*
X149591727Y-102357402D01*
X149591714Y-102357409D01*
X149460025Y-102445402D01*
X149393347Y-102466280D01*
X149391134Y-102466300D01*
X148550666Y-102466300D01*
X148483627Y-102446615D01*
X148481775Y-102445402D01*
X148350085Y-102357409D01*
X148350072Y-102357402D01*
X148204401Y-102297064D01*
X148204389Y-102297061D01*
X148049745Y-102266300D01*
X148049742Y-102266300D01*
X147892058Y-102266300D01*
X147892055Y-102266300D01*
X147737410Y-102297061D01*
X147737398Y-102297064D01*
X147591727Y-102357402D01*
X147591714Y-102357409D01*
X147460611Y-102445010D01*
X147460607Y-102445013D01*
X147349113Y-102556507D01*
X147349110Y-102556511D01*
X147261509Y-102687614D01*
X147261502Y-102687627D01*
X147201164Y-102833298D01*
X147201161Y-102833310D01*
X147170400Y-102987953D01*
X118104200Y-102987953D01*
X118104199Y-102367300D01*
X118104199Y-101637798D01*
X118104198Y-101637781D01*
X118093699Y-101535003D01*
X118093698Y-101535000D01*
X118078108Y-101487953D01*
X118038514Y-101368466D01*
X117946412Y-101219144D01*
X117822356Y-101095088D01*
X117726953Y-101036243D01*
X117673036Y-101002987D01*
X117673031Y-101002985D01*
X117638797Y-100991641D01*
X117506497Y-100947801D01*
X117506495Y-100947800D01*
X117403710Y-100937300D01*
X116103698Y-100937300D01*
X116103681Y-100937301D01*
X116000903Y-100947800D01*
X116000900Y-100947801D01*
X115834368Y-101002985D01*
X115834363Y-101002987D01*
X115685042Y-101095089D01*
X115560989Y-101219142D01*
X115465521Y-101373921D01*
X115413573Y-101420645D01*
X115344610Y-101431868D01*
X115280528Y-101404024D01*
X115272301Y-101396505D01*
X115133486Y-101257690D01*
X114961520Y-101132751D01*
X114772114Y-101036244D01*
X114772113Y-101036243D01*
X114772112Y-101036243D01*
X114569943Y-100970554D01*
X114569941Y-100970553D01*
X114569940Y-100970553D01*
X114408657Y-100945008D01*
X114359987Y-100937300D01*
X114147413Y-100937300D01*
X114098742Y-100945008D01*
X113937460Y-100970553D01*
X113735285Y-101036244D01*
X113545879Y-101132751D01*
X113373913Y-101257690D01*
X113223594Y-101408009D01*
X113223590Y-101408014D01*
X113104018Y-101572593D01*
X113048689Y-101615259D01*
X112979075Y-101621238D01*
X112917280Y-101588633D01*
X112903382Y-101572593D01*
X112783809Y-101408014D01*
X112783805Y-101408009D01*
X112633486Y-101257690D01*
X112461520Y-101132751D01*
X112272114Y-101036244D01*
X112272113Y-101036243D01*
X112272112Y-101036243D01*
X112069943Y-100970554D01*
X112069941Y-100970553D01*
X112069940Y-100970553D01*
X111908657Y-100945008D01*
X111859987Y-100937300D01*
X111647413Y-100937300D01*
X111598742Y-100945008D01*
X111437460Y-100970553D01*
X111235285Y-101036244D01*
X111045879Y-101132751D01*
X110873913Y-101257690D01*
X110723594Y-101408009D01*
X110723590Y-101408014D01*
X110603708Y-101573018D01*
X110548378Y-101615684D01*
X110478765Y-101621663D01*
X110416970Y-101589057D01*
X110403072Y-101573018D01*
X110283427Y-101408340D01*
X110283423Y-101408335D01*
X110133164Y-101258076D01*
X110133159Y-101258072D01*
X109961257Y-101133179D01*
X109771915Y-101036703D01*
X109569824Y-100971041D01*
X109503700Y-100960568D01*
X109503700Y-102008654D01*
X109437043Y-101970170D01*
X109316235Y-101937800D01*
X109191165Y-101937800D01*
X109070357Y-101970170D01*
X109003700Y-102008654D01*
X109003700Y-100960568D01*
X109003699Y-100960568D01*
X108937575Y-100971041D01*
X108735484Y-101036703D01*
X108546142Y-101133179D01*
X108374240Y-101258072D01*
X108374235Y-101258076D01*
X108223976Y-101408335D01*
X108223972Y-101408340D01*
X108099079Y-101580242D01*
X108002604Y-101769582D01*
X107936942Y-101971669D01*
X107936942Y-101971672D01*
X107906670Y-102162800D01*
X103885747Y-102162800D01*
X103526508Y-101803562D01*
X103590093Y-101786525D01*
X103704107Y-101720699D01*
X103797199Y-101627607D01*
X103863025Y-101513593D01*
X103880062Y-101450008D01*
X104512370Y-102082317D01*
X104512370Y-102082316D01*
X104551722Y-102028154D01*
X104648195Y-101838817D01*
X104713857Y-101636730D01*
X104713857Y-101636727D01*
X104747100Y-101426846D01*
X104747100Y-101214353D01*
X104713857Y-101004472D01*
X104713857Y-101004469D01*
X104648195Y-100802382D01*
X104551724Y-100613049D01*
X104512370Y-100558882D01*
X104512369Y-100558882D01*
X103880062Y-101191190D01*
X103863025Y-101127607D01*
X103797199Y-101013593D01*
X103704107Y-100920501D01*
X103590093Y-100854675D01*
X103526509Y-100837637D01*
X104158816Y-100205328D01*
X104104647Y-100165973D01*
X104104647Y-100165972D01*
X104095600Y-100161363D01*
X104044806Y-100113388D01*
X104028012Y-100045566D01*
X104050551Y-99979432D01*
X104095608Y-99940393D01*
X104104916Y-99935651D01*
X104184107Y-99878115D01*
X104276886Y-99810709D01*
X104276888Y-99810706D01*
X104276892Y-99810704D01*
X104427204Y-99660392D01*
X104427206Y-99660388D01*
X104427209Y-99660386D01*
X104552148Y-99488420D01*
X104552147Y-99488420D01*
X104552151Y-99488416D01*
X104648657Y-99299012D01*
X104714346Y-99096843D01*
X104747600Y-98886887D01*
X104747600Y-98674313D01*
X104714346Y-98464357D01*
X104648657Y-98262188D01*
X104552151Y-98072784D01*
X104552149Y-98072781D01*
X104552148Y-98072779D01*
X104427209Y-97900813D01*
X104276886Y-97750490D01*
X104104920Y-97625551D01*
X103915514Y-97529044D01*
X103915513Y-97529043D01*
X103915512Y-97529043D01*
X103713343Y-97463354D01*
X103713341Y-97463353D01*
X103713340Y-97463353D01*
X103543782Y-97436498D01*
X103503387Y-97430100D01*
X103290813Y-97430100D01*
X103250418Y-97436498D01*
X103080860Y-97463353D01*
X102878685Y-97529044D01*
X102689279Y-97625551D01*
X102517310Y-97750493D01*
X102514907Y-97752546D01*
X102513805Y-97753039D01*
X102513366Y-97753359D01*
X102513298Y-97753266D01*
X102451146Y-97781118D01*
X102382060Y-97770681D01*
X102329583Y-97724551D01*
X102310377Y-97657373D01*
X102310438Y-97654277D01*
X102335427Y-96887953D01*
X119070400Y-96887953D01*
X119070400Y-97045646D01*
X119101161Y-97200289D01*
X119101164Y-97200301D01*
X119161502Y-97345972D01*
X119161509Y-97345985D01*
X119249110Y-97477088D01*
X119249113Y-97477092D01*
X119360607Y-97588586D01*
X119360611Y-97588589D01*
X119491714Y-97676190D01*
X119491727Y-97676197D01*
X119608466Y-97724551D01*
X119637403Y-97736537D01*
X119747887Y-97758513D01*
X119770591Y-97763030D01*
X119832502Y-97795415D01*
X119867076Y-97856130D01*
X119870400Y-97884647D01*
X119870400Y-99487034D01*
X119850715Y-99554073D01*
X119849502Y-99555925D01*
X119761509Y-99687614D01*
X119761502Y-99687627D01*
X119701164Y-99833298D01*
X119701161Y-99833310D01*
X119670400Y-99987953D01*
X119670400Y-100145646D01*
X119701161Y-100300289D01*
X119701164Y-100300301D01*
X119761502Y-100445972D01*
X119761509Y-100445985D01*
X119849110Y-100577088D01*
X119849113Y-100577092D01*
X119960606Y-100688585D01*
X119960611Y-100688589D01*
X120091714Y-100776190D01*
X120091727Y-100776197D01*
X120232241Y-100834399D01*
X120237403Y-100836537D01*
X120392053Y-100867299D01*
X120392056Y-100867300D01*
X120392058Y-100867300D01*
X120549744Y-100867300D01*
X120549745Y-100867299D01*
X120704397Y-100836537D01*
X120850079Y-100776194D01*
X120953686Y-100706966D01*
X120979380Y-100689798D01*
X120997426Y-100684147D01*
X121013336Y-100673923D01*
X121044295Y-100669471D01*
X121046057Y-100668920D01*
X121048271Y-100668900D01*
X121170140Y-100668900D01*
X121237179Y-100688585D01*
X121257821Y-100705219D01*
X121696685Y-101144083D01*
X121730170Y-101205406D01*
X121725186Y-101275098D01*
X121723566Y-101279214D01*
X121701163Y-101333301D01*
X121701160Y-101333311D01*
X121670400Y-101487953D01*
X121670400Y-101645646D01*
X121701161Y-101800289D01*
X121701164Y-101800301D01*
X121761502Y-101945972D01*
X121761509Y-101945985D01*
X121849110Y-102077088D01*
X121849113Y-102077092D01*
X121960607Y-102188586D01*
X121960611Y-102188589D01*
X122091714Y-102276190D01*
X122091727Y-102276197D01*
X122173218Y-102309951D01*
X122237403Y-102336537D01*
X122362975Y-102361515D01*
X122392053Y-102367299D01*
X122392056Y-102367300D01*
X122392058Y-102367300D01*
X122549744Y-102367300D01*
X122549745Y-102367299D01*
X122704397Y-102336537D01*
X122850079Y-102276194D01*
X122981189Y-102188589D01*
X123092689Y-102077089D01*
X123180294Y-101945979D01*
X123240637Y-101800297D01*
X123271400Y-101645642D01*
X123271400Y-101487958D01*
X123271400Y-101487955D01*
X123271399Y-101487953D01*
X123259244Y-101426846D01*
X123240637Y-101333303D01*
X123209320Y-101257696D01*
X123180297Y-101187627D01*
X123180290Y-101187614D01*
X123093898Y-101058319D01*
X123074249Y-100995567D01*
X123074061Y-100995592D01*
X123073918Y-100994511D01*
X123073020Y-100991641D01*
X123073000Y-100989428D01*
X123073000Y-100987534D01*
X123072999Y-100987530D01*
X123068450Y-100970553D01*
X123060612Y-100941299D01*
X123031968Y-100834399D01*
X122958395Y-100706966D01*
X122952702Y-100697105D01*
X122952698Y-100697100D01*
X121840599Y-99585001D01*
X121840594Y-99584997D01*
X121809985Y-99567326D01*
X121791253Y-99556511D01*
X121703304Y-99505734D01*
X121703303Y-99505733D01*
X121638675Y-99488416D01*
X121550168Y-99464700D01*
X121550166Y-99464700D01*
X121195400Y-99464700D01*
X121128361Y-99445015D01*
X121082606Y-99392211D01*
X121071400Y-99340700D01*
X121071400Y-98589553D01*
X123170400Y-98589553D01*
X123170400Y-98747246D01*
X123201161Y-98901889D01*
X123201164Y-98901901D01*
X123261502Y-99047572D01*
X123261509Y-99047585D01*
X123349110Y-99178688D01*
X123349113Y-99178692D01*
X123460607Y-99290186D01*
X123460611Y-99290189D01*
X123591714Y-99377790D01*
X123591727Y-99377797D01*
X123737398Y-99438135D01*
X123737403Y-99438137D01*
X123892053Y-99468899D01*
X123892056Y-99468900D01*
X123892058Y-99468900D01*
X124049744Y-99468900D01*
X124049745Y-99468899D01*
X124204397Y-99438137D01*
X124350079Y-99377794D01*
X124481189Y-99290189D01*
X124592689Y-99178689D01*
X124680294Y-99047579D01*
X124740637Y-98901897D01*
X124771400Y-98747242D01*
X124771400Y-98589558D01*
X124771400Y-98589555D01*
X124771399Y-98589553D01*
X124746496Y-98464360D01*
X124740637Y-98434903D01*
X124740635Y-98434898D01*
X124680297Y-98289227D01*
X124680290Y-98289214D01*
X124593898Y-98159919D01*
X124588247Y-98141872D01*
X124578023Y-98125963D01*
X124573571Y-98095001D01*
X124573020Y-98093241D01*
X124573000Y-98091028D01*
X124573000Y-97867560D01*
X124592685Y-97800521D01*
X124609319Y-97779879D01*
X124763649Y-97625549D01*
X124988387Y-97400810D01*
X125049708Y-97367327D01*
X125051875Y-97366876D01*
X125101234Y-97357057D01*
X125204397Y-97336537D01*
X125350079Y-97276194D01*
X125481189Y-97188589D01*
X125592689Y-97077089D01*
X125652248Y-96987953D01*
X130170400Y-96987953D01*
X130170400Y-97145646D01*
X130201161Y-97300289D01*
X130201164Y-97300301D01*
X130261502Y-97445972D01*
X130261509Y-97445985D01*
X130349110Y-97577088D01*
X130349113Y-97577092D01*
X130460607Y-97688586D01*
X130460611Y-97688589D01*
X130591714Y-97776190D01*
X130591727Y-97776197D01*
X130737398Y-97836535D01*
X130737403Y-97836537D01*
X130892053Y-97867299D01*
X130892056Y-97867300D01*
X130892058Y-97867300D01*
X131049744Y-97867300D01*
X131049745Y-97867299D01*
X131204397Y-97836537D01*
X131350079Y-97776194D01*
X131388548Y-97750490D01*
X131479380Y-97689798D01*
X131542133Y-97670148D01*
X131542109Y-97669961D01*
X131543184Y-97669819D01*
X131546057Y-97668920D01*
X131548271Y-97668900D01*
X131550166Y-97668900D01*
X131550168Y-97668900D01*
X131703302Y-97627867D01*
X131840598Y-97548600D01*
X131952700Y-97436498D01*
X134488387Y-94900810D01*
X134549708Y-94867327D01*
X134551875Y-94866876D01*
X134601234Y-94857057D01*
X134704397Y-94836537D01*
X134845516Y-94778084D01*
X134850072Y-94776197D01*
X134850072Y-94776196D01*
X134850079Y-94776194D01*
X134981189Y-94688589D01*
X135092689Y-94577089D01*
X135180294Y-94445979D01*
X135240637Y-94300297D01*
X135271400Y-94145642D01*
X135271400Y-93987958D01*
X135271400Y-93987955D01*
X135271399Y-93987953D01*
X135240638Y-93833310D01*
X135240638Y-93833308D01*
X135240637Y-93833303D01*
X135239565Y-93830715D01*
X135180297Y-93687627D01*
X135180290Y-93687614D01*
X135092689Y-93556511D01*
X135092686Y-93556507D01*
X134981192Y-93445013D01*
X134981188Y-93445010D01*
X134850085Y-93357409D01*
X134850072Y-93357402D01*
X134704401Y-93297064D01*
X134704389Y-93297061D01*
X134549745Y-93266300D01*
X134549742Y-93266300D01*
X134392058Y-93266300D01*
X134392055Y-93266300D01*
X134237410Y-93297061D01*
X134237398Y-93297064D01*
X134091727Y-93357402D01*
X134091714Y-93357409D01*
X133960611Y-93445010D01*
X133960607Y-93445013D01*
X133849113Y-93556507D01*
X133849110Y-93556511D01*
X133761509Y-93687614D01*
X133761502Y-93687627D01*
X133701164Y-93833298D01*
X133701161Y-93833308D01*
X133670823Y-93985825D01*
X133638438Y-94047736D01*
X133636887Y-94049314D01*
X131393615Y-96292585D01*
X131332292Y-96326070D01*
X131262600Y-96321086D01*
X131258483Y-96319466D01*
X131204397Y-96297063D01*
X131204393Y-96297062D01*
X131204388Y-96297060D01*
X131049745Y-96266300D01*
X131049742Y-96266300D01*
X130892058Y-96266300D01*
X130892055Y-96266300D01*
X130737410Y-96297061D01*
X130737398Y-96297064D01*
X130591727Y-96357402D01*
X130591714Y-96357409D01*
X130460611Y-96445010D01*
X130460607Y-96445013D01*
X130349113Y-96556507D01*
X130349110Y-96556511D01*
X130261509Y-96687614D01*
X130261502Y-96687627D01*
X130201164Y-96833298D01*
X130201161Y-96833310D01*
X130170400Y-96987953D01*
X125652248Y-96987953D01*
X125680294Y-96945979D01*
X125740637Y-96800297D01*
X125771400Y-96645642D01*
X125771400Y-96487958D01*
X125771400Y-96487955D01*
X125771399Y-96487953D01*
X125745431Y-96357406D01*
X125740637Y-96333303D01*
X125734906Y-96319466D01*
X125680297Y-96187627D01*
X125680290Y-96187614D01*
X125592689Y-96056511D01*
X125592686Y-96056507D01*
X125481192Y-95945013D01*
X125481188Y-95945010D01*
X125350085Y-95857409D01*
X125350072Y-95857402D01*
X125204401Y-95797064D01*
X125204389Y-95797061D01*
X125049745Y-95766300D01*
X125049742Y-95766300D01*
X124892058Y-95766300D01*
X124892055Y-95766300D01*
X124737410Y-95797061D01*
X124737398Y-95797064D01*
X124591727Y-95857402D01*
X124591714Y-95857409D01*
X124460611Y-95945010D01*
X124460607Y-95945013D01*
X124349113Y-96056507D01*
X124349110Y-96056511D01*
X124261509Y-96187614D01*
X124261502Y-96187627D01*
X124201164Y-96333298D01*
X124201161Y-96333308D01*
X124170823Y-96485825D01*
X124138438Y-96547736D01*
X124136887Y-96549314D01*
X123601202Y-97085000D01*
X123489101Y-97197100D01*
X123489099Y-97197103D01*
X123409833Y-97334397D01*
X123398973Y-97374927D01*
X123371598Y-97477092D01*
X123368800Y-97487533D01*
X123368800Y-98091028D01*
X123349115Y-98158067D01*
X123347902Y-98159919D01*
X123261509Y-98289214D01*
X123261502Y-98289227D01*
X123201164Y-98434898D01*
X123201161Y-98434910D01*
X123170400Y-98589553D01*
X121071400Y-98589553D01*
X121071400Y-97487745D01*
X121071400Y-97487743D01*
X121041171Y-97374927D01*
X121030477Y-97335015D01*
X120995785Y-97274927D01*
X120951420Y-97198084D01*
X120839616Y-97086280D01*
X120839615Y-97086279D01*
X120835285Y-97081949D01*
X120835274Y-97081939D01*
X120705474Y-96952139D01*
X120671989Y-96890816D01*
X120671538Y-96888649D01*
X120640638Y-96733310D01*
X120640637Y-96733303D01*
X120604327Y-96645642D01*
X120580297Y-96587627D01*
X120580290Y-96587614D01*
X120492689Y-96456511D01*
X120492686Y-96456507D01*
X120381192Y-96345013D01*
X120381188Y-96345010D01*
X120250085Y-96257409D01*
X120250072Y-96257402D01*
X120104401Y-96197064D01*
X120104389Y-96197061D01*
X119949745Y-96166300D01*
X119949742Y-96166300D01*
X119792058Y-96166300D01*
X119792055Y-96166300D01*
X119637410Y-96197061D01*
X119637398Y-96197064D01*
X119491727Y-96257402D01*
X119491714Y-96257409D01*
X119360611Y-96345010D01*
X119360607Y-96345013D01*
X119249113Y-96456507D01*
X119249110Y-96456511D01*
X119161509Y-96587614D01*
X119161502Y-96587627D01*
X119101164Y-96733298D01*
X119101161Y-96733310D01*
X119070400Y-96887953D01*
X102335427Y-96887953D01*
X102383484Y-95414199D01*
X102405343Y-95347839D01*
X102419737Y-95330561D01*
X102445900Y-95304398D01*
X102445900Y-94604400D01*
X102945900Y-94604400D01*
X102945900Y-95304400D01*
X103094392Y-95304400D01*
X103094395Y-95304399D01*
X103287581Y-95265972D01*
X103287593Y-95265969D01*
X103469571Y-95190592D01*
X103469584Y-95190585D01*
X103633362Y-95081151D01*
X103633366Y-95081148D01*
X103772648Y-94941866D01*
X103772651Y-94941862D01*
X103882085Y-94778084D01*
X103882092Y-94778071D01*
X103957469Y-94596092D01*
X103957469Y-94596090D01*
X103965762Y-94554400D01*
X103162888Y-94554400D01*
X103180105Y-94544460D01*
X103235960Y-94488605D01*
X103275456Y-94420196D01*
X103295900Y-94343896D01*
X103295900Y-94264904D01*
X103275456Y-94188604D01*
X103235960Y-94120195D01*
X103180105Y-94064340D01*
X103162888Y-94054400D01*
X103965762Y-94054400D01*
X105356038Y-94054400D01*
X106158912Y-94054400D01*
X106141695Y-94064340D01*
X106085840Y-94120195D01*
X106046344Y-94188604D01*
X106025900Y-94264904D01*
X106025900Y-94343896D01*
X106046344Y-94420196D01*
X106085840Y-94488605D01*
X106141695Y-94544460D01*
X106158912Y-94554400D01*
X105356038Y-94554400D01*
X105364330Y-94596090D01*
X105364330Y-94596092D01*
X105439707Y-94778071D01*
X105439714Y-94778084D01*
X105549148Y-94941862D01*
X105549151Y-94941866D01*
X105688433Y-95081148D01*
X105688437Y-95081151D01*
X105852215Y-95190585D01*
X105852228Y-95190592D01*
X106034206Y-95265969D01*
X106034218Y-95265972D01*
X106227404Y-95304399D01*
X106227408Y-95304400D01*
X106625900Y-95304400D01*
X106625900Y-94604400D01*
X107125900Y-94604400D01*
X107125900Y-95304400D01*
X107524392Y-95304400D01*
X107524395Y-95304399D01*
X107717581Y-95265972D01*
X107717593Y-95265969D01*
X107899571Y-95190592D01*
X107899584Y-95190585D01*
X108063362Y-95081151D01*
X108063366Y-95081148D01*
X108202648Y-94941866D01*
X108202651Y-94941862D01*
X108312085Y-94778084D01*
X108312092Y-94778071D01*
X108387469Y-94596092D01*
X108387469Y-94596090D01*
X108395762Y-94554400D01*
X107592888Y-94554400D01*
X107610105Y-94544460D01*
X107665960Y-94488605D01*
X107705456Y-94420196D01*
X107725900Y-94343896D01*
X107725900Y-94264904D01*
X107705456Y-94188604D01*
X107665960Y-94120195D01*
X107610105Y-94064340D01*
X107592888Y-94054400D01*
X108395762Y-94054400D01*
X108387469Y-94012709D01*
X108387469Y-94012707D01*
X108312092Y-93830728D01*
X108312085Y-93830715D01*
X108202651Y-93666937D01*
X108202648Y-93666933D01*
X108063366Y-93527651D01*
X108063362Y-93527648D01*
X107899584Y-93418214D01*
X107899571Y-93418207D01*
X107717593Y-93342830D01*
X107717581Y-93342827D01*
X107524395Y-93304400D01*
X107125900Y-93304400D01*
X107125900Y-94004400D01*
X106625900Y-94004400D01*
X106625900Y-93466184D01*
X106645585Y-93399145D01*
X106687900Y-93358797D01*
X106729265Y-93334915D01*
X106836415Y-93227765D01*
X106837272Y-93226279D01*
X106857621Y-93191037D01*
X106912179Y-93096538D01*
X106912181Y-93096535D01*
X106951400Y-92950166D01*
X106951400Y-92798634D01*
X106912181Y-92652265D01*
X106836415Y-92521035D01*
X106729265Y-92413885D01*
X106663650Y-92376002D01*
X106598036Y-92338119D01*
X106524850Y-92318509D01*
X106451666Y-92298900D01*
X106300134Y-92298900D01*
X106153763Y-92338119D01*
X106022535Y-92413885D01*
X106022532Y-92413887D01*
X105915387Y-92521032D01*
X105915385Y-92521035D01*
X105839619Y-92652263D01*
X105800400Y-92798634D01*
X105800400Y-92950165D01*
X105839619Y-93096536D01*
X105879053Y-93164837D01*
X105915385Y-93227765D01*
X105915386Y-93227766D01*
X105919449Y-93234803D01*
X105917246Y-93236074D01*
X105937859Y-93289383D01*
X105923823Y-93357828D01*
X105875012Y-93407820D01*
X105861745Y-93414266D01*
X105852224Y-93418209D01*
X105852215Y-93418214D01*
X105688437Y-93527648D01*
X105688433Y-93527651D01*
X105549151Y-93666933D01*
X105549148Y-93666937D01*
X105439714Y-93830715D01*
X105439707Y-93830728D01*
X105364330Y-94012707D01*
X105364330Y-94012709D01*
X105356038Y-94054400D01*
X103965762Y-94054400D01*
X103957469Y-94012709D01*
X103957469Y-94012707D01*
X103882092Y-93830728D01*
X103882085Y-93830715D01*
X103772651Y-93666937D01*
X103772648Y-93666933D01*
X103633366Y-93527651D01*
X103633362Y-93527648D01*
X103469584Y-93418214D01*
X103469571Y-93418207D01*
X103287593Y-93342830D01*
X103287581Y-93342827D01*
X103094395Y-93304400D01*
X102945900Y-93304400D01*
X102945900Y-94004400D01*
X102445900Y-94004400D01*
X102445900Y-93500133D01*
X102691630Y-85964400D01*
X102945900Y-85964400D01*
X102945900Y-86664400D01*
X103094392Y-86664400D01*
X103094395Y-86664399D01*
X103287581Y-86625972D01*
X103287593Y-86625969D01*
X103469571Y-86550592D01*
X103469584Y-86550585D01*
X103633362Y-86441151D01*
X103633366Y-86441148D01*
X103772648Y-86301866D01*
X103772651Y-86301862D01*
X103882085Y-86138084D01*
X103882092Y-86138071D01*
X103957469Y-85956092D01*
X103957469Y-85956090D01*
X103965762Y-85914400D01*
X103162888Y-85914400D01*
X103180105Y-85904460D01*
X103235960Y-85848605D01*
X103275456Y-85780196D01*
X103295900Y-85703896D01*
X103295900Y-85624904D01*
X103275456Y-85548604D01*
X103235960Y-85480195D01*
X103180105Y-85424340D01*
X103162888Y-85414400D01*
X103965762Y-85414400D01*
X105356038Y-85414400D01*
X106158912Y-85414400D01*
X106141695Y-85424340D01*
X106085840Y-85480195D01*
X106046344Y-85548604D01*
X106025900Y-85624904D01*
X106025900Y-85703896D01*
X106046344Y-85780196D01*
X106085840Y-85848605D01*
X106141695Y-85904460D01*
X106158912Y-85914400D01*
X105356038Y-85914400D01*
X105364330Y-85956090D01*
X105364330Y-85956092D01*
X105439707Y-86138071D01*
X105439714Y-86138084D01*
X105549148Y-86301862D01*
X105549151Y-86301866D01*
X105688433Y-86441148D01*
X105688437Y-86441151D01*
X105852215Y-86550585D01*
X105852228Y-86550592D01*
X105861738Y-86554531D01*
X105916143Y-86598370D01*
X105938210Y-86664664D01*
X105920933Y-86732363D01*
X105917250Y-86737805D01*
X105839619Y-86872263D01*
X105800400Y-87018634D01*
X105800400Y-87170166D01*
X105820009Y-87243350D01*
X105839619Y-87316536D01*
X105868928Y-87367299D01*
X105915385Y-87447765D01*
X106022535Y-87554915D01*
X106153765Y-87630681D01*
X106300134Y-87669900D01*
X106300136Y-87669900D01*
X106451664Y-87669900D01*
X106451666Y-87669900D01*
X106598035Y-87630681D01*
X106729265Y-87554915D01*
X106836415Y-87447765D01*
X106912181Y-87316535D01*
X106951400Y-87170166D01*
X106951400Y-87018634D01*
X106912181Y-86872265D01*
X106836415Y-86741035D01*
X106729265Y-86633885D01*
X106715554Y-86625969D01*
X106687898Y-86610001D01*
X106639684Y-86559433D01*
X106625900Y-86502615D01*
X106625900Y-85964400D01*
X107125900Y-85964400D01*
X107125900Y-86664400D01*
X107524392Y-86664400D01*
X107524395Y-86664399D01*
X107717581Y-86625972D01*
X107717593Y-86625969D01*
X107899571Y-86550592D01*
X107899584Y-86550585D01*
X108063362Y-86441151D01*
X108063366Y-86441148D01*
X108202648Y-86301866D01*
X108202651Y-86301862D01*
X108312085Y-86138084D01*
X108312092Y-86138071D01*
X108387469Y-85956092D01*
X108387469Y-85956090D01*
X108395762Y-85914400D01*
X107592888Y-85914400D01*
X107610105Y-85904460D01*
X107665960Y-85848605D01*
X107705456Y-85780196D01*
X107725900Y-85703896D01*
X107725900Y-85678153D01*
X148670400Y-85678153D01*
X148670400Y-85835846D01*
X148701161Y-85990489D01*
X148701164Y-85990501D01*
X148761502Y-86136172D01*
X148761509Y-86136185D01*
X148847902Y-86265480D01*
X148853552Y-86283526D01*
X148863777Y-86299436D01*
X148868228Y-86330395D01*
X148868780Y-86332157D01*
X148868800Y-86334371D01*
X148868800Y-86489428D01*
X148849115Y-86556467D01*
X148847902Y-86558319D01*
X148761509Y-86687614D01*
X148761502Y-86687627D01*
X148701164Y-86833298D01*
X148701161Y-86833310D01*
X148670400Y-86987953D01*
X148670400Y-87145646D01*
X148701161Y-87300289D01*
X148701164Y-87300301D01*
X148761502Y-87445972D01*
X148761509Y-87445985D01*
X148849110Y-87577088D01*
X148849113Y-87577092D01*
X148960607Y-87688586D01*
X148960611Y-87688589D01*
X149091714Y-87776190D01*
X149091727Y-87776197D01*
X149237398Y-87836535D01*
X149237403Y-87836537D01*
X149392053Y-87867299D01*
X149392056Y-87867300D01*
X149392058Y-87867300D01*
X149549744Y-87867300D01*
X149549745Y-87867299D01*
X149704397Y-87836537D01*
X149850079Y-87776194D01*
X149981189Y-87688589D01*
X150092689Y-87577089D01*
X150180294Y-87445979D01*
X150240637Y-87300297D01*
X150271400Y-87145642D01*
X150271400Y-86987958D01*
X150271400Y-86987955D01*
X150271399Y-86987953D01*
X150248387Y-86872265D01*
X150240637Y-86833303D01*
X150202419Y-86741035D01*
X150180297Y-86687627D01*
X150180290Y-86687614D01*
X150093898Y-86558319D01*
X150088247Y-86540272D01*
X150078023Y-86524363D01*
X150073571Y-86493401D01*
X150073020Y-86491641D01*
X150073000Y-86489428D01*
X150073000Y-86334371D01*
X150092685Y-86267332D01*
X150093898Y-86265480D01*
X150180290Y-86136185D01*
X150180290Y-86136184D01*
X150180294Y-86136179D01*
X150240637Y-85990497D01*
X150271400Y-85835842D01*
X150271400Y-85678158D01*
X150271400Y-85678155D01*
X150271399Y-85678153D01*
X150240638Y-85523510D01*
X150240637Y-85523503D01*
X150231539Y-85501538D01*
X150180297Y-85377827D01*
X150180290Y-85377814D01*
X150092689Y-85246711D01*
X150092686Y-85246707D01*
X149981192Y-85135213D01*
X149981188Y-85135210D01*
X149850085Y-85047609D01*
X149850072Y-85047602D01*
X149704401Y-84987264D01*
X149704389Y-84987261D01*
X149549745Y-84956500D01*
X149549742Y-84956500D01*
X149392058Y-84956500D01*
X149392055Y-84956500D01*
X149237410Y-84987261D01*
X149237398Y-84987264D01*
X149091727Y-85047602D01*
X149091714Y-85047609D01*
X148960611Y-85135210D01*
X148960607Y-85135213D01*
X148849113Y-85246707D01*
X148849110Y-85246711D01*
X148761509Y-85377814D01*
X148761502Y-85377827D01*
X148701164Y-85523498D01*
X148701161Y-85523510D01*
X148670400Y-85678153D01*
X107725900Y-85678153D01*
X107725900Y-85624904D01*
X107705456Y-85548604D01*
X107665960Y-85480195D01*
X107610105Y-85424340D01*
X107592888Y-85414400D01*
X108395762Y-85414400D01*
X108387469Y-85372709D01*
X108387469Y-85372707D01*
X108312092Y-85190728D01*
X108312085Y-85190715D01*
X108202651Y-85026937D01*
X108202648Y-85026933D01*
X108063366Y-84887651D01*
X108063362Y-84887648D01*
X107899584Y-84778214D01*
X107899571Y-84778207D01*
X107717593Y-84702830D01*
X107717581Y-84702827D01*
X107524395Y-84664400D01*
X107125900Y-84664400D01*
X107125900Y-85364400D01*
X106625900Y-85364400D01*
X106625900Y-84664400D01*
X106227404Y-84664400D01*
X106034218Y-84702827D01*
X106034206Y-84702830D01*
X105852228Y-84778207D01*
X105852215Y-84778214D01*
X105688437Y-84887648D01*
X105688433Y-84887651D01*
X105549151Y-85026933D01*
X105549148Y-85026937D01*
X105439714Y-85190715D01*
X105439707Y-85190728D01*
X105364330Y-85372707D01*
X105364330Y-85372709D01*
X105356038Y-85414400D01*
X103965762Y-85414400D01*
X103957469Y-85372709D01*
X103957469Y-85372707D01*
X103882092Y-85190728D01*
X103882085Y-85190715D01*
X103772651Y-85026937D01*
X103772648Y-85026933D01*
X103633366Y-84887651D01*
X103633362Y-84887648D01*
X103469584Y-84778214D01*
X103469571Y-84778207D01*
X103287593Y-84702830D01*
X103287581Y-84702827D01*
X103094395Y-84664400D01*
X102862131Y-84664400D01*
X102795092Y-84644715D01*
X102749337Y-84591911D01*
X102738197Y-84536359D01*
X102756080Y-83987953D01*
X132170400Y-83987953D01*
X132170400Y-84145646D01*
X132201161Y-84300289D01*
X132201164Y-84300301D01*
X132261502Y-84445972D01*
X132261509Y-84445985D01*
X132349110Y-84577088D01*
X132349113Y-84577092D01*
X132460607Y-84688586D01*
X132460611Y-84688589D01*
X132591714Y-84776190D01*
X132591727Y-84776197D01*
X132737398Y-84836535D01*
X132737403Y-84836537D01*
X132892053Y-84867299D01*
X132892056Y-84867300D01*
X132892058Y-84867300D01*
X133049744Y-84867300D01*
X133049745Y-84867299D01*
X133204397Y-84836537D01*
X133350079Y-84776194D01*
X133481189Y-84688589D01*
X133592689Y-84577089D01*
X133680294Y-84445979D01*
X133740637Y-84300297D01*
X133760013Y-84202885D01*
X133771538Y-84144950D01*
X133803923Y-84083039D01*
X133805418Y-84081516D01*
X136046585Y-81840349D01*
X136107906Y-81806866D01*
X136177598Y-81811850D01*
X136181716Y-81813471D01*
X136237403Y-81836537D01*
X136237406Y-81836537D01*
X136237411Y-81836539D01*
X136392053Y-81867299D01*
X136392056Y-81867300D01*
X136392058Y-81867300D01*
X136549744Y-81867300D01*
X136549745Y-81867299D01*
X136704397Y-81836537D01*
X136850079Y-81776194D01*
X136981189Y-81688589D01*
X136981191Y-81688587D01*
X136981194Y-81688585D01*
X137092686Y-81577092D01*
X137092689Y-81577089D01*
X137180294Y-81445979D01*
X137240637Y-81300297D01*
X137271400Y-81145642D01*
X137271400Y-80987958D01*
X137271399Y-80987950D01*
X137271316Y-80987532D01*
X145368800Y-80987532D01*
X145368800Y-81146068D01*
X145409833Y-81299202D01*
X145489100Y-81436498D01*
X145601202Y-81548600D01*
X145738498Y-81627867D01*
X145891632Y-81668900D01*
X145893529Y-81668900D01*
X145895070Y-81669352D01*
X145899691Y-81669961D01*
X145899596Y-81670681D01*
X145960568Y-81688585D01*
X145962420Y-81689798D01*
X146091714Y-81776190D01*
X146091727Y-81776197D01*
X146181716Y-81813471D01*
X146237403Y-81836537D01*
X146392053Y-81867299D01*
X146392056Y-81867300D01*
X146392058Y-81867300D01*
X146549744Y-81867300D01*
X146549745Y-81867299D01*
X146704397Y-81836537D01*
X146850079Y-81776194D01*
X146850085Y-81776190D01*
X146979380Y-81689798D01*
X146997426Y-81684147D01*
X147013336Y-81673923D01*
X147044295Y-81669471D01*
X147046057Y-81668920D01*
X147048271Y-81668900D01*
X147170140Y-81668900D01*
X147237179Y-81688585D01*
X147257821Y-81705219D01*
X147636887Y-82084285D01*
X147670372Y-82145608D01*
X147670823Y-82147774D01*
X147701161Y-82300291D01*
X147701164Y-82300301D01*
X147761502Y-82445972D01*
X147761509Y-82445985D01*
X147849110Y-82577088D01*
X147849113Y-82577092D01*
X147960607Y-82688586D01*
X147960611Y-82688589D01*
X148091714Y-82776190D01*
X148091727Y-82776197D01*
X148237398Y-82836535D01*
X148237403Y-82836537D01*
X148392053Y-82867299D01*
X148392056Y-82867300D01*
X148392058Y-82867300D01*
X148549744Y-82867300D01*
X148549745Y-82867299D01*
X148704397Y-82836537D01*
X148850079Y-82776194D01*
X148981189Y-82688589D01*
X148981192Y-82688586D01*
X149096997Y-82572782D01*
X149098741Y-82574526D01*
X149147473Y-82541269D01*
X149217316Y-82539338D01*
X149273365Y-82571554D01*
X151832481Y-85130670D01*
X151865966Y-85191993D01*
X151868800Y-85218351D01*
X151868800Y-85989428D01*
X151849115Y-86056467D01*
X151847902Y-86058319D01*
X151761509Y-86187614D01*
X151761502Y-86187627D01*
X151701164Y-86333298D01*
X151701161Y-86333310D01*
X151670400Y-86487953D01*
X151670400Y-86645646D01*
X151701161Y-86800289D01*
X151701164Y-86800301D01*
X151761502Y-86945972D01*
X151761509Y-86945985D01*
X151849110Y-87077088D01*
X151849113Y-87077092D01*
X151960607Y-87188586D01*
X151960611Y-87188589D01*
X152091714Y-87276190D01*
X152091727Y-87276197D01*
X152237398Y-87336535D01*
X152237403Y-87336537D01*
X152392053Y-87367299D01*
X152392056Y-87367300D01*
X152392058Y-87367300D01*
X152549744Y-87367300D01*
X152549745Y-87367299D01*
X152704397Y-87336537D01*
X152850079Y-87276194D01*
X152981189Y-87188589D01*
X153092689Y-87077089D01*
X153180294Y-86945979D01*
X153240637Y-86800297D01*
X153271400Y-86645642D01*
X153271400Y-86487958D01*
X153271400Y-86487955D01*
X153271399Y-86487953D01*
X153240638Y-86333310D01*
X153240637Y-86333303D01*
X153240162Y-86332157D01*
X153180297Y-86187627D01*
X153180290Y-86187614D01*
X153093898Y-86058319D01*
X153073020Y-85991641D01*
X153073000Y-85989428D01*
X153073000Y-84838324D01*
X153073000Y-84838323D01*
X153031967Y-84685189D01*
X152952700Y-84547893D01*
X152840598Y-84435791D01*
X148609319Y-80204512D01*
X148575834Y-80143189D01*
X148573000Y-80116831D01*
X148573000Y-76644171D01*
X148592685Y-76577132D01*
X148593898Y-76575280D01*
X148680290Y-76445985D01*
X148680290Y-76445984D01*
X148680294Y-76445979D01*
X148729720Y-76326653D01*
X149170400Y-76326653D01*
X149170400Y-76484346D01*
X149201161Y-76638989D01*
X149201164Y-76639001D01*
X149261502Y-76784672D01*
X149261509Y-76784685D01*
X149347902Y-76913980D01*
X149368780Y-76980657D01*
X149368800Y-76982871D01*
X149368800Y-78331328D01*
X149349115Y-78398367D01*
X149347902Y-78400219D01*
X149261509Y-78529514D01*
X149261502Y-78529527D01*
X149201164Y-78675198D01*
X149201161Y-78675210D01*
X149170400Y-78829853D01*
X149170400Y-78987546D01*
X149201161Y-79142189D01*
X149201164Y-79142201D01*
X149261502Y-79287872D01*
X149261509Y-79287885D01*
X149349110Y-79418988D01*
X149349113Y-79418992D01*
X149460607Y-79530486D01*
X149460611Y-79530489D01*
X149591714Y-79618090D01*
X149591727Y-79618097D01*
X149737398Y-79678435D01*
X149737403Y-79678437D01*
X149892053Y-79709199D01*
X149892056Y-79709200D01*
X149892058Y-79709200D01*
X150049744Y-79709200D01*
X150049745Y-79709199D01*
X150204397Y-79678437D01*
X150350079Y-79618094D01*
X150481189Y-79530489D01*
X150592689Y-79418989D01*
X150680294Y-79287879D01*
X150740637Y-79142197D01*
X150771400Y-78987542D01*
X150771400Y-78926653D01*
X152170400Y-78926653D01*
X152170400Y-79084346D01*
X152201161Y-79238989D01*
X152201164Y-79239001D01*
X152261502Y-79384672D01*
X152261509Y-79384685D01*
X152349110Y-79515788D01*
X152349113Y-79515792D01*
X152460607Y-79627286D01*
X152460611Y-79627289D01*
X152591714Y-79714890D01*
X152591727Y-79714897D01*
X152737398Y-79775235D01*
X152737403Y-79775237D01*
X152802047Y-79788095D01*
X152892749Y-79806138D01*
X152954660Y-79838523D01*
X152956239Y-79840074D01*
X153547339Y-80431174D01*
X153547349Y-80431185D01*
X153551679Y-80435515D01*
X153551680Y-80435516D01*
X153663484Y-80547320D01*
X153728751Y-80585001D01*
X153750295Y-80597439D01*
X153750297Y-80597441D01*
X153788351Y-80619411D01*
X153800415Y-80626377D01*
X153953143Y-80667301D01*
X153953146Y-80667301D01*
X154118853Y-80667301D01*
X154118869Y-80667300D01*
X156510734Y-80667300D01*
X156577773Y-80686985D01*
X156579625Y-80688198D01*
X156711314Y-80776190D01*
X156711327Y-80776197D01*
X156851839Y-80834398D01*
X156857003Y-80836537D01*
X157011653Y-80867299D01*
X157011656Y-80867300D01*
X157011658Y-80867300D01*
X157169344Y-80867300D01*
X157169345Y-80867299D01*
X157323997Y-80836537D01*
X157469679Y-80776194D01*
X157600789Y-80688589D01*
X157712289Y-80577089D01*
X157799894Y-80445979D01*
X157800134Y-80445401D01*
X157836192Y-80358347D01*
X157860237Y-80300297D01*
X157891000Y-80145642D01*
X157891000Y-79987958D01*
X157891000Y-79987955D01*
X157890999Y-79987953D01*
X157866999Y-79867299D01*
X157860237Y-79833303D01*
X157836186Y-79775238D01*
X157799897Y-79687627D01*
X157799890Y-79687614D01*
X157712289Y-79556511D01*
X157712286Y-79556507D01*
X157600792Y-79445013D01*
X157600788Y-79445010D01*
X157469685Y-79357409D01*
X157469672Y-79357402D01*
X157324001Y-79297064D01*
X157323989Y-79297061D01*
X157169345Y-79266300D01*
X157169342Y-79266300D01*
X157011658Y-79266300D01*
X157011655Y-79266300D01*
X156857010Y-79297061D01*
X156856998Y-79297064D01*
X156711327Y-79357402D01*
X156711314Y-79357409D01*
X156579625Y-79445402D01*
X156512947Y-79466280D01*
X156510734Y-79466300D01*
X154332297Y-79466300D01*
X154265258Y-79446615D01*
X154244616Y-79429981D01*
X153805474Y-78990839D01*
X153771989Y-78929516D01*
X153771538Y-78927349D01*
X153740638Y-78772010D01*
X153740637Y-78772003D01*
X153705685Y-78687621D01*
X153680297Y-78626327D01*
X153680290Y-78626314D01*
X153592689Y-78495211D01*
X153592686Y-78495207D01*
X153481192Y-78383713D01*
X153481188Y-78383710D01*
X153350085Y-78296109D01*
X153350072Y-78296102D01*
X153204401Y-78235764D01*
X153204389Y-78235761D01*
X153049745Y-78205000D01*
X153049742Y-78205000D01*
X152892058Y-78205000D01*
X152892055Y-78205000D01*
X152737410Y-78235761D01*
X152737398Y-78235764D01*
X152591727Y-78296102D01*
X152591714Y-78296109D01*
X152460611Y-78383710D01*
X152460607Y-78383713D01*
X152349113Y-78495207D01*
X152349110Y-78495211D01*
X152261509Y-78626314D01*
X152261502Y-78626327D01*
X152201164Y-78771998D01*
X152201161Y-78772010D01*
X152170400Y-78926653D01*
X150771400Y-78926653D01*
X150771400Y-78829858D01*
X150771400Y-78829855D01*
X150771399Y-78829853D01*
X150743107Y-78687621D01*
X150740637Y-78675203D01*
X150691472Y-78556507D01*
X150680297Y-78529527D01*
X150680290Y-78529514D01*
X150593898Y-78400219D01*
X150573020Y-78333541D01*
X150573000Y-78331328D01*
X150573000Y-76982871D01*
X150592685Y-76915832D01*
X150593898Y-76913980D01*
X150680290Y-76784685D01*
X150680290Y-76784684D01*
X150680294Y-76784679D01*
X150740637Y-76638997D01*
X150771400Y-76484342D01*
X150771400Y-76326658D01*
X150771400Y-76326655D01*
X150771399Y-76326653D01*
X150765375Y-76296370D01*
X150740637Y-76172003D01*
X150722073Y-76127184D01*
X150680297Y-76026327D01*
X150680290Y-76026314D01*
X150592689Y-75895211D01*
X150592686Y-75895207D01*
X150481192Y-75783713D01*
X150481188Y-75783710D01*
X150350085Y-75696109D01*
X150350072Y-75696102D01*
X150204401Y-75635764D01*
X150204389Y-75635761D01*
X150049745Y-75605000D01*
X150049742Y-75605000D01*
X149892058Y-75605000D01*
X149892055Y-75605000D01*
X149737410Y-75635761D01*
X149737398Y-75635764D01*
X149591727Y-75696102D01*
X149591714Y-75696109D01*
X149460611Y-75783710D01*
X149460607Y-75783713D01*
X149349113Y-75895207D01*
X149349110Y-75895211D01*
X149261509Y-76026314D01*
X149261502Y-76026327D01*
X149201164Y-76171998D01*
X149201161Y-76172010D01*
X149170400Y-76326653D01*
X148729720Y-76326653D01*
X148740637Y-76300297D01*
X148771400Y-76145642D01*
X148771400Y-75987958D01*
X148771400Y-75987955D01*
X148771399Y-75987953D01*
X148740637Y-75833303D01*
X148728868Y-75804889D01*
X148680297Y-75687627D01*
X148680290Y-75687614D01*
X148592689Y-75556511D01*
X148592686Y-75556507D01*
X148481192Y-75445013D01*
X148481188Y-75445010D01*
X148350085Y-75357409D01*
X148350072Y-75357402D01*
X148204401Y-75297064D01*
X148204389Y-75297061D01*
X148049745Y-75266300D01*
X148049742Y-75266300D01*
X147892058Y-75266300D01*
X147892055Y-75266300D01*
X147737410Y-75297061D01*
X147737398Y-75297064D01*
X147591727Y-75357402D01*
X147591714Y-75357409D01*
X147460611Y-75445010D01*
X147460607Y-75445013D01*
X147349113Y-75556507D01*
X147349110Y-75556511D01*
X147261509Y-75687614D01*
X147261502Y-75687627D01*
X147201164Y-75833298D01*
X147201161Y-75833310D01*
X147170400Y-75987953D01*
X147170400Y-76145646D01*
X147201161Y-76300289D01*
X147201164Y-76300301D01*
X147261502Y-76445972D01*
X147261509Y-76445985D01*
X147347902Y-76575280D01*
X147368780Y-76641957D01*
X147368800Y-76644171D01*
X147368800Y-80340700D01*
X147366249Y-80349385D01*
X147367538Y-80358347D01*
X147356559Y-80382387D01*
X147349115Y-80407739D01*
X147342274Y-80413666D01*
X147338513Y-80421903D01*
X147316278Y-80436192D01*
X147296311Y-80453494D01*
X147285796Y-80455781D01*
X147279735Y-80459677D01*
X147244800Y-80464700D01*
X147048271Y-80464700D01*
X146981232Y-80445015D01*
X146979380Y-80443802D01*
X146850085Y-80357409D01*
X146850072Y-80357402D01*
X146704401Y-80297064D01*
X146704389Y-80297061D01*
X146549745Y-80266300D01*
X146549742Y-80266300D01*
X146392058Y-80266300D01*
X146392055Y-80266300D01*
X146237410Y-80297061D01*
X146237398Y-80297064D01*
X146091727Y-80357402D01*
X146091714Y-80357409D01*
X145962420Y-80443802D01*
X145899666Y-80463451D01*
X145899691Y-80463639D01*
X145898615Y-80463780D01*
X145895743Y-80464680D01*
X145893529Y-80464700D01*
X145891632Y-80464700D01*
X145789542Y-80492055D01*
X145738497Y-80505733D01*
X145601203Y-80584999D01*
X145601200Y-80585001D01*
X145489101Y-80697100D01*
X145489099Y-80697103D01*
X145409833Y-80834397D01*
X145401017Y-80867299D01*
X145368800Y-80987532D01*
X137271316Y-80987532D01*
X137241280Y-80836535D01*
X137240637Y-80833303D01*
X137184222Y-80697103D01*
X137180297Y-80687627D01*
X137180290Y-80687614D01*
X137092689Y-80556511D01*
X137092686Y-80556507D01*
X136981192Y-80445013D01*
X136981188Y-80445010D01*
X136850085Y-80357409D01*
X136850072Y-80357402D01*
X136704401Y-80297064D01*
X136704389Y-80297061D01*
X136549745Y-80266300D01*
X136549742Y-80266300D01*
X136392058Y-80266300D01*
X136392055Y-80266300D01*
X136237410Y-80297061D01*
X136237398Y-80297064D01*
X136091727Y-80357402D01*
X136091714Y-80357409D01*
X135960027Y-80445401D01*
X135899774Y-80464267D01*
X135899902Y-80465238D01*
X135894332Y-80465971D01*
X135893350Y-80466279D01*
X135891896Y-80466292D01*
X135891845Y-80466298D01*
X135739114Y-80507223D01*
X135739109Y-80507226D01*
X135602190Y-80586275D01*
X135602182Y-80586281D01*
X132956239Y-83232225D01*
X132894916Y-83265710D01*
X132892750Y-83266161D01*
X132737408Y-83297061D01*
X132737398Y-83297064D01*
X132591727Y-83357402D01*
X132591714Y-83357409D01*
X132460611Y-83445010D01*
X132460607Y-83445013D01*
X132349113Y-83556507D01*
X132349110Y-83556511D01*
X132261509Y-83687614D01*
X132261502Y-83687627D01*
X132201164Y-83833298D01*
X132201161Y-83833310D01*
X132170400Y-83987953D01*
X102756080Y-83987953D01*
X102756410Y-83977825D01*
X102919124Y-78987953D01*
X143170400Y-78987953D01*
X143170400Y-79145646D01*
X143201161Y-79300289D01*
X143201164Y-79300301D01*
X143261502Y-79445972D01*
X143261509Y-79445985D01*
X143349110Y-79577088D01*
X143349113Y-79577092D01*
X143460607Y-79688586D01*
X143460611Y-79688589D01*
X143591714Y-79776190D01*
X143591727Y-79776197D01*
X143729583Y-79833298D01*
X143737403Y-79836537D01*
X143892053Y-79867299D01*
X143892056Y-79867300D01*
X143892058Y-79867300D01*
X144049744Y-79867300D01*
X144049745Y-79867299D01*
X144204397Y-79836537D01*
X144350079Y-79776194D01*
X144481189Y-79688589D01*
X144592689Y-79577089D01*
X144680294Y-79445979D01*
X144740637Y-79300297D01*
X144760013Y-79202885D01*
X144771538Y-79144950D01*
X144803923Y-79083039D01*
X144805420Y-79081514D01*
X145829406Y-78057527D01*
X145829411Y-78057524D01*
X145839614Y-78047320D01*
X145839616Y-78047320D01*
X145951420Y-77935516D01*
X146030477Y-77798584D01*
X146071400Y-77645857D01*
X146071400Y-74487953D01*
X151170400Y-74487953D01*
X151170400Y-74645646D01*
X151201161Y-74800289D01*
X151201164Y-74800301D01*
X151261502Y-74945972D01*
X151261509Y-74945985D01*
X151349110Y-75077088D01*
X151349113Y-75077092D01*
X151460607Y-75188586D01*
X151460611Y-75188589D01*
X151591714Y-75276190D01*
X151591727Y-75276197D01*
X151709801Y-75325104D01*
X151737403Y-75336537D01*
X151892053Y-75367299D01*
X151892056Y-75367300D01*
X151892058Y-75367300D01*
X152049744Y-75367300D01*
X152049745Y-75367299D01*
X152204397Y-75336537D01*
X152350079Y-75276194D01*
X152481189Y-75188589D01*
X152592689Y-75077089D01*
X152680294Y-74945979D01*
X152740637Y-74800297D01*
X152760013Y-74702885D01*
X152771538Y-74644950D01*
X152803923Y-74583039D01*
X152805419Y-74581515D01*
X154458720Y-72928214D01*
X154520042Y-72894730D01*
X154589734Y-72899714D01*
X154645667Y-72941586D01*
X154670084Y-73007050D01*
X154670400Y-73015896D01*
X154670400Y-73145646D01*
X154701161Y-73300289D01*
X154701164Y-73300301D01*
X154761502Y-73445972D01*
X154761509Y-73445985D01*
X154849110Y-73577088D01*
X154849113Y-73577092D01*
X154960607Y-73688586D01*
X154960611Y-73688589D01*
X155091714Y-73776190D01*
X155091727Y-73776197D01*
X155229706Y-73833349D01*
X155237403Y-73836537D01*
X155392053Y-73867299D01*
X155392056Y-73867300D01*
X155392058Y-73867300D01*
X155549744Y-73867300D01*
X155549745Y-73867299D01*
X155704397Y-73836537D01*
X155850079Y-73776194D01*
X155850085Y-73776190D01*
X155981775Y-73688198D01*
X156048453Y-73667320D01*
X156050666Y-73667300D01*
X157391134Y-73667300D01*
X157458173Y-73686985D01*
X157460025Y-73688198D01*
X157591714Y-73776190D01*
X157591727Y-73776197D01*
X157729706Y-73833349D01*
X157737403Y-73836537D01*
X157892053Y-73867299D01*
X157892056Y-73867300D01*
X157892058Y-73867300D01*
X158049744Y-73867300D01*
X158049745Y-73867299D01*
X158204397Y-73836537D01*
X158350079Y-73776194D01*
X158481189Y-73688589D01*
X158592689Y-73577089D01*
X158680294Y-73445979D01*
X158740637Y-73300297D01*
X158771400Y-73145642D01*
X158771400Y-72987958D01*
X158771400Y-72987955D01*
X158771399Y-72987953D01*
X158755903Y-72910050D01*
X158740637Y-72833303D01*
X158720675Y-72785109D01*
X158680297Y-72687627D01*
X158680290Y-72687614D01*
X158592689Y-72556511D01*
X158592686Y-72556507D01*
X158481192Y-72445013D01*
X158481188Y-72445010D01*
X158350085Y-72357409D01*
X158350072Y-72357402D01*
X158204401Y-72297064D01*
X158204389Y-72297061D01*
X158049745Y-72266300D01*
X158049742Y-72266300D01*
X157892058Y-72266300D01*
X157892055Y-72266300D01*
X157737410Y-72297061D01*
X157737398Y-72297064D01*
X157591727Y-72357402D01*
X157591714Y-72357409D01*
X157460025Y-72445402D01*
X157393347Y-72466280D01*
X157391134Y-72466300D01*
X156050666Y-72466300D01*
X155983627Y-72446615D01*
X155981775Y-72445402D01*
X155850085Y-72357409D01*
X155850072Y-72357402D01*
X155704401Y-72297064D01*
X155704389Y-72297061D01*
X155549745Y-72266300D01*
X155549742Y-72266300D01*
X155419996Y-72266300D01*
X155352957Y-72246615D01*
X155307202Y-72193811D01*
X155297258Y-72124653D01*
X155326283Y-72061097D01*
X155332315Y-72054619D01*
X155738221Y-71648713D01*
X156329406Y-71057527D01*
X156329411Y-71057524D01*
X156339614Y-71047320D01*
X156339616Y-71047320D01*
X156451420Y-70935516D01*
X156508565Y-70836537D01*
X156530477Y-70798585D01*
X156571400Y-70645858D01*
X156571400Y-70645849D01*
X156572461Y-70637798D01*
X156573917Y-70637989D01*
X156591085Y-70579526D01*
X156592298Y-70577674D01*
X156606482Y-70556447D01*
X156680294Y-70445979D01*
X156740637Y-70300297D01*
X156771400Y-70145642D01*
X156771400Y-69987958D01*
X156771400Y-69987955D01*
X156771399Y-69987953D01*
X156755247Y-69906751D01*
X156740637Y-69833303D01*
X156699261Y-69733412D01*
X156680297Y-69687627D01*
X156680290Y-69687614D01*
X156592689Y-69556511D01*
X156592686Y-69556507D01*
X156481192Y-69445013D01*
X156481188Y-69445010D01*
X156350085Y-69357409D01*
X156350072Y-69357402D01*
X156204401Y-69297064D01*
X156204389Y-69297061D01*
X156049745Y-69266300D01*
X156049742Y-69266300D01*
X155892058Y-69266300D01*
X155892055Y-69266300D01*
X155737410Y-69297061D01*
X155737398Y-69297064D01*
X155591727Y-69357402D01*
X155591714Y-69357409D01*
X155460611Y-69445010D01*
X155460607Y-69445013D01*
X155349113Y-69556507D01*
X155349110Y-69556511D01*
X155261509Y-69687614D01*
X155261502Y-69687627D01*
X155201164Y-69833298D01*
X155201161Y-69833310D01*
X155170400Y-69987953D01*
X155170400Y-70145646D01*
X155201161Y-70300289D01*
X155201164Y-70300301D01*
X155224228Y-70355982D01*
X155231697Y-70425451D01*
X155200422Y-70487930D01*
X155197348Y-70491115D01*
X151956239Y-73732225D01*
X151894916Y-73765710D01*
X151892750Y-73766161D01*
X151737408Y-73797061D01*
X151737398Y-73797064D01*
X151591727Y-73857402D01*
X151591714Y-73857409D01*
X151460611Y-73945010D01*
X151460607Y-73945013D01*
X151349113Y-74056507D01*
X151349110Y-74056511D01*
X151261509Y-74187614D01*
X151261502Y-74187627D01*
X151201164Y-74333298D01*
X151201161Y-74333310D01*
X151170400Y-74487953D01*
X146071400Y-74487953D01*
X146071400Y-73646565D01*
X146091085Y-73579526D01*
X146092298Y-73577674D01*
X146180290Y-73445985D01*
X146180290Y-73445984D01*
X146180294Y-73445979D01*
X146240637Y-73300297D01*
X146271400Y-73145642D01*
X146271400Y-72987958D01*
X146271400Y-72987955D01*
X146271399Y-72987953D01*
X146255903Y-72910050D01*
X146240637Y-72833303D01*
X146220675Y-72785109D01*
X146180297Y-72687627D01*
X146180290Y-72687614D01*
X146092689Y-72556511D01*
X146092686Y-72556507D01*
X145981192Y-72445013D01*
X145981188Y-72445010D01*
X145850085Y-72357409D01*
X145850072Y-72357402D01*
X145704401Y-72297064D01*
X145704389Y-72297061D01*
X145549745Y-72266300D01*
X145549742Y-72266300D01*
X145392058Y-72266300D01*
X145392055Y-72266300D01*
X145237410Y-72297061D01*
X145237398Y-72297064D01*
X145091727Y-72357402D01*
X145091714Y-72357409D01*
X144960611Y-72445010D01*
X144960607Y-72445013D01*
X144849113Y-72556507D01*
X144849110Y-72556511D01*
X144761509Y-72687614D01*
X144761502Y-72687627D01*
X144701164Y-72833298D01*
X144701161Y-72833310D01*
X144670400Y-72987953D01*
X144670400Y-73145646D01*
X144701161Y-73300289D01*
X144701164Y-73300301D01*
X144761502Y-73445972D01*
X144761509Y-73445985D01*
X144849502Y-73577674D01*
X144870380Y-73644351D01*
X144870400Y-73646565D01*
X144870400Y-77266703D01*
X144850715Y-77333742D01*
X144834081Y-77354384D01*
X143956239Y-78232225D01*
X143894916Y-78265710D01*
X143892750Y-78266161D01*
X143737408Y-78297061D01*
X143737398Y-78297064D01*
X143591727Y-78357402D01*
X143591714Y-78357409D01*
X143460611Y-78445010D01*
X143460607Y-78445013D01*
X143349113Y-78556507D01*
X143349110Y-78556511D01*
X143261509Y-78687614D01*
X143261502Y-78687627D01*
X143201164Y-78833298D01*
X143201161Y-78833310D01*
X143170400Y-78987953D01*
X102919124Y-78987953D01*
X102919454Y-78977825D01*
X102982983Y-77029597D01*
X103234341Y-69321284D01*
X103241273Y-69108713D01*
X104053200Y-69108713D01*
X104053200Y-69321287D01*
X104063234Y-69384644D01*
X104086453Y-69531239D01*
X104086453Y-69531241D01*
X104086454Y-69531243D01*
X104137266Y-69687627D01*
X104152144Y-69733414D01*
X104248651Y-69922820D01*
X104373590Y-70094786D01*
X104523913Y-70245109D01*
X104695882Y-70370050D01*
X104704646Y-70374516D01*
X104755442Y-70422491D01*
X104772236Y-70490312D01*
X104749698Y-70556447D01*
X104704646Y-70595484D01*
X104695882Y-70599949D01*
X104523913Y-70724890D01*
X104373590Y-70875213D01*
X104248651Y-71047179D01*
X104152144Y-71236585D01*
X104086453Y-71438760D01*
X104053200Y-71648713D01*
X104053200Y-71861287D01*
X104086454Y-72071243D01*
X104149832Y-72266300D01*
X104152144Y-72273414D01*
X104248651Y-72462820D01*
X104373590Y-72634786D01*
X104523913Y-72785109D01*
X104695882Y-72910050D01*
X104704646Y-72914516D01*
X104755442Y-72962491D01*
X104772236Y-73030312D01*
X104749698Y-73096447D01*
X104704646Y-73135484D01*
X104695882Y-73139949D01*
X104523913Y-73264890D01*
X104373590Y-73415213D01*
X104248651Y-73587179D01*
X104152144Y-73776585D01*
X104086453Y-73978760D01*
X104053200Y-74188713D01*
X104053200Y-74401286D01*
X104083419Y-74592085D01*
X104086454Y-74611243D01*
X104097632Y-74645646D01*
X104152144Y-74813414D01*
X104248651Y-75002820D01*
X104373590Y-75174786D01*
X104487518Y-75288714D01*
X104521003Y-75350037D01*
X104516019Y-75419729D01*
X104474147Y-75475662D01*
X104443171Y-75492577D01*
X104311612Y-75541646D01*
X104311606Y-75541649D01*
X104196512Y-75627809D01*
X104196509Y-75627812D01*
X104110349Y-75742906D01*
X104110345Y-75742913D01*
X104060103Y-75877620D01*
X104060101Y-75877627D01*
X104053700Y-75937155D01*
X104053700Y-76585000D01*
X104970688Y-76585000D01*
X104937775Y-76642007D01*
X104903700Y-76769174D01*
X104903700Y-76900826D01*
X104937775Y-77027993D01*
X104970688Y-77085000D01*
X104053700Y-77085000D01*
X104053700Y-77732844D01*
X104060101Y-77792372D01*
X104060103Y-77792379D01*
X104110345Y-77927086D01*
X104110349Y-77927093D01*
X104196509Y-78042187D01*
X104196512Y-78042190D01*
X104311606Y-78128350D01*
X104311613Y-78128354D01*
X104446320Y-78178596D01*
X104446327Y-78178598D01*
X104505855Y-78184999D01*
X104505872Y-78185000D01*
X105153700Y-78185000D01*
X105153700Y-77268012D01*
X105210707Y-77300925D01*
X105337874Y-77335000D01*
X105469526Y-77335000D01*
X105596693Y-77300925D01*
X105653700Y-77268012D01*
X105653700Y-78185000D01*
X106301528Y-78185000D01*
X106301544Y-78184999D01*
X106361072Y-78178598D01*
X106361079Y-78178596D01*
X106495786Y-78128354D01*
X106495793Y-78128350D01*
X106610887Y-78042190D01*
X106610890Y-78042187D01*
X106697050Y-77927093D01*
X106697054Y-77927086D01*
X106746122Y-77795529D01*
X106787993Y-77739595D01*
X106853457Y-77715178D01*
X106921730Y-77730030D01*
X106949985Y-77751181D01*
X107063913Y-77865109D01*
X107235879Y-77990048D01*
X107235881Y-77990049D01*
X107235884Y-77990051D01*
X107425288Y-78086557D01*
X107627457Y-78152246D01*
X107837413Y-78185500D01*
X107837414Y-78185500D01*
X108049986Y-78185500D01*
X108049987Y-78185500D01*
X108259943Y-78152246D01*
X108462112Y-78086557D01*
X108651516Y-77990051D01*
X108738171Y-77927093D01*
X108823486Y-77865109D01*
X108823488Y-77865106D01*
X108823492Y-77865104D01*
X108973804Y-77714792D01*
X108973806Y-77714788D01*
X108973809Y-77714786D01*
X109098748Y-77542820D01*
X109098747Y-77542820D01*
X109098751Y-77542816D01*
X109195257Y-77353412D01*
X109260946Y-77151243D01*
X109294200Y-76941287D01*
X109294200Y-76728713D01*
X109260946Y-76518757D01*
X109195257Y-76316588D01*
X109098751Y-76127184D01*
X109098749Y-76127181D01*
X109098748Y-76127179D01*
X108973809Y-75955213D01*
X108823486Y-75804890D01*
X108651520Y-75679951D01*
X108650815Y-75679591D01*
X108642754Y-75675485D01*
X108591959Y-75627512D01*
X108575163Y-75559692D01*
X108597699Y-75493556D01*
X108642754Y-75454515D01*
X108651516Y-75450051D01*
X108675976Y-75432280D01*
X108823486Y-75325109D01*
X108823488Y-75325106D01*
X108823492Y-75325104D01*
X108973804Y-75174792D01*
X108973806Y-75174788D01*
X108973809Y-75174786D01*
X109098748Y-75002820D01*
X109098747Y-75002820D01*
X109098751Y-75002816D01*
X109195257Y-74813412D01*
X109260946Y-74611243D01*
X109294200Y-74401287D01*
X109294200Y-74188713D01*
X109260946Y-73978757D01*
X109195257Y-73776588D01*
X109098751Y-73587184D01*
X109098749Y-73587181D01*
X109098748Y-73587179D01*
X108973809Y-73415213D01*
X108823486Y-73264890D01*
X108651520Y-73139951D01*
X108650815Y-73139591D01*
X108642754Y-73135485D01*
X108591959Y-73087512D01*
X108575163Y-73019692D01*
X108597699Y-72953556D01*
X108642754Y-72914515D01*
X108651516Y-72910051D01*
X108757142Y-72833310D01*
X108823486Y-72785109D01*
X108823488Y-72785106D01*
X108823492Y-72785104D01*
X108973804Y-72634792D01*
X108973806Y-72634788D01*
X108973809Y-72634786D01*
X109098748Y-72462820D01*
X109098747Y-72462820D01*
X109098751Y-72462816D01*
X109195257Y-72273412D01*
X109260946Y-72071243D01*
X109294200Y-71861287D01*
X109294200Y-71648713D01*
X109260946Y-71438757D01*
X109195257Y-71236588D01*
X109098751Y-71047184D01*
X109098749Y-71047181D01*
X109098748Y-71047179D01*
X108973809Y-70875213D01*
X108823486Y-70724890D01*
X108651520Y-70599951D01*
X108650815Y-70599591D01*
X108642754Y-70595485D01*
X108591959Y-70547512D01*
X108575163Y-70479692D01*
X108597699Y-70413556D01*
X108642754Y-70374515D01*
X108651516Y-70370051D01*
X108673489Y-70354086D01*
X108823486Y-70245109D01*
X108823488Y-70245106D01*
X108823492Y-70245104D01*
X108973804Y-70094792D01*
X108973806Y-70094788D01*
X108973809Y-70094786D01*
X109098748Y-69922820D01*
X109098747Y-69922820D01*
X109098751Y-69922816D01*
X109195257Y-69733412D01*
X109260946Y-69531243D01*
X109261269Y-69529204D01*
X147185533Y-69529204D01*
X147212452Y-69664531D01*
X147212455Y-69664541D01*
X147265255Y-69792013D01*
X147265262Y-69792026D01*
X147341919Y-69906750D01*
X147341922Y-69906754D01*
X147439488Y-70004320D01*
X147439492Y-70004323D01*
X147554216Y-70080980D01*
X147554229Y-70080987D01*
X147681701Y-70133787D01*
X147681706Y-70133789D01*
X147681710Y-70133789D01*
X147681711Y-70133790D01*
X147817038Y-70160709D01*
X147817041Y-70160709D01*
X147955029Y-70160709D01*
X148046075Y-70142598D01*
X148090362Y-70133789D01*
X148217845Y-70080984D01*
X148332576Y-70004323D01*
X148430148Y-69906751D01*
X148506809Y-69792020D01*
X148559614Y-69664537D01*
X148586534Y-69529204D01*
X150185533Y-69529204D01*
X150212452Y-69664531D01*
X150212455Y-69664541D01*
X150265255Y-69792013D01*
X150265262Y-69792026D01*
X150341919Y-69906750D01*
X150341922Y-69906754D01*
X150439488Y-70004320D01*
X150439492Y-70004323D01*
X150554216Y-70080980D01*
X150554229Y-70080987D01*
X150681701Y-70133787D01*
X150681706Y-70133789D01*
X150681710Y-70133789D01*
X150681711Y-70133790D01*
X150817038Y-70160709D01*
X150817041Y-70160709D01*
X150955029Y-70160709D01*
X151046075Y-70142598D01*
X151090362Y-70133789D01*
X151217845Y-70080984D01*
X151332576Y-70004323D01*
X151430148Y-69906751D01*
X151506809Y-69792020D01*
X151559614Y-69664537D01*
X151586534Y-69529202D01*
X151586534Y-69391216D01*
X151586534Y-69391213D01*
X151559615Y-69255886D01*
X151559614Y-69255885D01*
X151559614Y-69255881D01*
X151559612Y-69255876D01*
X151506812Y-69128404D01*
X151506805Y-69128391D01*
X151430148Y-69013667D01*
X151430145Y-69013663D01*
X151332579Y-68916097D01*
X151332575Y-68916094D01*
X151217851Y-68839437D01*
X151217838Y-68839430D01*
X151090366Y-68786630D01*
X151090356Y-68786627D01*
X150955029Y-68759709D01*
X150955027Y-68759709D01*
X150817041Y-68759709D01*
X150817039Y-68759709D01*
X150681711Y-68786627D01*
X150681701Y-68786630D01*
X150554229Y-68839430D01*
X150554216Y-68839437D01*
X150439492Y-68916094D01*
X150439488Y-68916097D01*
X150341922Y-69013663D01*
X150341919Y-69013667D01*
X150265262Y-69128391D01*
X150265255Y-69128404D01*
X150212455Y-69255876D01*
X150212452Y-69255886D01*
X150185534Y-69391213D01*
X150185534Y-69391216D01*
X150185534Y-69529202D01*
X150185534Y-69529204D01*
X150185533Y-69529204D01*
X148586534Y-69529204D01*
X148586534Y-69529202D01*
X148586534Y-69391216D01*
X148586534Y-69391213D01*
X148559615Y-69255886D01*
X148559614Y-69255885D01*
X148559614Y-69255881D01*
X148559612Y-69255876D01*
X148506812Y-69128404D01*
X148506805Y-69128391D01*
X148430148Y-69013667D01*
X148430145Y-69013663D01*
X148332579Y-68916097D01*
X148332575Y-68916094D01*
X148217851Y-68839437D01*
X148217838Y-68839430D01*
X148090366Y-68786630D01*
X148090356Y-68786627D01*
X147955029Y-68759709D01*
X147955027Y-68759709D01*
X147817041Y-68759709D01*
X147817039Y-68759709D01*
X147681711Y-68786627D01*
X147681701Y-68786630D01*
X147554229Y-68839430D01*
X147554216Y-68839437D01*
X147439492Y-68916094D01*
X147439488Y-68916097D01*
X147341922Y-69013663D01*
X147341919Y-69013667D01*
X147265262Y-69128391D01*
X147265255Y-69128404D01*
X147212455Y-69255876D01*
X147212452Y-69255886D01*
X147185534Y-69391213D01*
X147185534Y-69391216D01*
X147185534Y-69529202D01*
X147185534Y-69529204D01*
X147185533Y-69529204D01*
X109261269Y-69529204D01*
X109294200Y-69321287D01*
X109294200Y-69108713D01*
X109260946Y-68898757D01*
X109195257Y-68696588D01*
X109098751Y-68507184D01*
X109098749Y-68507181D01*
X109098748Y-68507179D01*
X108973809Y-68335213D01*
X108823486Y-68184890D01*
X108651520Y-68059951D01*
X108462114Y-67963444D01*
X108462113Y-67963443D01*
X108462112Y-67963443D01*
X108259943Y-67897754D01*
X108259941Y-67897753D01*
X108259940Y-67897753D01*
X108098657Y-67872208D01*
X108049987Y-67864500D01*
X107837413Y-67864500D01*
X107788742Y-67872208D01*
X107627460Y-67897753D01*
X107425285Y-67963444D01*
X107235879Y-68059951D01*
X107063913Y-68184890D01*
X106913590Y-68335213D01*
X106788649Y-68507182D01*
X106784184Y-68515946D01*
X106736209Y-68566742D01*
X106668388Y-68583536D01*
X106602253Y-68560998D01*
X106563216Y-68515946D01*
X106558750Y-68507182D01*
X106433809Y-68335213D01*
X106283486Y-68184890D01*
X106111520Y-68059951D01*
X105922114Y-67963444D01*
X105922113Y-67963443D01*
X105922112Y-67963443D01*
X105719943Y-67897754D01*
X105719941Y-67897753D01*
X105719940Y-67897753D01*
X105558657Y-67872208D01*
X105509987Y-67864500D01*
X105297413Y-67864500D01*
X105248742Y-67872208D01*
X105087460Y-67897753D01*
X104885285Y-67963444D01*
X104695879Y-68059951D01*
X104523913Y-68184890D01*
X104373590Y-68335213D01*
X104248651Y-68507179D01*
X104152144Y-68696585D01*
X104086453Y-68898760D01*
X104068254Y-69013667D01*
X104053200Y-69108713D01*
X103241273Y-69108713D01*
X103386663Y-64650065D01*
X111986543Y-64650065D01*
X111986543Y-66200083D01*
X111986544Y-66200100D01*
X111997043Y-66302878D01*
X111997044Y-66302881D01*
X112031074Y-66405575D01*
X112052229Y-66469416D01*
X112144331Y-66618738D01*
X112268387Y-66742794D01*
X112417709Y-66834896D01*
X112584246Y-66890081D01*
X112687034Y-66900582D01*
X113987051Y-66900581D01*
X114089840Y-66890081D01*
X114256377Y-66834896D01*
X114405699Y-66742794D01*
X114529755Y-66618738D01*
X114621857Y-66469416D01*
X114621857Y-66469413D01*
X114625491Y-66463523D01*
X114677438Y-66416798D01*
X114746401Y-66405575D01*
X114810483Y-66433418D01*
X114818711Y-66440938D01*
X114957578Y-66579805D01*
X114957583Y-66579809D01*
X115129485Y-66704702D01*
X115318825Y-66801177D01*
X115520914Y-66866839D01*
X115587043Y-66877313D01*
X115587043Y-65829227D01*
X115653700Y-65867712D01*
X115774508Y-65900082D01*
X115899578Y-65900082D01*
X116020386Y-65867712D01*
X116087043Y-65829227D01*
X116087043Y-66877312D01*
X116153169Y-66866839D01*
X116153172Y-66866839D01*
X116355260Y-66801177D01*
X116544600Y-66704702D01*
X116716502Y-66579809D01*
X116716507Y-66579805D01*
X116866764Y-66429548D01*
X116986414Y-66264863D01*
X117041744Y-66222197D01*
X117111357Y-66216218D01*
X117173153Y-66248823D01*
X117187051Y-66264863D01*
X117306933Y-66429867D01*
X117306937Y-66429872D01*
X117457256Y-66580191D01*
X117629222Y-66705130D01*
X117629224Y-66705131D01*
X117629227Y-66705133D01*
X117818631Y-66801639D01*
X118020800Y-66867328D01*
X118230756Y-66900582D01*
X118230757Y-66900582D01*
X118443329Y-66900582D01*
X118443330Y-66900582D01*
X118653286Y-66867328D01*
X118855455Y-66801639D01*
X119044859Y-66705133D01*
X119066832Y-66689168D01*
X119216829Y-66580191D01*
X119216831Y-66580188D01*
X119216835Y-66580186D01*
X119367147Y-66429874D01*
X119486726Y-66265286D01*
X119542054Y-66222622D01*
X119611667Y-66216643D01*
X119673463Y-66249248D01*
X119687356Y-66265281D01*
X119789285Y-66405575D01*
X119806939Y-66429874D01*
X119957256Y-66580191D01*
X120129222Y-66705130D01*
X120129224Y-66705131D01*
X120129227Y-66705133D01*
X120318631Y-66801639D01*
X120520800Y-66867328D01*
X120730756Y-66900582D01*
X120730757Y-66900582D01*
X120943329Y-66900582D01*
X120943330Y-66900582D01*
X121153286Y-66867328D01*
X121355455Y-66801639D01*
X121544859Y-66705133D01*
X121566832Y-66689168D01*
X121716829Y-66580191D01*
X121716831Y-66580188D01*
X121716835Y-66580186D01*
X121867147Y-66429874D01*
X121986726Y-66265286D01*
X122042054Y-66222622D01*
X122111667Y-66216643D01*
X122173463Y-66249248D01*
X122187356Y-66265281D01*
X122289285Y-66405575D01*
X122306939Y-66429874D01*
X122457256Y-66580191D01*
X122629222Y-66705130D01*
X122629224Y-66705131D01*
X122629227Y-66705133D01*
X122818631Y-66801639D01*
X123020800Y-66867328D01*
X123230756Y-66900582D01*
X123230757Y-66900582D01*
X123443329Y-66900582D01*
X123443330Y-66900582D01*
X123653286Y-66867328D01*
X123855455Y-66801639D01*
X124044859Y-66705133D01*
X124066832Y-66689168D01*
X124216829Y-66580191D01*
X124216831Y-66580188D01*
X124216835Y-66580186D01*
X124367147Y-66429874D01*
X124367149Y-66429870D01*
X124367152Y-66429868D01*
X124492091Y-66257902D01*
X124492090Y-66257902D01*
X124492094Y-66257898D01*
X124588600Y-66068494D01*
X124654289Y-65866325D01*
X124687543Y-65656369D01*
X124687543Y-65193795D01*
X124654289Y-64983839D01*
X124588600Y-64781670D01*
X124492094Y-64592266D01*
X124492092Y-64592263D01*
X124492091Y-64592261D01*
X124367152Y-64420295D01*
X124216829Y-64269972D01*
X124044863Y-64145033D01*
X123855457Y-64048526D01*
X123855456Y-64048525D01*
X123855455Y-64048525D01*
X123653286Y-63982836D01*
X123653284Y-63982835D01*
X123653283Y-63982835D01*
X123492000Y-63957290D01*
X123443330Y-63949582D01*
X123230756Y-63949582D01*
X123182085Y-63957290D01*
X123020803Y-63982835D01*
X122818628Y-64048526D01*
X122629222Y-64145033D01*
X122457256Y-64269972D01*
X122306937Y-64420291D01*
X122306933Y-64420296D01*
X122187361Y-64584875D01*
X122132032Y-64627541D01*
X122062418Y-64633520D01*
X122000623Y-64600915D01*
X121986725Y-64584875D01*
X121867152Y-64420296D01*
X121867148Y-64420291D01*
X121716829Y-64269972D01*
X121544863Y-64145033D01*
X121355457Y-64048526D01*
X121355456Y-64048525D01*
X121355455Y-64048525D01*
X121153286Y-63982836D01*
X121153284Y-63982835D01*
X121153283Y-63982835D01*
X120992000Y-63957290D01*
X120943330Y-63949582D01*
X120730756Y-63949582D01*
X120682085Y-63957290D01*
X120520803Y-63982835D01*
X120318628Y-64048526D01*
X120129222Y-64145033D01*
X119957256Y-64269972D01*
X119806937Y-64420291D01*
X119806933Y-64420296D01*
X119687361Y-64584875D01*
X119632032Y-64627541D01*
X119562418Y-64633520D01*
X119500623Y-64600915D01*
X119486725Y-64584875D01*
X119367152Y-64420296D01*
X119367148Y-64420291D01*
X119216829Y-64269972D01*
X119044863Y-64145033D01*
X118855457Y-64048526D01*
X118855456Y-64048525D01*
X118855455Y-64048525D01*
X118653286Y-63982836D01*
X118653284Y-63982835D01*
X118653283Y-63982835D01*
X118492000Y-63957290D01*
X118443330Y-63949582D01*
X118230756Y-63949582D01*
X118182085Y-63957290D01*
X118020803Y-63982835D01*
X117818628Y-64048526D01*
X117629222Y-64145033D01*
X117457256Y-64269972D01*
X117306937Y-64420291D01*
X117306933Y-64420296D01*
X117187051Y-64585300D01*
X117131721Y-64627966D01*
X117062108Y-64633945D01*
X117000313Y-64601339D01*
X116986415Y-64585300D01*
X116866770Y-64420622D01*
X116866766Y-64420617D01*
X116716507Y-64270358D01*
X116716502Y-64270354D01*
X116544600Y-64145461D01*
X116355258Y-64048985D01*
X116153167Y-63983323D01*
X116087043Y-63972850D01*
X116087043Y-65020936D01*
X116020386Y-64982452D01*
X115899578Y-64950082D01*
X115774508Y-64950082D01*
X115653700Y-64982452D01*
X115587043Y-65020936D01*
X115587043Y-63972850D01*
X115587042Y-63972850D01*
X115520918Y-63983323D01*
X115318827Y-64048985D01*
X115129485Y-64145461D01*
X114957584Y-64270353D01*
X114818711Y-64409226D01*
X114757388Y-64442710D01*
X114687696Y-64437726D01*
X114631763Y-64395854D01*
X114625491Y-64386640D01*
X114529755Y-64231426D01*
X114405700Y-64107371D01*
X114405699Y-64107370D01*
X114256377Y-64015268D01*
X114089840Y-63960083D01*
X114089838Y-63960082D01*
X113987053Y-63949582D01*
X112687041Y-63949582D01*
X112687024Y-63949583D01*
X112584246Y-63960082D01*
X112584243Y-63960083D01*
X112417711Y-64015267D01*
X112417706Y-64015269D01*
X112268385Y-64107371D01*
X112144332Y-64231424D01*
X112052230Y-64380745D01*
X112052228Y-64380750D01*
X112047223Y-64395854D01*
X111997044Y-64547285D01*
X111997044Y-64547286D01*
X111997043Y-64547286D01*
X111986543Y-64650065D01*
X103386663Y-64650065D01*
X103466988Y-62186758D01*
X103488847Y-62120396D01*
X103543114Y-62076387D01*
X103590922Y-62066800D01*
X120470900Y-62066800D01*
X120470900Y-61186353D01*
X146649500Y-61186353D01*
X146649500Y-61192600D01*
X147566488Y-61192600D01*
X147533575Y-61249607D01*
X147499500Y-61376774D01*
X147499500Y-61508426D01*
X147533575Y-61635593D01*
X147566488Y-61692600D01*
X146649500Y-61692600D01*
X146649500Y-61698846D01*
X146682742Y-61908727D01*
X146682742Y-61908730D01*
X146748404Y-62110817D01*
X146844879Y-62300157D01*
X146969772Y-62472059D01*
X146969776Y-62472064D01*
X147120035Y-62622323D01*
X147120040Y-62622327D01*
X147291942Y-62747220D01*
X147481282Y-62843695D01*
X147683371Y-62909357D01*
X147749500Y-62919831D01*
X147749500Y-61875612D01*
X147806507Y-61908525D01*
X147933674Y-61942600D01*
X148065326Y-61942600D01*
X148192493Y-61908525D01*
X148249500Y-61875612D01*
X148249500Y-62919830D01*
X148315626Y-62909357D01*
X148315629Y-62909357D01*
X148517717Y-62843695D01*
X148707057Y-62747220D01*
X148878958Y-62622328D01*
X149017830Y-62483456D01*
X149079153Y-62449971D01*
X149148845Y-62454955D01*
X149204779Y-62496826D01*
X149211051Y-62506040D01*
X149214685Y-62511931D01*
X149214686Y-62511934D01*
X149306788Y-62661256D01*
X149430844Y-62785312D01*
X149580166Y-62877414D01*
X149746703Y-62932599D01*
X149849491Y-62943100D01*
X151149508Y-62943099D01*
X151252297Y-62932599D01*
X151418834Y-62877414D01*
X151568156Y-62785312D01*
X151692212Y-62661256D01*
X151784314Y-62511934D01*
X151839499Y-62345397D01*
X151850000Y-62242609D01*
X151849999Y-60642592D01*
X151839499Y-60539803D01*
X151784314Y-60373266D01*
X151692212Y-60223944D01*
X151568156Y-60099888D01*
X151418834Y-60007786D01*
X151252297Y-59952601D01*
X151252295Y-59952600D01*
X151149510Y-59942100D01*
X149849498Y-59942100D01*
X149849481Y-59942101D01*
X149746703Y-59952600D01*
X149746700Y-59952601D01*
X149580168Y-60007785D01*
X149580163Y-60007787D01*
X149430842Y-60099889D01*
X149306789Y-60223942D01*
X149211051Y-60379159D01*
X149159103Y-60425883D01*
X149090140Y-60437106D01*
X149026058Y-60409262D01*
X149017831Y-60401743D01*
X148878964Y-60262876D01*
X148878959Y-60262872D01*
X148707057Y-60137979D01*
X148517715Y-60041503D01*
X148315624Y-59975841D01*
X148249500Y-59965368D01*
X148249500Y-61009588D01*
X148192493Y-60976675D01*
X148065326Y-60942600D01*
X147933674Y-60942600D01*
X147806507Y-60976675D01*
X147749500Y-61009588D01*
X147749500Y-59965368D01*
X147749499Y-59965368D01*
X147683375Y-59975841D01*
X147481284Y-60041503D01*
X147291942Y-60137979D01*
X147120040Y-60262872D01*
X147120035Y-60262876D01*
X146969776Y-60413135D01*
X146969772Y-60413140D01*
X146844879Y-60585042D01*
X146748404Y-60774382D01*
X146682742Y-60976469D01*
X146682742Y-60976472D01*
X146649500Y-61186353D01*
X120470900Y-61186353D01*
X120470900Y-59931383D01*
X157444000Y-59931383D01*
X157444000Y-61531401D01*
X157444001Y-61531418D01*
X157454500Y-61634196D01*
X157454501Y-61634199D01*
X157500394Y-61772694D01*
X157509686Y-61800734D01*
X157601788Y-61950056D01*
X157725844Y-62074112D01*
X157875166Y-62166214D01*
X158041703Y-62221399D01*
X158144491Y-62231900D01*
X159444508Y-62231899D01*
X159547297Y-62221399D01*
X159713834Y-62166214D01*
X159863156Y-62074112D01*
X159987212Y-61950056D01*
X160079314Y-61800734D01*
X160079314Y-61800731D01*
X160082678Y-61795279D01*
X160134626Y-61748554D01*
X160203588Y-61737331D01*
X160267670Y-61765174D01*
X160275898Y-61772694D01*
X160414713Y-61911509D01*
X160586679Y-62036448D01*
X160586681Y-62036449D01*
X160586684Y-62036451D01*
X160776088Y-62132957D01*
X160978257Y-62198646D01*
X161188213Y-62231900D01*
X161188214Y-62231900D01*
X161400786Y-62231900D01*
X161400787Y-62231900D01*
X161610743Y-62198646D01*
X161812912Y-62132957D01*
X162002316Y-62036451D01*
X162024289Y-62020486D01*
X162174286Y-61911509D01*
X162174288Y-61911506D01*
X162174292Y-61911504D01*
X162324604Y-61761192D01*
X162324606Y-61761188D01*
X162324609Y-61761186D01*
X162449548Y-61589220D01*
X162449547Y-61589220D01*
X162449551Y-61589216D01*
X162546057Y-61399812D01*
X162611746Y-61197643D01*
X162645000Y-60987687D01*
X162645000Y-60475113D01*
X162611746Y-60265157D01*
X162546057Y-60062988D01*
X162449551Y-59873584D01*
X162449549Y-59873581D01*
X162449548Y-59873579D01*
X162324609Y-59701613D01*
X162174286Y-59551290D01*
X162002320Y-59426351D01*
X161812914Y-59329844D01*
X161812913Y-59329843D01*
X161812912Y-59329843D01*
X161610743Y-59264154D01*
X161610741Y-59264153D01*
X161610740Y-59264153D01*
X161449457Y-59238608D01*
X161400787Y-59230900D01*
X161188213Y-59230900D01*
X161139542Y-59238608D01*
X160978260Y-59264153D01*
X160776085Y-59329844D01*
X160586679Y-59426351D01*
X160414715Y-59551289D01*
X160275898Y-59690106D01*
X160214575Y-59723590D01*
X160144883Y-59718606D01*
X160088950Y-59676734D01*
X160082678Y-59667520D01*
X159987212Y-59512744D01*
X159863157Y-59388689D01*
X159863156Y-59388688D01*
X159713834Y-59296586D01*
X159547297Y-59241401D01*
X159547295Y-59241400D01*
X159444510Y-59230900D01*
X158144498Y-59230900D01*
X158144481Y-59230901D01*
X158041703Y-59241400D01*
X158041700Y-59241401D01*
X157875168Y-59296585D01*
X157875163Y-59296587D01*
X157725842Y-59388689D01*
X157601789Y-59512742D01*
X157509687Y-59662063D01*
X157509685Y-59662068D01*
X157505392Y-59675023D01*
X157454501Y-59828603D01*
X157454501Y-59828604D01*
X157454500Y-59828604D01*
X157444000Y-59931383D01*
X120470900Y-59931383D01*
X120470900Y-57690800D01*
X120490585Y-57623761D01*
X120543389Y-57578006D01*
X120594900Y-57566800D01*
X165346900Y-57566800D01*
X165413939Y-57586485D01*
G37*
%TD.AperFunction*%
%TA.AperFunction,Conductor*%
G36*
X138167370Y-108127517D02*
G01*
X138167370Y-108127516D01*
X138206722Y-108073355D01*
X138211332Y-108064307D01*
X138259305Y-108013509D01*
X138327125Y-107996712D01*
X138393261Y-108019247D01*
X138432304Y-108064304D01*
X138437049Y-108073617D01*
X138561990Y-108245586D01*
X138712313Y-108395909D01*
X138884279Y-108520848D01*
X138884281Y-108520849D01*
X138884284Y-108520851D01*
X139073688Y-108617357D01*
X139275857Y-108683046D01*
X139409481Y-108704210D01*
X139472614Y-108734138D01*
X139509546Y-108793449D01*
X139508548Y-108863311D01*
X139469939Y-108921544D01*
X139405975Y-108949659D01*
X139387154Y-108950647D01*
X137462897Y-108905193D01*
X137396341Y-108883931D01*
X137351846Y-108830061D01*
X137343538Y-108760687D01*
X137374056Y-108697835D01*
X137427507Y-108663297D01*
X137570317Y-108616895D01*
X137759654Y-108520422D01*
X137813816Y-108481070D01*
X137813817Y-108481070D01*
X137181508Y-107848762D01*
X137245093Y-107831725D01*
X137359107Y-107765899D01*
X137452199Y-107672807D01*
X137518025Y-107558793D01*
X137535062Y-107495208D01*
X138167370Y-108127517D01*
G37*
%TD.AperFunction*%
%TA.AperFunction,Conductor*%
G36*
X136586175Y-107558793D02*
G01*
X136652001Y-107672807D01*
X136745093Y-107765899D01*
X136859107Y-107831725D01*
X136922690Y-107848762D01*
X136290382Y-108481069D01*
X136290382Y-108481070D01*
X136344549Y-108520424D01*
X136533884Y-108616896D01*
X136611818Y-108642218D01*
X136669494Y-108681655D01*
X136696693Y-108746013D01*
X136684779Y-108814860D01*
X136637535Y-108866336D01*
X136570573Y-108884114D01*
X135701518Y-108863585D01*
X135634962Y-108842323D01*
X135590467Y-108788453D01*
X135582159Y-108719079D01*
X135612677Y-108656227D01*
X135630128Y-108640358D01*
X135719646Y-108573346D01*
X135805896Y-108458131D01*
X135856191Y-108323283D01*
X135862600Y-108263673D01*
X135862599Y-108253112D01*
X135882279Y-108186075D01*
X135898918Y-108165426D01*
X136569136Y-107495207D01*
X136586175Y-107558793D01*
G37*
%TD.AperFunction*%
%TA.AperFunction,Conductor*%
G36*
X136229829Y-106186985D02*
G01*
X136249908Y-106210157D01*
X136249960Y-106210106D01*
X136922691Y-106882837D01*
X136859107Y-106899875D01*
X136745093Y-106965701D01*
X136652001Y-107058793D01*
X136586175Y-107172807D01*
X136569137Y-107236391D01*
X135898918Y-106566172D01*
X135865567Y-106505458D01*
X135862599Y-106492137D01*
X135862599Y-106467928D01*
X135856191Y-106408317D01*
X135825720Y-106326620D01*
X135823859Y-106318267D01*
X135825631Y-106291600D01*
X135823725Y-106264941D01*
X135827913Y-106257270D01*
X135828493Y-106248551D01*
X135844400Y-106227076D01*
X135857210Y-106203618D01*
X135864880Y-106199429D01*
X135870082Y-106192408D01*
X135895077Y-106182941D01*
X135918534Y-106170134D01*
X135933003Y-106168578D01*
X135935423Y-106167662D01*
X135937474Y-106168097D01*
X135944891Y-106167300D01*
X136162790Y-106167300D01*
X136229829Y-106186985D01*
G37*
%TD.AperFunction*%
%TA.AperFunction,Conductor*%
G36*
X138648381Y-106186985D02*
G01*
X138694136Y-106239789D01*
X138704080Y-106308947D01*
X138675055Y-106372503D01*
X138669023Y-106378981D01*
X138561994Y-106486009D01*
X138561990Y-106486013D01*
X138437049Y-106657982D01*
X138432302Y-106667299D01*
X138384327Y-106718093D01*
X138316505Y-106734887D01*
X138250371Y-106712348D01*
X138211334Y-106667295D01*
X138206726Y-106658252D01*
X138167370Y-106604082D01*
X138167369Y-106604082D01*
X137535062Y-107236390D01*
X137518025Y-107172807D01*
X137452199Y-107058793D01*
X137359107Y-106965701D01*
X137245093Y-106899875D01*
X137181509Y-106882837D01*
X137854239Y-106210106D01*
X137854310Y-106210177D01*
X137881199Y-106182899D01*
X137941409Y-106167300D01*
X138581342Y-106167300D01*
X138648381Y-106186985D01*
G37*
%TD.AperFunction*%
%TA.AperFunction,Conductor*%
G36*
X102931175Y-101513593D02*
G01*
X102997001Y-101627607D01*
X103090093Y-101720699D01*
X103204107Y-101786525D01*
X103267690Y-101803562D01*
X102635382Y-102435869D01*
X102635382Y-102435870D01*
X102689552Y-102475226D01*
X102689551Y-102475226D01*
X102698595Y-102479834D01*
X102749392Y-102527808D01*
X102766187Y-102595629D01*
X102743650Y-102661764D01*
X102698599Y-102700802D01*
X102689282Y-102705549D01*
X102517313Y-102830490D01*
X102366994Y-102980809D01*
X102366985Y-102980819D01*
X102363337Y-102985841D01*
X102308004Y-103028503D01*
X102238390Y-103034476D01*
X102176598Y-103001865D01*
X102142245Y-102941024D01*
X102139091Y-102908915D01*
X102162111Y-102202987D01*
X102183969Y-102136628D01*
X102238236Y-102092619D01*
X102277866Y-102086278D01*
X102914137Y-101450008D01*
X102931175Y-101513593D01*
G37*
%TD.AperFunction*%
%TA.AperFunction,Conductor*%
G36*
X102447697Y-99741224D02*
G01*
X102451164Y-99744560D01*
X102517313Y-99810709D01*
X102689279Y-99935648D01*
X102689281Y-99935649D01*
X102689284Y-99935651D01*
X102698593Y-99940394D01*
X102749390Y-99988366D01*
X102766187Y-100056187D01*
X102743652Y-100122322D01*
X102698605Y-100161360D01*
X102689546Y-100165976D01*
X102689540Y-100165980D01*
X102635382Y-100205327D01*
X102635382Y-100205328D01*
X103267691Y-100837637D01*
X103204107Y-100854675D01*
X103090093Y-100920501D01*
X102997001Y-101013593D01*
X102931175Y-101127607D01*
X102914137Y-101191191D01*
X102251995Y-100529049D01*
X102218685Y-100468047D01*
X102218851Y-100462947D01*
X102221384Y-100427534D01*
X102220007Y-100427490D01*
X102239550Y-99828196D01*
X102261408Y-99761837D01*
X102315675Y-99717828D01*
X102385121Y-99710143D01*
X102447697Y-99741224D01*
G37*
%TD.AperFunction*%
%TD*%
M02*
