M48
; DRILL file KiCad 10.0.1 date 2026-05-06T01:35:07
; FORMAT={-:-/ absolute / metric / decimal}
; #@! TF.CreationDate,2026-05-06T01:35:07-06:00
; #@! TF.GenerationSoftware,Kicad,Pcbnew,10.0.1
; #@! TF.FileFunction,Plated,1,2,PTH
FMAT,2
METRIC
; #@! TA.AperFunction,Plated,PTH,ViaDrill
T1C0.300
; #@! TA.AperFunction,Plated,PTH,ComponentDrill
T2C0.600
; #@! TA.AperFunction,Plated,PTH,ComponentDrill
T3C0.950
; #@! TA.AperFunction,Plated,PTH,ComponentDrill
T4C1.000
%
G90
G05
T1
X103.471Y-91.567
X109.471Y-90.067
X112.471Y-94.067
X112.971Y-85.567
X114.971Y-83.067
X116.971Y-63.067
X119.871Y-96.967
X119.971Y-75.067
X119.971Y-81.567
X120.471Y-79.067
X120.471Y-96.067
X120.471Y-100.067
X121.971Y-103.067
X122.471Y-101.567
X123.471Y-73.067
X123.971Y-98.668
X124.471Y-58.567
X124.971Y-77.067
X124.971Y-91.067
X124.971Y-96.567
X125.971Y-83.567
X127.971Y-83.567
X130.971Y-97.067
X131.971Y-76.067
X132.971Y-84.067
X133.471Y-67.067
X134.471Y-94.067
X134.971Y-105.567
X136.471Y-81.067
X136.971Y-79.567
X136.971Y-97.067
X138.805Y-58.954
X138.971Y-86.067
X138.971Y-92.567
X140.077Y-104.46
X141.243Y-58.98
X142.471Y-101.067
X143.971Y-79.067
X145.471Y-73.067
X145.971Y-88.567
X146.471Y-81.067
X147.971Y-76.067
X147.971Y-97.067
X147.971Y-103.067
X148.471Y-82.067
X149.471Y-85.757
X149.471Y-87.067
X149.971Y-76.406
X149.971Y-78.909
X149.971Y-103.067
X150.971Y-94.567
X151.971Y-74.567
X151.971Y-83.567
X152.471Y-86.567
X152.561Y-77.657
X152.971Y-79.005
X155.471Y-73.067
X155.971Y-70.067
X157.09Y-80.067
X157.471Y-85.067
X157.971Y-73.067
X160.111Y-75.707
X160.471Y-80.067
X163.471Y-85.067
T3
X109.254Y-102.413
X111.754Y-102.413
X113.337Y-65.425
X114.254Y-102.413
X115.837Y-65.425
X116.754Y-102.413
X118.337Y-65.425
X120.837Y-65.425
X123.337Y-65.425
T4
X103.397Y-98.781
X103.397Y-101.321
X103.397Y-103.861
X103.397Y-106.401
X105.404Y-69.215
X105.404Y-71.755
X105.404Y-74.295
X105.404Y-76.835
X107.944Y-69.215
X107.944Y-71.755
X107.944Y-74.295
X107.944Y-76.835
X134.512Y-107.366
X137.052Y-107.366
X139.592Y-107.366
X142.132Y-107.366
X144.672Y-107.366
X147.212Y-107.366
X147.999Y-61.443
X149.752Y-107.366
X150.499Y-61.443
X152.292Y-107.366
X158.794Y-60.731
X158.916Y-104.961
X161.294Y-60.731
X161.416Y-104.961
T2
G00X102.996Y-85.664
M15
G01X102.396Y-85.664
M16
G05
G00X102.996Y-94.304
M15
G01X102.396Y-94.304
M16
G05
G00X107.426Y-85.664
M15
G01X106.326Y-85.664
M16
G05
G00X107.426Y-94.304
M15
G01X106.326Y-94.304
M16
G05
M30
