M48
; DRILL file {KiCad 9.0.7} date 2026-04-28T17:35:34-0600
; FORMAT={-:-/ absolute / metric / decimal}
; #@! TF.CreationDate,2026-04-28T17:35:34-06:00
; #@! TF.GenerationSoftware,Kicad,Pcbnew,9.0.7
; #@! TF.FileFunction,Plated,1,2,PTH
FMAT,2
METRIC
; #@! TA.AperFunction,Plated,PTH,ViaDrill
T1C0.300
; #@! TA.AperFunction,Plated,PTH,ComponentDrill
T2C0.550
; #@! TA.AperFunction,Plated,PTH,ComponentDrill
T3C0.850
; #@! TA.AperFunction,Plated,PTH,ComponentDrill
T4C1.000
%
G90
G05
T1
X90.5Y-55.5
X93.0Y-64.5
X97.0Y-59.0
X97.0Y-62.0
X97.5Y-68.0
X97.5Y-71.5
X98.0Y-59.0
X98.02Y-60.02
X99.0Y-59.0
X102.0Y-75.0
X102.277Y-65.31
X102.5Y-61.0
X104.0Y-75.0
X105.0Y-69.5
X105.5Y-73.0
X107.5Y-66.5
X108.0Y-73.0
X112.5Y-61.5
X116.5Y-70.0
X117.5Y-65.5
X117.5Y-66.5
X117.5Y-69.5
X121.0Y-69.0
X123.35Y-60.85
X124.5Y-67.0
X125.5Y-70.5
X126.0Y-68.0
T4
X95.5Y-51.0
X98.04Y-51.0
X100.58Y-51.0
X100.69Y-76.5
X103.12Y-51.0
X103.23Y-76.5
X105.77Y-76.5
X108.31Y-76.5
X110.46Y-51.0
X113.0Y-51.0
X115.54Y-51.0
X118.08Y-51.0
T2
G00X125.175Y-58.275
M15
G01X125.825Y-58.275
M16
G05
G00X125.175Y-66.025
M15
G01X125.825Y-66.025
M16
G05
T3
G00X121.425Y-58.425
M15
G01X121.975Y-58.425
M16
G05
G00X121.425Y-65.875
M15
G01X121.975Y-65.875
M16
G05
M30
