%TF.GenerationSoftware,KiCad,Pcbnew,9.0.7*%
%TF.CreationDate,2026-04-28T17:35:39-06:00*%
%TF.ProjectId,embed_lab,656d6265-645f-46c6-9162-2e6b69636164,rev?*%
%TF.SameCoordinates,Original*%
%TF.FileFunction,Soldermask,Top*%
%TF.FilePolarity,Negative*%
%FSLAX46Y46*%
G04 Gerber Fmt 4.6, Leading zero omitted, Abs format (unit mm)*
G04 Created by KiCad (PCBNEW 9.0.7) date 2026-04-28 17:35:39*
%MOMM*%
%LPD*%
G01*
G04 APERTURE LIST*
G04 Aperture macros list*
%AMRoundRect*
0 Rectangle with rounded corners*
0 $1 Rounding radius*
0 $2 $3 $4 $5 $6 $7 $8 $9 X,Y pos of 4 corners*
0 Add a 4 corners polygon primitive as box body*
4,1,4,$2,$3,$4,$5,$6,$7,$8,$9,$2,$3,0*
0 Add four circle primitives for the rounded corners*
1,1,$1+$1,$2,$3*
1,1,$1+$1,$4,$5*
1,1,$1+$1,$6,$7*
1,1,$1+$1,$8,$9*
0 Add four rect primitives between the rounded corners*
20,1,$1+$1,$2,$3,$4,$5,0*
20,1,$1+$1,$4,$5,$6,$7,0*
20,1,$1+$1,$6,$7,$8,$9,0*
20,1,$1+$1,$8,$9,$2,$3,0*%
G04 Aperture macros list end*
%ADD10O,0.800000X0.800000*%
%ADD11R,1.300000X0.450000*%
%ADD12O,1.800000X1.150000*%
%ADD13O,2.000000X1.450000*%
%ADD14RoundRect,0.250000X-0.250000X-0.475000X0.250000X-0.475000X0.250000X0.475000X-0.250000X0.475000X0*%
%ADD15R,1.500000X0.700000*%
%ADD16R,0.800000X1.000000*%
%ADD17C,0.900000*%
%ADD18C,2.100000*%
%ADD19RoundRect,0.218750X-0.256250X0.218750X-0.256250X-0.218750X0.256250X-0.218750X0.256250X0.218750X0*%
%ADD20RoundRect,0.155000X0.212500X0.155000X-0.212500X0.155000X-0.212500X-0.155000X0.212500X-0.155000X0*%
%ADD21RoundRect,0.250000X-0.350000X0.450000X-0.350000X-0.450000X0.350000X-0.450000X0.350000X0.450000X0*%
%ADD22RoundRect,0.225000X0.250000X-0.225000X0.250000X0.225000X-0.250000X0.225000X-0.250000X-0.225000X0*%
%ADD23RoundRect,0.140000X0.140000X0.170000X-0.140000X0.170000X-0.140000X-0.170000X0.140000X-0.170000X0*%
%ADD24RoundRect,0.375000X-0.375000X0.625000X-0.375000X-0.625000X0.375000X-0.625000X0.375000X0.625000X0*%
%ADD25RoundRect,0.500000X-1.400000X0.500000X-1.400000X-0.500000X1.400000X-0.500000X1.400000X0.500000X0*%
%ADD26RoundRect,0.075000X-0.662500X-0.075000X0.662500X-0.075000X0.662500X0.075000X-0.662500X0.075000X0*%
%ADD27RoundRect,0.075000X-0.075000X-0.662500X0.075000X-0.662500X0.075000X0.662500X-0.075000X0.662500X0*%
%ADD28RoundRect,0.135000X-0.135000X-0.185000X0.135000X-0.185000X0.135000X0.185000X-0.135000X0.185000X0*%
%ADD29RoundRect,0.135000X0.135000X0.185000X-0.135000X0.185000X-0.135000X-0.185000X0.135000X-0.185000X0*%
%ADD30RoundRect,0.135000X-0.185000X0.135000X-0.185000X-0.135000X0.185000X-0.135000X0.185000X0.135000X0*%
%ADD31RoundRect,0.135000X0.185000X-0.135000X0.185000X0.135000X-0.185000X0.135000X-0.185000X-0.135000X0*%
%ADD32R,1.700000X1.700000*%
%ADD33C,1.700000*%
%ADD34RoundRect,0.250000X0.475000X-0.250000X0.475000X0.250000X-0.475000X0.250000X-0.475000X-0.250000X0*%
%ADD35RoundRect,0.140000X0.170000X-0.140000X0.170000X0.140000X-0.170000X0.140000X-0.170000X-0.140000X0*%
%ADD36RoundRect,0.155000X-0.212500X-0.155000X0.212500X-0.155000X0.212500X0.155000X-0.212500X0.155000X0*%
%ADD37RoundRect,0.225000X-0.225000X-0.250000X0.225000X-0.250000X0.225000X0.250000X-0.225000X0.250000X0*%
%ADD38RoundRect,0.140000X-0.170000X0.140000X-0.170000X-0.140000X0.170000X-0.140000X0.170000X0.140000X0*%
%ADD39RoundRect,0.140000X-0.140000X-0.170000X0.140000X-0.170000X0.140000X0.170000X-0.140000X0.170000X0*%
G04 APERTURE END LIST*
D10*
%TO.C,J1*%
X122750000Y-64650000D03*
X122750000Y-59650000D03*
D11*
X121650000Y-63450000D03*
X121650000Y-62800000D03*
X121650000Y-62150000D03*
X121650000Y-61500000D03*
X121650000Y-60850000D03*
D12*
X125500000Y-66025000D03*
D13*
X121700000Y-65875000D03*
X121700000Y-58425000D03*
D12*
X125500000Y-58275000D03*
%TD*%
D14*
%TO.C,C12*%
X115950000Y-66000000D03*
X114050000Y-66000000D03*
%TD*%
D15*
%TO.C,SW1*%
X89760000Y-61250000D03*
X89760000Y-59750000D03*
X89760000Y-56750000D03*
D16*
X86900000Y-62650000D03*
X89110000Y-62650000D03*
D17*
X88000000Y-60500000D03*
X88000000Y-57500000D03*
D16*
X86900000Y-55350000D03*
X89110000Y-55350000D03*
%TD*%
D18*
%TO.C,H3*%
X124500000Y-51500000D03*
%TD*%
%TO.C,H2*%
X124500000Y-76500000D03*
%TD*%
%TO.C,H4*%
X89000000Y-51500000D03*
%TD*%
%TO.C,H1*%
X89000000Y-76500000D03*
%TD*%
D19*
%TO.C,FB1*%
X100500000Y-70287500D03*
X100500000Y-68712500D03*
%TD*%
D20*
%TO.C,C8*%
X97432500Y-70500000D03*
X98567500Y-70500000D03*
%TD*%
D21*
%TO.C,Y1*%
X94000000Y-60500000D03*
X94000000Y-62700000D03*
X92300000Y-62700000D03*
X92300000Y-60500000D03*
%TD*%
D22*
%TO.C,C6*%
X98500000Y-64225000D03*
X98500000Y-65775000D03*
%TD*%
D23*
%TO.C,C7*%
X97520000Y-69000000D03*
X98480000Y-69000000D03*
%TD*%
D24*
%TO.C,U2*%
X116800000Y-68350000D03*
X114500000Y-68350000D03*
D25*
X114500000Y-74650000D03*
D24*
X112200000Y-68350000D03*
%TD*%
D26*
%TO.C,U1*%
X101000000Y-61000000D03*
X101000000Y-61500000D03*
X101000000Y-62000000D03*
X101000000Y-62500000D03*
X101000000Y-63000000D03*
X101000000Y-63500000D03*
X101000000Y-64000000D03*
X101000000Y-64500000D03*
X101000000Y-65000000D03*
X101000000Y-65500000D03*
X101000000Y-66000000D03*
X101000000Y-66500000D03*
D27*
X102412500Y-67912500D03*
X102912500Y-67912500D03*
X103412500Y-67912500D03*
X103912500Y-67912500D03*
X104412500Y-67912500D03*
X104912500Y-67912500D03*
X105412500Y-67912500D03*
X105912500Y-67912500D03*
X106412500Y-67912500D03*
X106912500Y-67912500D03*
X107412500Y-67912500D03*
X107912500Y-67912500D03*
D26*
X109325000Y-66500000D03*
X109325000Y-66000000D03*
X109325000Y-65500000D03*
X109325000Y-65000000D03*
X109325000Y-64500000D03*
X109325000Y-64000000D03*
X109325000Y-63500000D03*
X109325000Y-63000000D03*
X109325000Y-62500000D03*
X109325000Y-62000000D03*
X109325000Y-61500000D03*
X109325000Y-61000000D03*
D27*
X107912500Y-59587500D03*
X107412500Y-59587500D03*
X106912500Y-59587500D03*
X106412500Y-59587500D03*
X105912500Y-59587500D03*
X105412500Y-59587500D03*
X104912500Y-59587500D03*
X104412500Y-59587500D03*
X103912500Y-59587500D03*
X103412500Y-59587500D03*
X102912500Y-59587500D03*
X102412500Y-59587500D03*
%TD*%
D28*
%TO.C,R5*%
X106480000Y-74000000D03*
X107500000Y-74000000D03*
%TD*%
D29*
%TO.C,R4*%
X104010000Y-74010000D03*
X102990000Y-74010000D03*
%TD*%
D28*
%TO.C,R3*%
X123990000Y-68000000D03*
X125010000Y-68000000D03*
%TD*%
D30*
%TO.C,R2*%
X115000000Y-61490000D03*
X115000000Y-62510000D03*
%TD*%
D31*
%TO.C,R1*%
X92000000Y-58510000D03*
X92000000Y-57490000D03*
%TD*%
D32*
%TO.C,J4*%
X100690000Y-76500000D03*
D33*
X103230000Y-76500000D03*
X105770000Y-76500000D03*
X108310000Y-76500000D03*
%TD*%
D32*
%TO.C,J3*%
X103120000Y-51000000D03*
D33*
X100580000Y-51000000D03*
X98040000Y-51000000D03*
X95500000Y-51000000D03*
%TD*%
D32*
%TO.C,J2*%
X118080000Y-51000000D03*
D33*
X115540000Y-51000000D03*
X113000000Y-51000000D03*
X110460000Y-51000000D03*
%TD*%
D19*
%TO.C,D1*%
X124000000Y-69712500D03*
X124000000Y-71287500D03*
%TD*%
D34*
%TO.C,C13*%
X119500000Y-71000000D03*
X119500000Y-69100000D03*
%TD*%
D35*
%TO.C,C11*%
X95950000Y-63000000D03*
X95950000Y-62040000D03*
%TD*%
%TO.C,C10*%
X95950000Y-60980000D03*
X95950000Y-60020000D03*
%TD*%
D36*
%TO.C,C9*%
X102932500Y-70000000D03*
X104067500Y-70000000D03*
%TD*%
D37*
%TO.C,C5*%
X101225000Y-57500000D03*
X102775000Y-57500000D03*
%TD*%
D38*
%TO.C,C4*%
X111500000Y-60520000D03*
X111500000Y-61480000D03*
%TD*%
D23*
%TO.C,C3*%
X108980000Y-70500000D03*
X108020000Y-70500000D03*
%TD*%
D35*
%TO.C,C2*%
X99000000Y-60980000D03*
X99000000Y-60020000D03*
%TD*%
D39*
%TO.C,C1*%
X101520000Y-56000000D03*
X102480000Y-56000000D03*
%TD*%
M02*
