%TF.GenerationSoftware,KiCad,Pcbnew,10.0.1*%
%TF.CreationDate,2026-05-06T01:35:01-06:00*%
%TF.ProjectId,2026_12_2Wheel_Balance_Robot_v1,32303236-5f31-4325-9f32-576865656c5f,rev?*%
%TF.SameCoordinates,Original*%
%TF.FileFunction,Copper,L1,Top*%
%TF.FilePolarity,Positive*%
%FSLAX46Y46*%
G04 Gerber Fmt 4.6, Leading zero omitted, Abs format (unit mm)*
G04 Created by KiCad (PCBNEW 10.0.1) date 2026-05-06 01:35:01*
%MOMM*%
%LPD*%
G01*
G04 APERTURE LIST*
G04 Aperture macros list*
%AMRoundRect*
0 Rectangle with rounded corners*
0 $1 Rounding radius*
0 $2 $3 $4 $5 $6 $7 $8 $9 X,Y pos of 4 corners*
0 Add a 4 corners polygon primitive as box body*
4,1,4,$2,$3,$4,$5,$6,$7,$8,$9,$2,$3,0*
0 Add four circle primitives for the rounded corners*
1,1,$1+$1,$2,$3*
1,1,$1+$1,$4,$5*
1,1,$1+$1,$6,$7*
1,1,$1+$1,$8,$9*
0 Add four rect primitives between the rounded corners*
20,1,$1+$1,$2,$3,$4,$5,0*
20,1,$1+$1,$4,$5,$6,$7,0*
20,1,$1+$1,$6,$7,$8,$9,0*
20,1,$1+$1,$8,$9,$2,$3,0*%
G04 Aperture macros list end*
%TA.AperFunction,SMDPad,CuDef*%
%ADD10RoundRect,0.250000X0.475000X-0.337500X0.475000X0.337500X-0.475000X0.337500X-0.475000X-0.337500X0*%
%TD*%
%TA.AperFunction,SMDPad,CuDef*%
%ADD11RoundRect,0.250000X-0.337500X-0.475000X0.337500X-0.475000X0.337500X0.475000X-0.337500X0.475000X0*%
%TD*%
%TA.AperFunction,SMDPad,CuDef*%
%ADD12RoundRect,0.250000X0.337500X0.475000X-0.337500X0.475000X-0.337500X-0.475000X0.337500X-0.475000X0*%
%TD*%
%TA.AperFunction,SMDPad,CuDef*%
%ADD13RoundRect,0.250000X-0.312500X-1.450000X0.312500X-1.450000X0.312500X1.450000X-0.312500X1.450000X0*%
%TD*%
%TA.AperFunction,SMDPad,CuDef*%
%ADD14RoundRect,0.250000X-0.450000X0.350000X-0.450000X-0.350000X0.450000X-0.350000X0.450000X0.350000X0*%
%TD*%
%TA.AperFunction,SMDPad,CuDef*%
%ADD15RoundRect,0.150000X-0.512500X-0.150000X0.512500X-0.150000X0.512500X0.150000X-0.512500X0.150000X0*%
%TD*%
%TA.AperFunction,SMDPad,CuDef*%
%ADD16RoundRect,0.375000X0.625000X0.375000X-0.625000X0.375000X-0.625000X-0.375000X0.625000X-0.375000X0*%
%TD*%
%TA.AperFunction,SMDPad,CuDef*%
%ADD17RoundRect,0.500000X0.500000X1.400000X-0.500000X1.400000X-0.500000X-1.400000X0.500000X-1.400000X0*%
%TD*%
%TA.AperFunction,SMDPad,CuDef*%
%ADD18R,0.900000X1.250000*%
%TD*%
%TA.AperFunction,SMDPad,CuDef*%
%ADD19R,0.800000X0.900000*%
%TD*%
%TA.AperFunction,SMDPad,CuDef*%
%ADD20RoundRect,0.250000X-0.350000X-0.450000X0.350000X-0.450000X0.350000X0.450000X-0.350000X0.450000X0*%
%TD*%
%TA.AperFunction,ComponentPad*%
%ADD21R,1.700000X1.700000*%
%TD*%
%TA.AperFunction,ComponentPad*%
%ADD22C,1.700000*%
%TD*%
%TA.AperFunction,SMDPad,CuDef*%
%ADD23RoundRect,0.237500X-0.250000X-0.237500X0.250000X-0.237500X0.250000X0.237500X-0.250000X0.237500X0*%
%TD*%
%TA.AperFunction,SMDPad,CuDef*%
%ADD24RoundRect,0.100000X0.850000X0.100000X-0.850000X0.100000X-0.850000X-0.100000X0.850000X-0.100000X0*%
%TD*%
%TA.AperFunction,SMDPad,CuDef*%
%ADD25RoundRect,0.090000X0.360000X-0.660000X0.360000X0.660000X-0.360000X0.660000X-0.360000X-0.660000X0*%
%TD*%
%TA.AperFunction,SMDPad,CuDef*%
%ADD26R,2.300000X1.500000*%
%TD*%
%TA.AperFunction,SMDPad,CuDef*%
%ADD27RoundRect,0.075000X0.700000X0.075000X-0.700000X0.075000X-0.700000X-0.075000X0.700000X-0.075000X0*%
%TD*%
%TA.AperFunction,SMDPad,CuDef*%
%ADD28RoundRect,0.075000X0.075000X0.700000X-0.075000X0.700000X-0.075000X-0.700000X0.075000X-0.700000X0*%
%TD*%
%TA.AperFunction,SMDPad,CuDef*%
%ADD29RoundRect,0.250000X0.450000X-0.325000X0.450000X0.325000X-0.450000X0.325000X-0.450000X-0.325000X0*%
%TD*%
%TA.AperFunction,SMDPad,CuDef*%
%ADD30RoundRect,0.250000X0.350000X-0.450000X0.350000X0.450000X-0.350000X0.450000X-0.350000X-0.450000X0*%
%TD*%
%TA.AperFunction,SMDPad,CuDef*%
%ADD31RoundRect,0.250000X-0.475000X0.337500X-0.475000X-0.337500X0.475000X-0.337500X0.475000X0.337500X0*%
%TD*%
%TA.AperFunction,ComponentPad*%
%ADD32RoundRect,0.250000X-0.600000X-0.750000X0.600000X-0.750000X0.600000X0.750000X-0.600000X0.750000X0*%
%TD*%
%TA.AperFunction,ComponentPad*%
%ADD33O,1.700000X2.000000*%
%TD*%
%TA.AperFunction,SMDPad,CuDef*%
%ADD34RoundRect,0.250000X-0.325000X-0.450000X0.325000X-0.450000X0.325000X0.450000X-0.325000X0.450000X0*%
%TD*%
%TA.AperFunction,ComponentPad*%
%ADD35RoundRect,0.250000X0.600000X0.750000X-0.600000X0.750000X-0.600000X-0.750000X0.600000X-0.750000X0*%
%TD*%
%TA.AperFunction,ComponentPad*%
%ADD36RoundRect,0.250000X-0.600000X-0.725000X0.600000X-0.725000X0.600000X0.725000X-0.600000X0.725000X0*%
%TD*%
%TA.AperFunction,ComponentPad*%
%ADD37O,1.700000X1.950000*%
%TD*%
%TA.AperFunction,SMDPad,CuDef*%
%ADD38RoundRect,0.150000X-0.500000X0.150000X-0.500000X-0.150000X0.500000X-0.150000X0.500000X0.150000X0*%
%TD*%
%TA.AperFunction,SMDPad,CuDef*%
%ADD39RoundRect,0.075000X-0.575000X0.075000X-0.575000X-0.075000X0.575000X-0.075000X0.575000X0.075000X0*%
%TD*%
%TA.AperFunction,ComponentPad*%
%ADD40O,2.100000X1.000000*%
%TD*%
%TA.AperFunction,ComponentPad*%
%ADD41O,1.600000X1.000000*%
%TD*%
%TA.AperFunction,SMDPad,CuDef*%
%ADD42RoundRect,0.250001X-0.872499X-0.944999X0.872499X-0.944999X0.872499X0.944999X-0.872499X0.944999X0*%
%TD*%
%TA.AperFunction,SMDPad,CuDef*%
%ADD43RoundRect,0.237500X0.250000X0.237500X-0.250000X0.237500X-0.250000X-0.237500X0.250000X-0.237500X0*%
%TD*%
%TA.AperFunction,ComponentPad*%
%ADD44RoundRect,0.250000X0.600000X0.725000X-0.600000X0.725000X-0.600000X-0.725000X0.600000X-0.725000X0*%
%TD*%
%TA.AperFunction,SMDPad,CuDef*%
%ADD45RoundRect,0.250000X0.350000X0.450000X-0.350000X0.450000X-0.350000X-0.450000X0.350000X-0.450000X0*%
%TD*%
%TA.AperFunction,ViaPad*%
%ADD46C,0.600000*%
%TD*%
%TA.AperFunction,Conductor*%
%ADD47C,0.203200*%
%TD*%
%TA.AperFunction,Conductor*%
%ADD48C,0.200000*%
%TD*%
%TA.AperFunction,Conductor*%
%ADD49C,0.508000*%
%TD*%
G04 APERTURE END LIST*
D10*
%TO.P,C7,1,~_1*%
%TO.N,Net-(U1-VCAP1)*%
X126257100Y-79802900D03*
%TO.P,C7,2,~_2*%
%TO.N,GND*%
X126257100Y-77727900D03*
%TD*%
D11*
%TO.P,C8,1,~_1*%
%TO.N,+3.3V*%
X159683500Y-83732800D03*
%TO.P,C8,2,~_2*%
%TO.N,GND*%
X161758500Y-83732800D03*
%TD*%
D12*
%TO.P,C2,1,~_1*%
%TO.N,+3.3V*%
X123789400Y-78917800D03*
%TO.P,C2,2,~_2*%
%TO.N,GND*%
X121714400Y-78917800D03*
%TD*%
D13*
%TO.P,F1,1,~_1*%
%TO.N,Net-(F1-~-Pad1)*%
X104714000Y-82169000D03*
%TO.P,F1,2,~_2*%
%TO.N,Vusb*%
X108989000Y-82169000D03*
%TD*%
D14*
%TO.P,R1,1,~_1*%
%TO.N,Net-(D2-A)*%
X111118700Y-80153000D03*
%TO.P,R1,2,~_2*%
%TO.N,Vusb*%
X111118700Y-82153000D03*
%TD*%
D15*
%TO.P,U5,1,I/O1_1*%
%TO.N,/USB_D-*%
X111048000Y-89042200D03*
%TO.P,U5,2,GND_2*%
%TO.N,GND*%
X111048000Y-89992200D03*
%TO.P,U5,3,I/O2_3*%
%TO.N,/USB_D+*%
X111048000Y-90942200D03*
%TO.P,U5,4,I/O2_4*%
%TO.N,/CONN_D+*%
X113323000Y-90942200D03*
%TO.P,U5,5,VBUS_5*%
%TO.N,Vusb*%
X113323000Y-89992200D03*
%TO.P,U5,6,I/O1_6*%
%TO.N,/CONN_D-*%
X113323000Y-89042200D03*
%TD*%
D16*
%TO.P,U3,1,GND_1*%
%TO.N,GND*%
X136163500Y-65215800D03*
%TO.P,U3,2,VO_2*%
%TO.N,5V_REG*%
X136163500Y-62915800D03*
D17*
X129863500Y-62915800D03*
D16*
%TO.P,U3,3,VI_3*%
%TO.N,VM*%
X136163500Y-60615800D03*
%TD*%
D18*
%TO.P,S4,1*%
%TO.N,GND*%
X123155500Y-104394000D03*
%TO.P,S4,2*%
%TO.N,Net-(R2-~-Pad1)*%
X126155500Y-104394000D03*
%TO.P,S4,3*%
%TO.N,+3.3V*%
X127655500Y-104394000D03*
D19*
%TO.P,S4,SH1*%
%TO.N,N/C*%
X121605500Y-105419000D03*
%TO.P,S4,SH2*%
X129205500Y-105419000D03*
%TO.P,S4,SH3*%
X121605500Y-107519000D03*
%TO.P,S4,SH4*%
X129205500Y-107519000D03*
%TD*%
D16*
%TO.P,U6,1,GND_1*%
%TO.N,GND*%
X136188900Y-74055000D03*
%TO.P,U6,2,VO_2*%
%TO.N,+3.3V*%
X136188900Y-71755000D03*
D17*
X129888900Y-71755000D03*
D16*
%TO.P,U6,3,VI_3*%
%TO.N,+5V*%
X136188900Y-69455000D03*
%TD*%
D20*
%TO.P,R9,1,~_1*%
%TO.N,Net-(D4-A)*%
X125409500Y-75209400D03*
%TO.P,R9,2,~_2*%
%TO.N,/USER_LED*%
X127409500Y-75209400D03*
%TD*%
D21*
%TO.P,J4,1,Pin_1_1*%
%TO.N,GND*%
X105403700Y-76835000D03*
D22*
%TO.P,J4,2,Pin_2_2*%
%TO.N,/ESP_TX*%
X107943700Y-76835000D03*
%TO.P,J4,3,Pin_3_3*%
%TO.N,unconnected-(J4-Pin_3-Pad3)*%
X105403700Y-74295000D03*
%TO.P,J4,4,Pin_4_4*%
%TO.N,+3.3V*%
X107943700Y-74295000D03*
%TO.P,J4,5,Pin_5_5*%
%TO.N,Net-(J4-Pin_5)*%
X105403700Y-71755000D03*
%TO.P,J4,6,Pin_6_6*%
%TO.N,+3.3V*%
X107943700Y-71755000D03*
%TO.P,J4,7,Pin_7_7*%
%TO.N,/ESP_RX*%
X105403700Y-69215000D03*
%TO.P,J4,8,Pin_8_8*%
%TO.N,+3.3V*%
X107943700Y-69215000D03*
%TD*%
D23*
%TO.P,R8,1,~_1*%
%TO.N,Net-(J3-CC2)*%
X110866600Y-93014800D03*
%TO.P,R8,2,~_2*%
%TO.N,GND*%
X112691600Y-93014800D03*
%TD*%
D24*
%TO.P,U2,1,AO1_1*%
%TO.N,/MD_AO1*%
X161837300Y-81557100D03*
%TO.P,U2,2,AO1_2*%
X161837300Y-80907100D03*
%TO.P,U2,3,PGND1_3*%
%TO.N,GND*%
X161837300Y-80257100D03*
%TO.P,U2,4,PGND1_4*%
X161837300Y-79607100D03*
%TO.P,U2,5,AO2_5*%
%TO.N,/MD_AO2*%
X161837300Y-78957100D03*
%TO.P,U2,6,AO2_6*%
X161837300Y-78307100D03*
%TO.P,U2,7,BO2_7*%
%TO.N,/MD_BO2*%
X161837300Y-77657100D03*
%TO.P,U2,8,BO2_8*%
X161837300Y-77007100D03*
%TO.P,U2,9,PGND2_9*%
%TO.N,GND*%
X161837300Y-76357100D03*
%TO.P,U2,10,PGND2_10*%
X161837300Y-75707100D03*
%TO.P,U2,11,BO1_11*%
%TO.N,/MD_BO1*%
X161837300Y-75057100D03*
%TO.P,U2,12,BO1_12*%
X161837300Y-74407100D03*
%TO.P,U2,13,VM2_13*%
%TO.N,VM*%
X154837300Y-74407100D03*
%TO.P,U2,14,VM3_14*%
X154837300Y-75057100D03*
%TO.P,U2,15,PWMB_15*%
%TO.N,/MD_PWMB*%
X154837300Y-75707100D03*
%TO.P,U2,16,BIN2_16*%
%TO.N,/MD_BIN2*%
X154837300Y-76357100D03*
%TO.P,U2,17,BIN1_17*%
%TO.N,/MD_BIN1*%
X154837300Y-77007100D03*
%TO.P,U2,18,GND_18*%
%TO.N,GND*%
X154837300Y-77657100D03*
%TO.P,U2,19,STBY_19*%
%TO.N,/MD_STBY*%
X154837300Y-78307100D03*
%TO.P,U2,20,VCC_20*%
%TO.N,+3.3V*%
X154837300Y-78957100D03*
%TO.P,U2,21,AIN1_21*%
%TO.N,/MD_AIN1*%
X154837300Y-79607100D03*
%TO.P,U2,22,AIN2_22*%
%TO.N,/MD_AIN2*%
X154837300Y-80257100D03*
%TO.P,U2,23,PWMA_23*%
%TO.N,/MD_PWMA*%
X154837300Y-80907100D03*
%TO.P,U2,24,VM1_24*%
%TO.N,VM*%
X154837300Y-81557100D03*
%TD*%
D25*
%TO.P,D1,1,VDD_1*%
%TO.N,+5V*%
X147644900Y-90207000D03*
%TO.P,D1,2,DOUT_2*%
%TO.N,unconnected-(D1-DOUT-Pad2)*%
X150944900Y-90207000D03*
%TO.P,D1,3,VSS_3*%
%TO.N,GND*%
X150944900Y-85307000D03*
%TO.P,D1,4,DIN_4*%
%TO.N,/WS_DIN*%
X147644900Y-85307000D03*
%TD*%
D10*
%TO.P,C13,1,~_1*%
%TO.N,+5V*%
X138855500Y-69515900D03*
%TO.P,C13,2,~_2*%
%TO.N,GND*%
X138855500Y-67440900D03*
%TD*%
D26*
%TO.P,SW2,1,A_1*%
%TO.N,GND*%
X146294900Y-96672400D03*
%TO.P,SW2,2,B_2*%
%TO.N,/RESET*%
X139594900Y-96672400D03*
%TD*%
D27*
%TO.P,U1,1,VBAT_1*%
%TO.N,unconnected-(U1-VBAT-Pad1)*%
X135096300Y-91584400D03*
%TO.P,U1,2,PC13_2*%
%TO.N,/IMU_INT*%
X135096300Y-91084400D03*
%TO.P,U1,3,PC14_3*%
%TO.N,unconnected-(U1-PC14-Pad3)*%
X135096300Y-90584400D03*
%TO.P,U1,4,PC15_4*%
%TO.N,unconnected-(U1-PC15-Pad4)*%
X135096300Y-90084400D03*
%TO.P,U1,5,RCC_OSC_IN_5*%
%TO.N,/OSCIN*%
X135096300Y-89584400D03*
%TO.P,U1,6,RCC_OSC_OUT_6*%
%TO.N,/OSCOUT*%
X135096300Y-89084400D03*
%TO.P,U1,7,NRST_7*%
%TO.N,/RESET*%
X135096300Y-88584400D03*
%TO.P,U1,8,PC0_8*%
%TO.N,unconnected-(U1-PC0-Pad8)*%
X135096300Y-88084400D03*
%TO.P,U1,9,PC1_9*%
%TO.N,unconnected-(U1-PC1-Pad9)*%
X135096300Y-87584400D03*
%TO.P,U1,10,PC2_10*%
%TO.N,unconnected-(U1-PC2-Pad10)*%
X135096300Y-87084400D03*
%TO.P,U1,11,PC3_11*%
%TO.N,unconnected-(U1-PC3-Pad11)*%
X135096300Y-86584400D03*
%TO.P,U1,12,VSSA_12*%
%TO.N,GND*%
X135096300Y-86084400D03*
%TO.P,U1,13,VREF+_13*%
%TO.N,+3.3V*%
X135096300Y-85584400D03*
%TO.P,U1,14,TIM5_CH1_14*%
%TO.N,/WS_DIN*%
X135096300Y-85084400D03*
%TO.P,U1,15,TIM2_CH2_15*%
%TO.N,/MD_PWMA*%
X135096300Y-84584400D03*
%TO.P,U1,16,PA2_16*%
%TO.N,/MD_AIN2*%
X135096300Y-84084400D03*
D28*
%TO.P,U1,17,PA3_17*%
%TO.N,/MD_AIN1*%
X133171300Y-82159400D03*
%TO.P,U1,18,VSS_18*%
%TO.N,GND*%
X132671300Y-82159400D03*
%TO.P,U1,19,VDD_19*%
%TO.N,+3.3V*%
X132171300Y-82159400D03*
%TO.P,U1,20,PA4_20*%
%TO.N,/MD_STBY*%
X131671300Y-82159400D03*
%TO.P,U1,21,TIM2_CH1_21*%
%TO.N,/MD_PWMB*%
X131171300Y-82159400D03*
%TO.P,U1,22,PA6_22*%
%TO.N,/MD_BIN1*%
X130671300Y-82159400D03*
%TO.P,U1,23,PA7_23*%
%TO.N,/MD_BIN2*%
X130171300Y-82159400D03*
%TO.P,U1,24,PC4_24*%
%TO.N,unconnected-(U1-PC4-Pad24)*%
X129671300Y-82159400D03*
%TO.P,U1,25,PC5_25*%
%TO.N,unconnected-(U1-PC5-Pad25)*%
X129171300Y-82159400D03*
%TO.P,U1,26,PB0_26*%
%TO.N,unconnected-(U1-PB0-Pad26)*%
X128671300Y-82159400D03*
%TO.P,U1,27,PB1_27*%
%TO.N,/USER_LED*%
X128171300Y-82159400D03*
%TO.P,U1,28,PB2_28*%
%TO.N,GND*%
X127671300Y-82159400D03*
%TO.P,U1,29,PB10_29*%
%TO.N,unconnected-(U1-PB10-Pad29)*%
X127171300Y-82159400D03*
%TO.P,U1,30,VCAP1_30*%
%TO.N,Net-(U1-VCAP1)*%
X126671300Y-82159400D03*
%TO.P,U1,31,VSS_31*%
%TO.N,GND*%
X126171300Y-82159400D03*
%TO.P,U1,32,VDD_32*%
%TO.N,+3.3V*%
X125671300Y-82159400D03*
D27*
%TO.P,U1,33,PB12_33*%
%TO.N,unconnected-(U1-PB12-Pad33)*%
X123746300Y-84084400D03*
%TO.P,U1,34,PB13_34*%
%TO.N,unconnected-(U1-PB13-Pad34)*%
X123746300Y-84584400D03*
%TO.P,U1,35,PB14_35*%
%TO.N,unconnected-(U1-PB14-Pad35)*%
X123746300Y-85084400D03*
%TO.P,U1,36,PB15_36*%
%TO.N,unconnected-(U1-PB15-Pad36)*%
X123746300Y-85584400D03*
%TO.P,U1,37,PC6_37*%
%TO.N,/MT_PWM*%
X123746300Y-86084400D03*
%TO.P,U1,38,PC7_38*%
%TO.N,unconnected-(U1-PC7-Pad38)*%
X123746300Y-86584400D03*
%TO.P,U1,39,PC8_39*%
%TO.N,unconnected-(U1-PC8-Pad39)*%
X123746300Y-87084400D03*
%TO.P,U1,40,I2C3_SDA_40*%
%TO.N,/MT_SDA*%
X123746300Y-87584400D03*
%TO.P,U1,41,I2C3_SCL_41*%
%TO.N,/MT_SCL*%
X123746300Y-88084400D03*
%TO.P,U1,42,USART1_TX_42*%
%TO.N,/ESP_RX*%
X123746300Y-88584400D03*
%TO.P,U1,43,USART1_RX_43*%
%TO.N,/ESP_TX*%
X123746300Y-89084400D03*
%TO.P,U1,44,USB_OTG_FS_DM_44*%
%TO.N,/ESD_D-*%
X123746300Y-89584400D03*
%TO.P,U1,45,USB_OTG_FS_DP_45*%
%TO.N,/ESD_D+*%
X123746300Y-90084400D03*
%TO.P,U1,46,SYS_JTMS-SWDIO_46*%
%TO.N,/SWDIO*%
X123746300Y-90584400D03*
%TO.P,U1,47,VSS_47*%
%TO.N,GND*%
X123746300Y-91084400D03*
%TO.P,U1,48,VDD_48*%
%TO.N,+3.3V*%
X123746300Y-91584400D03*
D28*
%TO.P,U1,49,SYS_JTCK-SWCLK_49*%
%TO.N,/SWCLK*%
X125671300Y-93509400D03*
%TO.P,U1,50,PA15_50*%
%TO.N,unconnected-(U1-PA15-Pad50)*%
X126171300Y-93509400D03*
%TO.P,U1,51,PC10_51*%
%TO.N,unconnected-(U1-PC10-Pad51)*%
X126671300Y-93509400D03*
%TO.P,U1,52,PC11_52*%
%TO.N,unconnected-(U1-PC11-Pad52)*%
X127171300Y-93509400D03*
%TO.P,U1,53,PC12_53*%
%TO.N,unconnected-(U1-PC12-Pad53)*%
X127671300Y-93509400D03*
%TO.P,U1,54,PD2_54*%
%TO.N,unconnected-(U1-PD2-Pad54)*%
X128171300Y-93509400D03*
%TO.P,U1,55,PB3_55*%
%TO.N,unconnected-(U1-PB3-Pad55)*%
X128671300Y-93509400D03*
%TO.P,U1,56,PB4_56*%
%TO.N,unconnected-(U1-PB4-Pad56)*%
X129171300Y-93509400D03*
%TO.P,U1,57,PB5_57*%
%TO.N,unconnected-(U1-PB5-Pad57)*%
X129671300Y-93509400D03*
%TO.P,U1,58,PB6_58*%
%TO.N,/ENC_B*%
X130171300Y-93509400D03*
%TO.P,U1,59,PB7_59*%
%TO.N,/ENC_A*%
X130671300Y-93509400D03*
%TO.P,U1,60,BOOT0_60*%
%TO.N,/BOOT0*%
X131171300Y-93509400D03*
%TO.P,U1,61,I2C1_SCL_61*%
%TO.N,/IMU_SCL*%
X131671300Y-93509400D03*
%TO.P,U1,62,I2C1_SDA_62*%
%TO.N,/IMU_SDA*%
X132171300Y-93509400D03*
%TO.P,U1,63,VSS_63*%
%TO.N,GND*%
X132671300Y-93509400D03*
%TO.P,U1,64,VDD_64*%
%TO.N,+3.3V*%
X133171300Y-93509400D03*
%TD*%
D11*
%TO.P,C3,1,~_1*%
%TO.N,+3.3V*%
X132915800Y-79883000D03*
%TO.P,C3,2,~_2*%
%TO.N,GND*%
X134990800Y-79883000D03*
%TD*%
D29*
%TO.P,D3,1,K_1*%
%TO.N,GND*%
X125114100Y-72678400D03*
%TO.P,D3,2,A_2*%
%TO.N,Net-(D3-A)*%
X125114100Y-70628400D03*
%TD*%
D30*
%TO.P,Y3,1,1_1*%
%TO.N,/OSCIN*%
X144493400Y-90839500D03*
%TO.P,Y3,2,2_2*%
%TO.N,GND*%
X144493400Y-88639500D03*
%TO.P,Y3,3,3_3*%
%TO.N,/OSCOUT*%
X142793400Y-88639500D03*
%TO.P,Y3,4,4_4*%
%TO.N,GND*%
X142793400Y-90839500D03*
%TD*%
D31*
%TO.P,C22,1,~_1*%
%TO.N,5V_REG*%
X141217700Y-63203000D03*
%TO.P,C22,2,~_2*%
%TO.N,GND*%
X141217700Y-65278000D03*
%TD*%
D32*
%TO.P,J7,1,Pin_1_1*%
%TO.N,/MD_BO1*%
X158794500Y-60731400D03*
D33*
%TO.P,J7,2,Pin_2_2*%
%TO.N,/MD_BO2*%
X161294500Y-60731400D03*
%TD*%
D34*
%TO.P,D5,1,K_1*%
%TO.N,GND*%
X125536900Y-59969400D03*
%TO.P,D5,2,A_2*%
%TO.N,Net-(D5-A)*%
X127586900Y-59969400D03*
%TD*%
D20*
%TO.P,R2,1,~_1*%
%TO.N,Net-(R2-~-Pad1)*%
X126146100Y-102184200D03*
%TO.P,R2,2,~_2*%
%TO.N,/BOOT0*%
X128146100Y-102184200D03*
%TD*%
D21*
%TO.P,J1,1,Pin_1_1*%
%TO.N,+3.3V*%
X103397100Y-106400600D03*
D22*
%TO.P,J1,2,Pin_2_2*%
%TO.N,/SWCLK*%
X103397100Y-103860600D03*
%TO.P,J1,3,Pin_3_3*%
%TO.N,GND*%
X103397100Y-101320600D03*
%TO.P,J1,4,Pin_4_4*%
%TO.N,/SWDIO*%
X103397100Y-98780600D03*
%TD*%
D14*
%TO.P,R10,1,~_1*%
%TO.N,Net-(D5-A)*%
X127450900Y-62195200D03*
%TO.P,R10,2,~_2*%
%TO.N,5V_REG*%
X127450900Y-64195200D03*
%TD*%
%TO.P,R6,1,~_1*%
%TO.N,Net-(D3-A)*%
X127374700Y-70628000D03*
%TO.P,R6,2,~_2*%
%TO.N,+3.3V*%
X127374700Y-72628000D03*
%TD*%
D34*
%TO.P,D4,1,K_1*%
%TO.N,GND*%
X121396700Y-75184000D03*
%TO.P,D4,2,A_2*%
%TO.N,Net-(D4-A)*%
X123446700Y-75184000D03*
%TD*%
D18*
%TO.P,S3,1*%
%TO.N,5V_REG*%
X147136034Y-67385209D03*
%TO.P,S3,2*%
%TO.N,+5V*%
X150136034Y-67385209D03*
%TO.P,S3,3*%
%TO.N,Vusb*%
X151636034Y-67385209D03*
D19*
%TO.P,S3,SH1*%
%TO.N,N/C*%
X145586034Y-68410209D03*
%TO.P,S3,SH2*%
X153186034Y-68410209D03*
%TO.P,S3,SH3*%
X145586034Y-70510209D03*
%TO.P,S3,SH4*%
X153186034Y-70510209D03*
%TD*%
D29*
%TO.P,D2,1,K_1*%
%TO.N,GND*%
X113328500Y-82178000D03*
%TO.P,D2,2,A_2*%
%TO.N,Net-(D2-A)*%
X113328500Y-80128000D03*
%TD*%
D31*
%TO.P,C14,1,~_1*%
%TO.N,+3.3V*%
X138906300Y-71885900D03*
%TO.P,C14,2,~_2*%
%TO.N,GND*%
X138906300Y-73960900D03*
%TD*%
D20*
%TO.P,R3,1,~_1*%
%TO.N,/CONN_D-*%
X118018100Y-88976200D03*
%TO.P,R3,2,~_2*%
%TO.N,/ESD_D-*%
X120018100Y-88976200D03*
%TD*%
D12*
%TO.P,C25,1,~_1*%
%TO.N,+3.3V*%
X123789400Y-81127600D03*
%TO.P,C25,2,~_2*%
%TO.N,GND*%
X121714400Y-81127600D03*
%TD*%
D10*
%TO.P,C17,1,~_1*%
%TO.N,VM*%
X141243100Y-60067100D03*
%TO.P,C17,2,~_2*%
%TO.N,GND*%
X141243100Y-57992100D03*
%TD*%
D12*
%TO.P,C26,1,~_1*%
%TO.N,GND*%
X150256200Y-92532200D03*
%TO.P,C26,2,~_2*%
%TO.N,+5V*%
X148181200Y-92532200D03*
%TD*%
D35*
%TO.P,J5,1,Pin_1_1*%
%TO.N,VM*%
X150499500Y-61442600D03*
D33*
%TO.P,J5,2,Pin_2_2*%
%TO.N,GND*%
X147999500Y-61442600D03*
%TD*%
D10*
%TO.P,C18,1,~_1*%
%TO.N,VM*%
X138804700Y-60041700D03*
%TO.P,C18,2,~_2*%
%TO.N,GND*%
X138804700Y-57966700D03*
%TD*%
D31*
%TO.P,C20,1,~_1*%
%TO.N,GND*%
X140372700Y-86392600D03*
%TO.P,C20,2,~_2*%
%TO.N,/OSCOUT*%
X140372700Y-88467600D03*
%TD*%
D11*
%TO.P,C6,1,~_1*%
%TO.N,VM*%
X155445600Y-83718400D03*
%TO.P,C6,2,~_2*%
%TO.N,GND*%
X157520600Y-83718400D03*
%TD*%
D32*
%TO.P,J6,1,Pin_1_1*%
%TO.N,/MD_AO1*%
X158916100Y-104961200D03*
D33*
%TO.P,J6,2,Pin_2_2*%
%TO.N,/MD_AO2*%
X161416100Y-104961200D03*
%TD*%
D31*
%TO.P,C23,1,~_1*%
%TO.N,5V_REG*%
X138855500Y-63275300D03*
%TO.P,C23,2,~_2*%
%TO.N,GND*%
X138855500Y-65350300D03*
%TD*%
D36*
%TO.P,J9,1,Pin_1_1*%
%TO.N,+3.3V*%
X113337043Y-65425082D03*
D37*
%TO.P,J9,2,Pin_2_2*%
%TO.N,GND*%
X115837043Y-65425082D03*
%TO.P,J9,3,Pin_3_3*%
%TO.N,/MT_PWM*%
X118337043Y-65425082D03*
%TO.P,J9,4,Pin_4_4*%
%TO.N,/MT_SCL*%
X120837043Y-65425082D03*
%TO.P,J9,5,Pin_5_5*%
%TO.N,/MT_SDA*%
X123337043Y-65425082D03*
%TD*%
D38*
%TO.P,J3,A1,GND_A1*%
%TO.N,GND*%
X107515900Y-86784400D03*
%TO.P,J3,A4,VBUS_A4*%
%TO.N,Net-(F1-~-Pad1)*%
X107515900Y-87584400D03*
D39*
%TO.P,J3,A5,CC1_A5*%
%TO.N,Net-(J3-CC1)*%
X107515900Y-88734400D03*
%TO.P,J3,A6,D+_A6*%
%TO.N,/USB_D+*%
X107515900Y-89734400D03*
%TO.P,J3,A7,D-_A7*%
%TO.N,/USB_D-*%
X107515900Y-90234400D03*
%TO.P,J3,A8*%
%TO.N,N/C*%
X107515900Y-91234400D03*
D38*
%TO.P,J3,A9,VBUS_A9*%
%TO.N,Net-(F1-~-Pad1)*%
X107515900Y-92384400D03*
%TO.P,J3,A12,GND_A12*%
%TO.N,GND*%
X107515900Y-93184400D03*
%TO.P,J3,B1,GND_B1*%
X107515900Y-93184400D03*
%TO.P,J3,B4,VBUS_B4*%
%TO.N,Net-(F1-~-Pad1)*%
X107515900Y-92384400D03*
D39*
%TO.P,J3,B5,CC2_B5*%
%TO.N,Net-(J3-CC2)*%
X107515900Y-91734400D03*
%TO.P,J3,B6,D+_B6*%
%TO.N,/USB_D+*%
X107515900Y-90734400D03*
%TO.P,J3,B7,D-_B7*%
%TO.N,/USB_D-*%
X107515900Y-89234400D03*
%TO.P,J3,B8*%
%TO.N,N/C*%
X107515900Y-88234400D03*
D38*
%TO.P,J3,B9,VBUS_B9*%
%TO.N,Net-(F1-~-Pad1)*%
X107515900Y-87584400D03*
%TO.P,J3,B12,GND_B12*%
%TO.N,GND*%
X107515900Y-86784400D03*
D40*
%TO.P,J3,SH,SHIELD_SH*%
X106875900Y-85664400D03*
D41*
X102695900Y-85664400D03*
D40*
X106875900Y-94304400D03*
D41*
X102695900Y-94304400D03*
%TD*%
D10*
%TO.P,C19,1,~_1*%
%TO.N,GND*%
X140372700Y-92404600D03*
%TO.P,C19,2,~_2*%
%TO.N,/OSCIN*%
X140372700Y-90329600D03*
%TD*%
D21*
%TO.P,J2,1,Pin_1_1*%
%TO.N,+5V*%
X134512100Y-107365800D03*
D22*
%TO.P,J2,2,Pin_2_2*%
%TO.N,GND*%
X137052100Y-107365800D03*
%TO.P,J2,3,Pin_3_3*%
%TO.N,/IMU_SCL*%
X139592100Y-107365800D03*
%TO.P,J2,4,Pin_4_4*%
%TO.N,/IMU_SDA*%
X142132100Y-107365800D03*
%TO.P,J2,5,Pin_5_5*%
%TO.N,unconnected-(J2-Pin_5-Pad5)*%
X144672100Y-107365800D03*
%TO.P,J2,6,Pin_6_6*%
%TO.N,unconnected-(J2-Pin_6-Pad6)*%
X147212100Y-107365800D03*
%TO.P,J2,7,Pin_7_7*%
%TO.N,unconnected-(J2-Pin_7-Pad7)*%
X149752100Y-107365800D03*
%TO.P,J2,8,Pin_8_8*%
%TO.N,/IMU_INT*%
X152292100Y-107365800D03*
%TD*%
D11*
%TO.P,C4,1,~_1*%
%TO.N,+3.3V*%
X133398400Y-95885000D03*
%TO.P,C4,2,~_2*%
%TO.N,GND*%
X135473400Y-95885000D03*
%TD*%
D31*
%TO.P,C1,1,~_1*%
%TO.N,+3.3V*%
X122456900Y-93127500D03*
%TO.P,C1,2,~_2*%
%TO.N,GND*%
X122456900Y-95202500D03*
%TD*%
D42*
%TO.P,C9,1*%
%TO.N,VM*%
X155977800Y-87079300D03*
%TO.P,C9,2*%
%TO.N,GND*%
X161092800Y-87079300D03*
%TD*%
D20*
%TO.P,R4,1,~_1*%
%TO.N,/CONN_D+*%
X118018100Y-91033600D03*
%TO.P,R4,2,~_2*%
%TO.N,/ESD_D+*%
X120018100Y-91033600D03*
%TD*%
D31*
%TO.P,C24,1,~_1*%
%TO.N,+3.3V*%
X137483900Y-85932100D03*
%TO.P,C24,2,~_2*%
%TO.N,GND*%
X137483900Y-88007100D03*
%TD*%
D43*
%TO.P,R7,1,~_1*%
%TO.N,GND*%
X112691600Y-87045800D03*
%TO.P,R7,2,~_2*%
%TO.N,Net-(J3-CC1)*%
X110866600Y-87045800D03*
%TD*%
D10*
%TO.P,C15,1,~_1*%
%TO.N,+5V*%
X141116100Y-69490500D03*
%TO.P,C15,2,~_2*%
%TO.N,GND*%
X141116100Y-67415500D03*
%TD*%
D44*
%TO.P,J8,1,Pin_1_1*%
%TO.N,+3.3V*%
X116753700Y-102412800D03*
D37*
%TO.P,J8,2,Pin_2_2*%
%TO.N,/ENC_A*%
X114253700Y-102412800D03*
%TO.P,J8,3,Pin_3_3*%
%TO.N,/ENC_B*%
X111753700Y-102412800D03*
%TO.P,J8,4,Pin_4_4*%
%TO.N,GND*%
X109253700Y-102412800D03*
%TD*%
D31*
%TO.P,C16,1,~_1*%
%TO.N,+3.3V*%
X141217700Y-71864400D03*
%TO.P,C16,2,~_2*%
%TO.N,GND*%
X141217700Y-73939400D03*
%TD*%
D45*
%TO.P,R17,1,~_1*%
%TO.N,+3.3V*%
X106505300Y-65659000D03*
%TO.P,R17,2,~_2*%
%TO.N,Net-(J4-Pin_5)*%
X104505300Y-65659000D03*
%TD*%
D11*
%TO.P,C21,1,~_1*%
%TO.N,/RESET*%
X139545200Y-99923600D03*
%TO.P,C21,2,~_2*%
%TO.N,GND*%
X141620200Y-99923600D03*
%TD*%
D46*
%TO.N,GND*%
X133470900Y-67066800D03*
X119970900Y-81566800D03*
X124970900Y-77066800D03*
X124470900Y-58566800D03*
X123470900Y-73066800D03*
X160111200Y-75707100D03*
X116970900Y-63066800D03*
X160470900Y-80066800D03*
X136970900Y-97066800D03*
X138804700Y-58954200D03*
X127970900Y-83566800D03*
X163470900Y-85066800D03*
X121970900Y-103066800D03*
X136970900Y-79566800D03*
X141243100Y-58979600D03*
X124970900Y-91066800D03*
X119970900Y-75066800D03*
X138970900Y-86066800D03*
X152561200Y-77657100D03*
X109470900Y-90066800D03*
X150970900Y-94566800D03*
X112970900Y-85566800D03*
X157470900Y-85066800D03*
X120470900Y-96066800D03*
X114970900Y-83066800D03*
X131970900Y-76066800D03*
X112470900Y-94066800D03*
X138970900Y-92566800D03*
X120470900Y-79066800D03*
X125970900Y-83566800D03*
X142470900Y-101066800D03*
X147970900Y-97066800D03*
X103470900Y-91566800D03*
X145970900Y-88566800D03*
X151970900Y-83566800D03*
%TO.N,+3.3V*%
X120470900Y-100066800D03*
X134470900Y-94066800D03*
X145470900Y-73066800D03*
X143970900Y-79066800D03*
X136470900Y-81066800D03*
X152970900Y-79005500D03*
X119870900Y-96966800D03*
X132970900Y-84066800D03*
X157090500Y-80066800D03*
X155470900Y-73066800D03*
X157970900Y-73066800D03*
X130970900Y-97066800D03*
X122470900Y-101566800D03*
%TO.N,VM*%
X152470900Y-86566800D03*
X151970900Y-74566800D03*
X147970900Y-76066800D03*
X155970900Y-70066800D03*
%TO.N,+5V*%
X149970900Y-103066800D03*
X140077396Y-104460304D03*
X134970900Y-105566800D03*
X147970900Y-103066800D03*
%TO.N,/MD_PWMB*%
X149970900Y-78908700D03*
X149970900Y-76405500D03*
%TO.N,/MD_AIN1*%
X146470900Y-81066800D03*
X148470900Y-82066800D03*
%TO.N,/WS_DIN*%
X149470900Y-85757000D03*
X149470900Y-87066800D03*
%TO.N,/SWCLK*%
X124970900Y-96566800D03*
X123970900Y-98668400D03*
%TD*%
%TO.N,Net-(U1-VCAP1)*%
D47*
X126257100Y-79802900D02*
X126671300Y-80217100D01*
X126671300Y-80217100D02*
X126671300Y-82159400D01*
%TO.N,GND*%
D48*
X107515900Y-93664400D02*
X106875900Y-94304400D01*
X124953300Y-91084400D02*
X124970900Y-91066800D01*
X142793400Y-90839500D02*
X141937800Y-90839500D01*
D47*
X122456900Y-95202500D02*
X121335200Y-95202500D01*
D48*
X102695900Y-85664400D02*
X102695900Y-91566800D01*
D47*
X126257100Y-77727900D02*
X125632000Y-77727900D01*
D48*
X107515900Y-93184400D02*
X107515900Y-93664400D01*
X115837043Y-64200657D02*
X116970900Y-63066800D01*
X145898200Y-88639500D02*
X145970900Y-88566800D01*
X126171300Y-83366400D02*
X125970900Y-83566800D01*
D49*
X138804700Y-57966700D02*
X138804700Y-58954200D01*
D48*
X135903710Y-86084400D02*
X137483900Y-87664590D01*
X159970900Y-75566800D02*
X160111200Y-75707100D01*
X138758200Y-88007100D02*
X140372700Y-86392600D01*
X137483900Y-87664590D02*
X137483900Y-88007100D01*
X137483900Y-88007100D02*
X138758200Y-88007100D01*
X133807000Y-81066800D02*
X134990800Y-79883000D01*
X132671300Y-81351990D02*
X132956490Y-81066800D01*
X147576500Y-96672400D02*
X147970900Y-97066800D01*
X109545500Y-89992200D02*
X109470900Y-90066800D01*
X127671300Y-83267200D02*
X127970900Y-83566800D01*
D47*
X112691600Y-93846100D02*
X112470900Y-94066800D01*
X120619900Y-78917800D02*
X120470900Y-79066800D01*
X132980692Y-97066800D02*
X134291600Y-97066800D01*
X135789100Y-95885000D02*
X136970900Y-97066800D01*
D48*
X125536900Y-59632800D02*
X124470900Y-58566800D01*
D47*
X121396700Y-75184000D02*
X120088100Y-75184000D01*
X112691600Y-85846100D02*
X112970900Y-85566800D01*
X160661200Y-80257100D02*
X160470900Y-80066800D01*
X121335200Y-95202500D02*
X120470900Y-96066800D01*
D48*
X152470900Y-77566800D02*
X152561200Y-77657100D01*
D47*
X132509300Y-95174592D02*
X132509300Y-96595408D01*
X150256200Y-92532200D02*
X150256200Y-93852100D01*
D48*
X111048000Y-89992200D02*
X109545500Y-89992200D01*
X161837300Y-75707100D02*
X161837300Y-76357100D01*
D47*
X151970900Y-84281000D02*
X151970900Y-83566800D01*
D48*
X102695900Y-91566800D02*
X103470900Y-91566800D01*
X126171300Y-82159400D02*
X126171300Y-83366400D01*
D47*
X150944900Y-85307000D02*
X151970900Y-84281000D01*
X121714400Y-78917800D02*
X120619900Y-78917800D01*
X157520600Y-83718400D02*
X157520600Y-85017100D01*
D48*
X123155500Y-104394000D02*
X123155500Y-104251400D01*
D47*
X157520600Y-85017100D02*
X157470900Y-85066800D01*
D48*
X161092800Y-87079300D02*
X161458400Y-87079300D01*
X106875900Y-85664400D02*
X106875900Y-86144400D01*
D47*
X112691600Y-93014800D02*
X112691600Y-93846100D01*
X132671300Y-93509400D02*
X132671300Y-95012592D01*
D48*
X146294900Y-96672400D02*
X147576500Y-96672400D01*
D47*
X123859300Y-72678400D02*
X123470900Y-73066800D01*
X161837300Y-80257100D02*
X160661200Y-80257100D01*
X162136900Y-83732800D02*
X163470900Y-85066800D01*
D48*
X140372700Y-92404600D02*
X139133100Y-92404600D01*
X133982700Y-74055000D02*
X131970900Y-76066800D01*
D47*
X161758500Y-83732800D02*
X162136900Y-83732800D01*
X112691600Y-87045800D02*
X112691600Y-85846100D01*
D48*
X141937800Y-90839500D02*
X140372700Y-92404600D01*
X136163500Y-65215800D02*
X135321900Y-65215800D01*
D47*
X120088100Y-75184000D02*
X119970900Y-75066800D01*
D48*
X115837043Y-65425082D02*
X115837043Y-64200657D01*
X161458400Y-87079300D02*
X163470900Y-85066800D01*
D47*
X125114100Y-72678400D02*
X123859300Y-72678400D01*
D48*
X132671300Y-82159400D02*
X132671300Y-81351990D01*
X141620200Y-100216100D02*
X142470900Y-101066800D01*
X106875900Y-85664400D02*
X102695900Y-85664400D01*
D47*
X113328500Y-82178000D02*
X114082100Y-82178000D01*
X150256200Y-93852100D02*
X150970900Y-94566800D01*
D48*
X154837300Y-77657100D02*
X152561200Y-77657100D01*
D47*
X161837300Y-79607100D02*
X161837300Y-80257100D01*
D48*
X106875900Y-94304400D02*
X102695900Y-94304400D01*
X102695900Y-91566800D02*
X102695900Y-94304400D01*
D47*
X136654700Y-79883000D02*
X136970900Y-79566800D01*
X132671300Y-95012592D02*
X132509300Y-95174592D01*
D48*
X139296700Y-86392600D02*
X138970900Y-86066800D01*
D47*
X120410100Y-81127600D02*
X119970900Y-81566800D01*
X121714400Y-81127600D02*
X120410100Y-81127600D01*
D48*
X127671300Y-82159400D02*
X127671300Y-83267200D01*
X141620200Y-99923600D02*
X141620200Y-100216100D01*
X136188900Y-74055000D02*
X133982700Y-74055000D01*
D47*
X114082100Y-82178000D02*
X114970900Y-83066800D01*
X125632000Y-77727900D02*
X124970900Y-77066800D01*
D48*
X106875900Y-86144400D02*
X107515900Y-86784400D01*
D47*
X134291600Y-97066800D02*
X135473400Y-95885000D01*
D48*
X123155500Y-104251400D02*
X121970900Y-103066800D01*
D47*
X134990800Y-79883000D02*
X136654700Y-79883000D01*
D48*
X123746300Y-91084400D02*
X124953300Y-91084400D01*
X135096300Y-86084400D02*
X135903710Y-86084400D01*
X125536900Y-59969400D02*
X125536900Y-59632800D01*
X132956490Y-81066800D02*
X133807000Y-81066800D01*
X144493400Y-88639500D02*
X145898200Y-88639500D01*
X161837300Y-75707100D02*
X160111200Y-75707100D01*
D47*
X135473400Y-95885000D02*
X135789100Y-95885000D01*
X132509300Y-96595408D02*
X132980692Y-97066800D01*
D48*
X139133100Y-92404600D02*
X138970900Y-92566800D01*
X140372700Y-86392600D02*
X139296700Y-86392600D01*
X135321900Y-65215800D02*
X133470900Y-67066800D01*
D49*
X141243100Y-57992100D02*
X141243100Y-58979600D01*
%TO.N,+3.3V*%
D47*
X132915800Y-79883000D02*
X132171300Y-80627500D01*
D48*
X120470900Y-100066800D02*
X118124900Y-102412800D01*
D47*
X132171300Y-80627500D02*
X132171300Y-82159400D01*
D48*
X125736844Y-76466800D02*
X126509500Y-75694144D01*
D47*
X113337043Y-65425082D02*
X113748684Y-65425082D01*
D48*
X147470900Y-73066800D02*
X155470900Y-73066800D01*
X146268500Y-71864400D02*
X147470900Y-73066800D01*
X144970900Y-73066800D02*
X145470900Y-73066800D01*
X138520900Y-71755000D02*
X136188900Y-71755000D01*
X132970900Y-84566800D02*
X132970900Y-84066800D01*
X123789400Y-78917800D02*
X123789400Y-77399771D01*
X143970900Y-71864400D02*
X143970900Y-72066800D01*
X133940800Y-78858000D02*
X132915800Y-79883000D01*
D47*
X107943700Y-69094000D02*
X107970900Y-69066800D01*
X127655500Y-104572200D02*
X126907100Y-105320600D01*
D48*
X119970900Y-97066800D02*
X119870900Y-96966800D01*
D47*
X125403900Y-105320600D02*
X124470900Y-104387600D01*
D48*
X157970900Y-80947200D02*
X159683500Y-82659800D01*
X125370900Y-82459800D02*
X125370900Y-83815329D01*
D47*
X126548500Y-71801800D02*
X127374700Y-72628000D01*
X133398400Y-95885000D02*
X134470900Y-94812500D01*
D48*
X135096300Y-85584400D02*
X137136200Y-85584400D01*
D47*
X127655500Y-104394000D02*
X127655500Y-104572200D01*
D48*
X135096300Y-85584400D02*
X133988500Y-85584400D01*
X141217700Y-71864400D02*
X143970900Y-71864400D01*
D47*
X107943700Y-74295000D02*
X107943700Y-71755000D01*
X107943700Y-71755000D02*
X107943700Y-71594000D01*
D48*
X137570900Y-79966800D02*
X137570900Y-79318271D01*
D47*
X130970900Y-101078600D02*
X127655500Y-104394000D01*
X122130769Y-62465200D02*
X124488643Y-64823074D01*
D48*
X118124900Y-102412800D02*
X116753700Y-102412800D01*
X137110629Y-78858000D02*
X133940800Y-78858000D01*
D47*
X134470900Y-94812500D02*
X134470900Y-94066800D01*
D48*
X122456900Y-93127500D02*
X119870900Y-95713500D01*
D47*
X124488643Y-64823074D02*
X124488643Y-69691849D01*
X106505300Y-67776600D02*
X106505300Y-65659000D01*
X124470900Y-104387600D02*
X124470900Y-103566800D01*
D48*
X122456900Y-92873800D02*
X122456900Y-93127500D01*
D47*
X107943700Y-71539600D02*
X107943700Y-69215000D01*
D48*
X125671300Y-82159400D02*
X125370900Y-82459800D01*
X103397100Y-106400600D02*
X102247100Y-105250600D01*
X153019300Y-78957100D02*
X152970900Y-79005500D01*
X102920754Y-102710600D02*
X103873446Y-102710600D01*
D47*
X116708566Y-62465200D02*
X122130769Y-62465200D01*
D48*
X157090500Y-80066800D02*
X157970900Y-80947200D01*
D47*
X124112500Y-71208400D02*
X124705900Y-71801800D01*
D48*
X143970900Y-79066800D02*
X143762100Y-78858000D01*
X123789400Y-77399771D02*
X124722371Y-76466800D01*
X143762100Y-78858000D02*
X137110629Y-78858000D01*
D47*
X106505300Y-65659000D02*
X107378700Y-65659000D01*
D48*
X126509500Y-73493200D02*
X127374700Y-72628000D01*
X126509500Y-75694144D02*
X126509500Y-73493200D01*
X102247100Y-103384254D02*
X102920754Y-102710600D01*
X125722371Y-84166800D02*
X132870900Y-84166800D01*
X125370900Y-83815329D02*
X125722371Y-84166800D01*
X115075500Y-104091000D02*
X116753700Y-102412800D01*
X105253846Y-104091000D02*
X115075500Y-104091000D01*
X119870900Y-95713500D02*
X119870900Y-96966800D01*
X132870900Y-84166800D02*
X132970900Y-84066800D01*
D47*
X107943700Y-71594000D02*
X107970900Y-71566800D01*
X107378700Y-65659000D02*
X107612618Y-65425082D01*
D48*
X137136200Y-85584400D02*
X137483900Y-85932100D01*
D47*
X124470900Y-103566800D02*
X122470900Y-101566800D01*
D48*
X138651800Y-71885900D02*
X138520900Y-71755000D01*
X129015900Y-72628000D02*
X129888900Y-71755000D01*
X143970900Y-72066800D02*
X144970900Y-73066800D01*
D47*
X124705900Y-71801800D02*
X126548500Y-71801800D01*
X107943700Y-69215000D02*
X107943700Y-69094000D01*
X133171300Y-93509400D02*
X133171300Y-86401600D01*
X113748684Y-65425082D02*
X116708566Y-62465200D01*
X124112500Y-70067992D02*
X124112500Y-71208400D01*
X133171300Y-93509400D02*
X133171300Y-95657900D01*
D48*
X123746300Y-91584400D02*
X122456900Y-92873800D01*
D47*
X133171300Y-86401600D02*
X133988500Y-85584400D01*
X107943700Y-69215000D02*
X106505300Y-67776600D01*
D48*
X123789400Y-81127600D02*
X124639500Y-81127600D01*
X127374700Y-72628000D02*
X129015900Y-72628000D01*
X136470900Y-81066800D02*
X137570900Y-79966800D01*
D47*
X107970900Y-71566800D02*
X107943700Y-71539600D01*
D48*
X124639500Y-81127600D02*
X125671300Y-82159400D01*
X123789400Y-81127600D02*
X123789400Y-78917800D01*
X141217700Y-71864400D02*
X138927800Y-71864400D01*
X138906300Y-71885900D02*
X138651800Y-71885900D01*
D47*
X126907100Y-105320600D02*
X125403900Y-105320600D01*
D48*
X143970900Y-71864400D02*
X146268500Y-71864400D01*
X137570900Y-79318271D02*
X137110629Y-78858000D01*
X159683500Y-82659800D02*
X159683500Y-83732800D01*
D47*
X133171300Y-95657900D02*
X133398400Y-95885000D01*
X107612618Y-65425082D02*
X113337043Y-65425082D01*
X124488643Y-69691849D02*
X124112500Y-70067992D01*
D48*
X102247100Y-105250600D02*
X102247100Y-103384254D01*
X133988500Y-85584400D02*
X132970900Y-84566800D01*
X103873446Y-102710600D02*
X105253846Y-104091000D01*
X154837300Y-78957100D02*
X153019300Y-78957100D01*
X138927800Y-71864400D02*
X138906300Y-71885900D01*
X157970900Y-73066800D02*
X157970900Y-80947200D01*
X124722371Y-76466800D02*
X125736844Y-76466800D01*
D47*
X130970900Y-97066800D02*
X130970900Y-101078600D01*
%TO.N,Net-(F1-~-Pad1)*%
X105470900Y-87566800D02*
X105675100Y-87771000D01*
X104601900Y-92197800D02*
X104470900Y-92066800D01*
X107329300Y-87771000D02*
X107515900Y-87584400D01*
X107515900Y-92384400D02*
X106981228Y-92384400D01*
X108467500Y-87125614D02*
X108467500Y-85572366D01*
X107329300Y-92197800D02*
X104601900Y-92197800D01*
X107515900Y-87584400D02*
X108008714Y-87584400D01*
X105064134Y-82169000D02*
X104714000Y-82169000D01*
X108008714Y-87584400D02*
X108467500Y-87125614D01*
X104470900Y-92066800D02*
X104470900Y-88566800D01*
X104470900Y-88566800D02*
X105470900Y-87566800D01*
X106865901Y-87584400D02*
X107515900Y-87584400D01*
X107515900Y-92384400D02*
X107329300Y-92197800D01*
X105675100Y-87771000D02*
X107329300Y-87771000D01*
X108467500Y-85572366D02*
X105064134Y-82169000D01*
%TO.N,Vusb*%
X111902500Y-82936800D02*
X111902500Y-88498400D01*
X121313628Y-57289927D02*
X116536755Y-62066800D01*
X151636034Y-66857742D02*
X146445692Y-61667400D01*
X112660501Y-89992200D02*
X113323000Y-89992200D01*
X131656004Y-61667400D02*
X127278531Y-57289927D01*
X112358900Y-88954800D02*
X112358900Y-89690599D01*
X112358900Y-89690599D02*
X112660501Y-89992200D01*
X103603700Y-64973592D02*
X103603700Y-77338200D01*
X108434500Y-82169000D02*
X108989000Y-82169000D01*
X111102700Y-82169000D02*
X111118700Y-82153000D01*
X106510492Y-62066800D02*
X103603700Y-64973592D01*
X103603700Y-77338200D02*
X108434500Y-82169000D01*
X111902500Y-88498400D02*
X112358900Y-88954800D01*
X127278531Y-57289927D02*
X121313628Y-57289927D01*
X151636034Y-67385209D02*
X151636034Y-66857742D01*
X116536755Y-62066800D02*
X106510492Y-62066800D01*
X108989000Y-82169000D02*
X111102700Y-82169000D01*
X146445692Y-61667400D02*
X131656004Y-61667400D01*
X111118700Y-82153000D02*
X111902500Y-82936800D01*
%TO.N,Net-(D2-A)*%
X111118700Y-80153000D02*
X113303500Y-80153000D01*
X113303500Y-80153000D02*
X113328500Y-80128000D01*
%TO.N,/USB_D-*%
D48*
X108198310Y-90234400D02*
X108465900Y-89966810D01*
X107515900Y-90234400D02*
X108198310Y-90234400D01*
X108198310Y-89234400D02*
X107515900Y-89234400D01*
X108250805Y-89286895D02*
X110803305Y-89286895D01*
X108465900Y-89966810D02*
X108465900Y-89501990D01*
X110803305Y-89286895D02*
X111048000Y-89042200D01*
X108250805Y-89286895D02*
X108198310Y-89234400D01*
X108465900Y-89501990D02*
X108250805Y-89286895D01*
%TO.N,/USB_D+*%
X110840200Y-90734400D02*
X111048000Y-90942200D01*
X106833490Y-90734400D02*
X106565900Y-90466810D01*
X106833490Y-89734400D02*
X107515900Y-89734400D01*
X106565900Y-90466810D02*
X106565900Y-90001990D01*
X106565900Y-90001990D02*
X106833490Y-89734400D01*
X107515900Y-90734400D02*
X106833490Y-90734400D01*
X107515900Y-90734400D02*
X110840200Y-90734400D01*
%TO.N,/CONN_D+*%
X113323000Y-90942200D02*
X114316751Y-90942200D01*
X115041751Y-90217200D02*
X117201700Y-90217200D01*
X114316751Y-90942200D02*
X115041751Y-90217200D01*
X117201700Y-90217200D02*
X118018100Y-91033600D01*
%TO.N,/CONN_D-*%
X117227100Y-89767200D02*
X118018100Y-88976200D01*
X115041751Y-89767200D02*
X117227100Y-89767200D01*
X114316751Y-89042200D02*
X115041751Y-89767200D01*
X113323000Y-89042200D02*
X114316751Y-89042200D01*
%TO.N,5V_REG*%
D47*
X147136034Y-67385209D02*
X145399909Y-67385209D01*
X136523000Y-63275300D02*
X136163500Y-62915800D01*
X141217700Y-63203000D02*
X138927800Y-63203000D01*
X138855500Y-63275300D02*
X136523000Y-63275300D01*
D48*
X128584100Y-64195200D02*
X129863500Y-62915800D01*
D47*
X145399909Y-67385209D02*
X141217700Y-63203000D01*
X138927800Y-63203000D02*
X138855500Y-63275300D01*
D48*
X127450900Y-64195200D02*
X128584100Y-64195200D01*
%TO.N,VM*%
X151970900Y-74566800D02*
X152130600Y-74407100D01*
D47*
X154837300Y-74407100D02*
X154837300Y-75057100D01*
D48*
X155970900Y-66914000D02*
X155970900Y-70066800D01*
D47*
X155445600Y-83718400D02*
X155445600Y-82165400D01*
D48*
X152130600Y-74407100D02*
X154837300Y-74407100D01*
D47*
X154837300Y-75057100D02*
X148980600Y-75057100D01*
X155977800Y-87079300D02*
X155977800Y-84250600D01*
X152470900Y-86566800D02*
X152983400Y-87079300D01*
D48*
X150499500Y-61442600D02*
X155970900Y-66914000D01*
D47*
X152983400Y-87079300D02*
X155977800Y-87079300D01*
X155445600Y-82165400D02*
X154837300Y-81557100D01*
X155977800Y-84250600D02*
X155445600Y-83718400D01*
X148980600Y-75057100D02*
X147970900Y-76066800D01*
%TO.N,Net-(R2-~-Pad1)*%
X126146100Y-104384600D02*
X126155500Y-104394000D01*
X126146100Y-102184200D02*
X126146100Y-104384600D01*
%TO.N,+5V*%
D48*
X145955743Y-69490500D02*
X141116100Y-69490500D01*
X147970900Y-103066800D02*
X141470900Y-103066800D01*
X148181200Y-90743300D02*
X147644900Y-90207000D01*
X149970900Y-94321900D02*
X149970900Y-103066800D01*
X157085044Y-88574300D02*
X157400300Y-88259044D01*
X150136034Y-67385209D02*
X149211034Y-68310209D01*
X148181200Y-92532200D02*
X148181200Y-90743300D01*
X153886034Y-69760209D02*
X152511034Y-69760209D01*
X147644900Y-90207000D02*
X149277600Y-88574300D01*
X157400300Y-88259044D02*
X157400300Y-85899556D01*
X134970900Y-105566800D02*
X134970900Y-106907000D01*
X156490500Y-72364675D02*
X153886034Y-69760209D01*
X156490500Y-84989756D02*
X156490500Y-72364675D01*
X149277600Y-88574300D02*
X157085044Y-88574300D01*
X147136034Y-68310209D02*
X145955743Y-69490500D01*
X149211034Y-68310209D02*
X147136034Y-68310209D01*
X141470900Y-103066800D02*
X140077396Y-104460304D01*
X157400300Y-85899556D02*
X156490500Y-84989756D01*
X148181200Y-92532200D02*
X149970900Y-94321900D01*
X134970900Y-106907000D02*
X134512100Y-107365800D01*
X152511034Y-69760209D02*
X150136034Y-67385209D01*
%TO.N,Net-(D4-A)*%
D47*
X125384100Y-75184000D02*
X125409500Y-75209400D01*
X123446700Y-75184000D02*
X125384100Y-75184000D01*
%TO.N,/USER_LED*%
X128171300Y-75971200D02*
X128171300Y-82159400D01*
X127409500Y-75209400D02*
X128171300Y-75971200D01*
%TO.N,/ESP_TX*%
X107943700Y-78565008D02*
X110433292Y-81054600D01*
X122488500Y-89084400D02*
X123746300Y-89084400D01*
X114458700Y-81054600D02*
X122488500Y-89084400D01*
X110433292Y-81054600D02*
X114458700Y-81054600D01*
X107943700Y-76835000D02*
X107943700Y-78565008D01*
%TO.N,Net-(J4-Pin_5)*%
X104252100Y-65912200D02*
X104252100Y-70603400D01*
X104505300Y-65659000D02*
X104252100Y-65912200D01*
X104252100Y-70603400D02*
X105403700Y-71755000D01*
%TO.N,/ESP_RX*%
X105403700Y-69215000D02*
X106792100Y-70603400D01*
X122669700Y-88317472D02*
X122936628Y-88584400D01*
X106792100Y-70603400D02*
X106792100Y-74772009D01*
X106792100Y-74772009D02*
X107466691Y-75446600D01*
X110228618Y-75446600D02*
X122669700Y-87887682D01*
X122669700Y-87887682D02*
X122669700Y-88317472D01*
X107466691Y-75446600D02*
X110228618Y-75446600D01*
X122936628Y-88584400D02*
X123746300Y-88584400D01*
%TO.N,Net-(J3-CC2)*%
X110866600Y-93014800D02*
X109586200Y-91734400D01*
X109586200Y-91734400D02*
X107515900Y-91734400D01*
%TO.N,/MD_AO1*%
X161837300Y-81557100D02*
X165470900Y-85190700D01*
X165470900Y-85190700D02*
X165470900Y-98406400D01*
X165470900Y-98406400D02*
X158916100Y-104961200D01*
X161837300Y-81557100D02*
X161837300Y-80907100D01*
%TO.N,/MD_AO2*%
X161837300Y-78957100D02*
X161837300Y-78307100D01*
X166134145Y-82383227D02*
X166134145Y-100243155D01*
X166134145Y-100243155D02*
X161416100Y-104961200D01*
X161837300Y-78307100D02*
X162058018Y-78307100D01*
X162058018Y-78307100D02*
X166134145Y-82383227D01*
%TO.N,/MD_BO2*%
X161294500Y-60731400D02*
X163088900Y-62525800D01*
X161837300Y-77657100D02*
X161837300Y-77007100D01*
X163088900Y-62525800D02*
X163088900Y-76629400D01*
X162711200Y-77007100D02*
X161837300Y-77007100D01*
X163088900Y-76629400D02*
X162711200Y-77007100D01*
%TO.N,/MD_BO1*%
X161837300Y-74407100D02*
X161837300Y-75057100D01*
X158794500Y-60731400D02*
X158794500Y-71364300D01*
X158794500Y-71364300D02*
X161837300Y-74407100D01*
%TO.N,/MD_PWMB*%
X131171300Y-82969072D02*
X131438228Y-83236000D01*
X131171300Y-82159400D02*
X131171300Y-82969072D01*
X150669300Y-75707100D02*
X154837300Y-75707100D01*
X149970900Y-76405500D02*
X150669300Y-75707100D01*
X131438228Y-83236000D02*
X145643600Y-83236000D01*
X145643600Y-83236000D02*
X149970900Y-78908700D01*
%TO.N,/MD_BIN2*%
X155787299Y-76357100D02*
X156088900Y-76055499D01*
X143169300Y-73905500D02*
X140470900Y-76603900D01*
X132793380Y-76603900D02*
X130171300Y-79225980D01*
X156088900Y-74137982D02*
X155856418Y-73905500D01*
X130171300Y-79225980D02*
X130171300Y-82159400D01*
X155856418Y-73905500D02*
X143169300Y-73905500D01*
X156088900Y-76055499D02*
X156088900Y-74137982D01*
X154837300Y-76357100D02*
X155787299Y-76357100D01*
X140470900Y-76603900D02*
X132793380Y-76603900D01*
%TO.N,/MD_BIN1*%
X132960390Y-77007100D02*
X130671300Y-79296190D01*
X130671300Y-79296190D02*
X130671300Y-82159400D01*
X154837300Y-77007100D02*
X132960390Y-77007100D01*
%TO.N,/MD_STBY*%
X154837300Y-78307100D02*
X132230600Y-78307100D01*
X132230600Y-78307100D02*
X131671300Y-78866400D01*
X131671300Y-78866400D02*
X131671300Y-82159400D01*
%TO.N,/MD_AIN1*%
X137378300Y-82159400D02*
X133171300Y-82159400D01*
X154837300Y-79607100D02*
X150930600Y-79607100D01*
X138470900Y-81066800D02*
X137378300Y-82159400D01*
X150930600Y-79607100D02*
X148470900Y-82066800D01*
X146470900Y-81066800D02*
X138470900Y-81066800D01*
%TO.N,/MD_AIN2*%
X135096300Y-84084400D02*
X150139282Y-84084400D01*
X153966582Y-80257100D02*
X154837300Y-80257100D01*
X150139282Y-84084400D02*
X153966582Y-80257100D01*
%TO.N,/MD_PWMA*%
X153585700Y-84242500D02*
X153585700Y-81208701D01*
X153585700Y-81208701D02*
X153887301Y-80907100D01*
X147120200Y-86358600D02*
X151469600Y-86358600D01*
X151469600Y-86358600D02*
X153585700Y-84242500D01*
X153887301Y-80907100D02*
X154837300Y-80907100D01*
X135096300Y-84584400D02*
X145346000Y-84584400D01*
X145346000Y-84584400D02*
X147120200Y-86358600D01*
%TO.N,/WS_DIN*%
X149470900Y-87066800D02*
X142646408Y-87066800D01*
X147644900Y-85307000D02*
X149020900Y-85307000D01*
X149020900Y-85307000D02*
X149470900Y-85757000D01*
X142646408Y-87066800D02*
X140622608Y-85043000D01*
X135137700Y-85043000D02*
X135096300Y-85084400D01*
X140622608Y-85043000D02*
X135137700Y-85043000D01*
%TO.N,/RESET*%
X139594900Y-96672400D02*
X138241700Y-96672400D01*
X134019700Y-92450400D02*
X134019700Y-88851328D01*
X134286628Y-88584400D02*
X135096300Y-88584400D01*
X139545200Y-99923600D02*
X139545200Y-96722100D01*
X138241700Y-96672400D02*
X134019700Y-92450400D01*
X134019700Y-88851328D02*
X134286628Y-88584400D01*
X139545200Y-96722100D02*
X139594900Y-96672400D01*
%TO.N,/IMU_INT*%
X136970900Y-92149328D02*
X135905972Y-91084400D01*
X152292100Y-107365800D02*
X148970900Y-104044600D01*
X148970900Y-104044600D02*
X148970900Y-94566800D01*
X136970900Y-93066800D02*
X136970900Y-92149328D01*
X135905972Y-91084400D02*
X135096300Y-91084400D01*
X148970900Y-94566800D02*
X148470900Y-94066800D01*
X148470900Y-94066800D02*
X137970900Y-94066800D01*
X137970900Y-94066800D02*
X136970900Y-93066800D01*
%TO.N,/OSCIN*%
X140372700Y-90329600D02*
X140864400Y-89837900D01*
X135096300Y-89584400D02*
X139627500Y-89584400D01*
X143491800Y-89837900D02*
X144493400Y-90839500D01*
X140864400Y-89837900D02*
X143491800Y-89837900D01*
X139627500Y-89584400D02*
X140372700Y-90329600D01*
%TO.N,/OSCOUT*%
X141043600Y-88639500D02*
X142793400Y-88639500D01*
X140372700Y-88467600D02*
X140871700Y-88467600D01*
X139755900Y-89084400D02*
X140372700Y-88467600D01*
X135096300Y-89084400D02*
X139755900Y-89084400D01*
X140871700Y-88467600D02*
X141043600Y-88639500D01*
%TO.N,/MT_PWM*%
X118337043Y-65425082D02*
X118337043Y-81484815D01*
X122936628Y-86084400D02*
X123746300Y-86084400D01*
X118337043Y-81484815D02*
X122936628Y-86084400D01*
%TO.N,/MT_SDA*%
X117185443Y-81833215D02*
X122936628Y-87584400D01*
X122060443Y-64148482D02*
X117860035Y-64148482D01*
X123337043Y-65425082D02*
X122060443Y-64148482D01*
X122936628Y-87584400D02*
X123746300Y-87584400D01*
X117185443Y-64823074D02*
X117185443Y-81833215D01*
X117860035Y-64148482D02*
X117185443Y-64823074D01*
%TO.N,/MT_SCL*%
X122273300Y-66861339D02*
X122273300Y-75869408D01*
X122273300Y-75869408D02*
X122669700Y-76265808D01*
X120837043Y-65425082D02*
X122273300Y-66861339D01*
X122669700Y-81698128D02*
X124822900Y-83851328D01*
X122669700Y-76265808D02*
X122669700Y-81698128D01*
X124555972Y-88084400D02*
X123746300Y-88084400D01*
X124822900Y-83851328D02*
X124822900Y-87817472D01*
X124822900Y-87817472D02*
X124555972Y-88084400D01*
%TO.N,/ESD_D-*%
D48*
X122446300Y-89779900D02*
X122641800Y-89584400D01*
X120018100Y-88976200D02*
X121068101Y-88976200D01*
X121068101Y-88976200D02*
X121871801Y-89779900D01*
X121871801Y-89779900D02*
X122446300Y-89779900D01*
X122641800Y-89584400D02*
X123746300Y-89584400D01*
%TO.N,/ESD_D+*%
X120018100Y-91033600D02*
X121068101Y-91033600D01*
X121068101Y-91033600D02*
X121871801Y-90229900D01*
X121871801Y-90229900D02*
X122793390Y-90229900D01*
X122793390Y-90229900D02*
X122938890Y-90084400D01*
X122938890Y-90084400D02*
X123746300Y-90084400D01*
%TO.N,/SWDIO*%
D47*
X122888228Y-90632800D02*
X123697900Y-90632800D01*
X104917300Y-97260400D02*
X116260628Y-97260400D01*
X103397100Y-98780600D02*
X104917300Y-97260400D01*
X123697900Y-90632800D02*
X123746300Y-90584400D01*
X116260628Y-97260400D02*
X122888228Y-90632800D01*
%TO.N,/SWCLK*%
X104103300Y-104566800D02*
X118072500Y-104566800D01*
X124970900Y-96566800D02*
X125671300Y-95866400D01*
X118072500Y-104566800D02*
X123970900Y-98668400D01*
X103397100Y-103860600D02*
X104103300Y-104566800D01*
X125671300Y-95866400D02*
X125671300Y-93509400D01*
%TO.N,/ENC_B*%
X111753700Y-102412800D02*
X116099700Y-98066800D01*
X128881490Y-94586000D02*
X129904372Y-94586000D01*
X130171300Y-94319072D02*
X130171300Y-93509400D01*
X129904372Y-94586000D02*
X130171300Y-94319072D01*
X116099700Y-98066800D02*
X125400690Y-98066800D01*
X125400690Y-98066800D02*
X128881490Y-94586000D01*
%TO.N,/ENC_A*%
X125438228Y-92432800D02*
X130404372Y-92432800D01*
X114253700Y-102412800D02*
X112977100Y-103689400D01*
X110602100Y-101810792D02*
X114749292Y-97663600D01*
X111276692Y-103689400D02*
X110602100Y-103014808D01*
X125219700Y-94367472D02*
X125219700Y-92651328D01*
X130404372Y-92432800D02*
X130671300Y-92699728D01*
X110602100Y-103014808D02*
X110602100Y-101810792D01*
X114749292Y-97663600D02*
X121923572Y-97663600D01*
X130671300Y-92699728D02*
X130671300Y-93509400D01*
X125219700Y-92651328D02*
X125438228Y-92432800D01*
X112977100Y-103689400D02*
X111276692Y-103689400D01*
X121923572Y-97663600D02*
X125219700Y-94367472D01*
%TO.N,/BOOT0*%
X131171300Y-94319072D02*
X131171300Y-93509400D01*
X128146100Y-95891600D02*
X128970900Y-95066800D01*
X128146100Y-102184200D02*
X128146100Y-95891600D01*
X130423572Y-95066800D02*
X131171300Y-94319072D01*
X128970900Y-95066800D02*
X130423572Y-95066800D01*
%TO.N,/IMU_SCL*%
X131671300Y-93509400D02*
X131671300Y-99445000D01*
X131671300Y-99445000D02*
X139592100Y-107365800D01*
%TO.N,/IMU_SDA*%
X132171300Y-93509400D02*
X132171300Y-94942381D01*
X132106100Y-95007581D02*
X132106100Y-97339800D01*
X132171300Y-94942381D02*
X132106100Y-95007581D01*
X132106100Y-97339800D02*
X142132100Y-107365800D01*
%TO.N,Net-(D3-A)*%
X127374700Y-70628000D02*
X125114500Y-70628000D01*
X125114500Y-70628000D02*
X125114100Y-70628400D01*
%TO.N,Net-(D5-A)*%
D48*
X127586900Y-59969400D02*
X127586900Y-62059200D01*
X127586900Y-62059200D02*
X127450900Y-62195200D01*
%TO.N,Net-(J3-CC1)*%
D47*
X109178000Y-88734400D02*
X107515900Y-88734400D01*
X110866600Y-87045800D02*
X109178000Y-88734400D01*
%TD*%
%TA.AperFunction,Conductor*%
%TO.N,VM*%
G36*
X152717739Y-58407485D02*
G01*
X152763494Y-58460289D01*
X152774700Y-58511800D01*
X152774700Y-62766400D01*
X152755015Y-62833439D01*
X152702211Y-62879194D01*
X152650700Y-62890400D01*
X149595535Y-62890400D01*
X149528496Y-62870715D01*
X149482741Y-62817911D01*
X149471541Y-62767570D01*
X149460239Y-61569600D01*
X149447300Y-60198000D01*
X149142500Y-59969400D01*
X149142501Y-59969400D01*
X148207032Y-59956842D01*
X148189300Y-59955326D01*
X148105792Y-59942100D01*
X148105787Y-59942100D01*
X147893213Y-59942100D01*
X147879332Y-59944298D01*
X147842385Y-59950150D01*
X147821324Y-59951665D01*
X145357900Y-59918599D01*
X143286341Y-61050124D01*
X143226899Y-61065300D01*
X135137098Y-61065300D01*
X135070059Y-61045615D01*
X135024304Y-60992811D01*
X135013106Y-60942742D01*
X134996159Y-59485242D01*
X135015063Y-59417978D01*
X135067332Y-59371612D01*
X135120151Y-59359800D01*
X138046681Y-59359800D01*
X138113720Y-59379485D01*
X138149782Y-59414908D01*
X138171795Y-59447853D01*
X138182912Y-59464491D01*
X138294407Y-59575986D01*
X138294411Y-59575989D01*
X138425514Y-59663590D01*
X138425527Y-59663597D01*
X138571198Y-59723935D01*
X138571203Y-59723937D01*
X138698887Y-59749335D01*
X138725853Y-59754699D01*
X138725856Y-59754700D01*
X138725858Y-59754700D01*
X138883544Y-59754700D01*
X138883545Y-59754699D01*
X139038197Y-59723937D01*
X139183879Y-59663594D01*
X139314989Y-59575989D01*
X139426489Y-59464489D01*
X139459617Y-59414908D01*
X139513228Y-59370105D01*
X139562719Y-59359800D01*
X140468109Y-59359800D01*
X140535148Y-59379485D01*
X140571211Y-59414910D01*
X140621307Y-59489884D01*
X140621313Y-59489892D01*
X140732807Y-59601386D01*
X140732811Y-59601389D01*
X140863914Y-59688990D01*
X140863927Y-59688997D01*
X141009598Y-59749335D01*
X141009603Y-59749337D01*
X141164253Y-59780099D01*
X141164256Y-59780100D01*
X141164258Y-59780100D01*
X141321944Y-59780100D01*
X141321945Y-59780099D01*
X141476597Y-59749337D01*
X141622279Y-59688994D01*
X141753389Y-59601389D01*
X141864889Y-59489889D01*
X141883489Y-59462052D01*
X141914989Y-59414910D01*
X141968601Y-59370104D01*
X142018091Y-59359800D01*
X142462300Y-59359800D01*
X144187663Y-58403349D01*
X144247783Y-58387800D01*
X152650700Y-58387800D01*
X152717739Y-58407485D01*
G37*
%TD.AperFunction*%
%TD*%
%TA.AperFunction,Conductor*%
%TO.N,GND*%
G36*
X142457352Y-73121062D02*
G01*
X142503275Y-73173720D01*
X142514635Y-73224040D01*
X142519964Y-73650414D01*
X142501119Y-73717695D01*
X142483655Y-73739645D01*
X141140399Y-75082901D01*
X141079076Y-75116386D01*
X141051552Y-75119215D01*
X134558734Y-75058155D01*
X134491883Y-75037840D01*
X134446626Y-74984608D01*
X134435900Y-74934160D01*
X134435900Y-73279562D01*
X134444544Y-73250122D01*
X134451067Y-73220137D01*
X134454822Y-73215119D01*
X134455585Y-73212523D01*
X134472212Y-73191887D01*
X134501346Y-73162753D01*
X134562665Y-73129270D01*
X134588628Y-73126437D01*
X142390250Y-73101591D01*
X142457352Y-73121062D01*
G37*
%TD.AperFunction*%
%TD*%
%TA.AperFunction,Conductor*%
%TO.N,5V_REG*%
G36*
X129910446Y-60812621D02*
G01*
X129935690Y-60820034D01*
X129988436Y-60851330D01*
X131286306Y-62149200D01*
X131423603Y-62228468D01*
X131576736Y-62269500D01*
X131576739Y-62269500D01*
X137715949Y-62269500D01*
X137750884Y-62274523D01*
X137765882Y-62278927D01*
X137824615Y-62316651D01*
X137824658Y-62316700D01*
X137824660Y-62316702D01*
X137824660Y-62316703D01*
X137825505Y-62317677D01*
X137853179Y-62373400D01*
X137854932Y-62381732D01*
X137857577Y-62408961D01*
X137841408Y-63589252D01*
X137835908Y-63624115D01*
X137831299Y-63639052D01*
X137792730Y-63697301D01*
X137790839Y-63698895D01*
X137736831Y-63725348D01*
X137730382Y-63726726D01*
X137705266Y-63729460D01*
X133877570Y-63753996D01*
X133877104Y-63753997D01*
X133877099Y-63753999D01*
X132019027Y-65091811D01*
X131987745Y-65108146D01*
X131958146Y-65118565D01*
X131916974Y-65125600D01*
X128735003Y-65125600D01*
X128700062Y-65120575D01*
X128685063Y-65116170D01*
X128626303Y-65078411D01*
X128624989Y-65076895D01*
X128597604Y-65022403D01*
X128596009Y-65015176D01*
X128593097Y-64989186D01*
X128592387Y-64868428D01*
X128580867Y-62910190D01*
X128582391Y-62890074D01*
X128585514Y-62870351D01*
X128590277Y-62850759D01*
X128640899Y-62697997D01*
X128651400Y-62595209D01*
X128651399Y-61795192D01*
X128640899Y-61692403D01*
X128585714Y-61525866D01*
X128585711Y-61525862D01*
X128584905Y-61523429D01*
X128581636Y-61511642D01*
X128575335Y-61483612D01*
X128572320Y-61457155D01*
X128569338Y-60950149D01*
X128574154Y-60915200D01*
X128578472Y-60900166D01*
X128615894Y-60841174D01*
X128617128Y-60840092D01*
X128672161Y-60812248D01*
X128680054Y-60810507D01*
X128706745Y-60807600D01*
X129875514Y-60807600D01*
X129910446Y-60812621D01*
G37*
%TD.AperFunction*%
%TD*%
%TA.AperFunction,Conductor*%
%TO.N,+3.3V*%
G36*
X130970888Y-69470703D02*
G01*
X130990975Y-69474069D01*
X131010893Y-69479134D01*
X134638314Y-70729970D01*
X134684101Y-70745829D01*
X134696248Y-70754483D01*
X134710556Y-70758685D01*
X134723787Y-70768487D01*
X134760370Y-70799557D01*
X134780331Y-70816510D01*
X134911794Y-70874982D01*
X134979025Y-70894002D01*
X134979026Y-70894002D01*
X134979053Y-70894005D01*
X134986625Y-70895056D01*
X134987201Y-70895095D01*
X134995147Y-70896157D01*
X135121638Y-70913067D01*
X137561875Y-70888905D01*
X137629103Y-70907925D01*
X137675379Y-70960273D01*
X137687100Y-71012899D01*
X137687100Y-72487460D01*
X137667415Y-72554499D01*
X137614611Y-72600254D01*
X137563495Y-72611459D01*
X134587036Y-72620939D01*
X134586986Y-72620941D01*
X134533798Y-72623919D01*
X134533786Y-72623920D01*
X134507863Y-72626749D01*
X134507847Y-72626751D01*
X134507840Y-72626752D01*
X134507832Y-72626753D01*
X134477514Y-72631690D01*
X134455209Y-72635323D01*
X134320403Y-72685604D01*
X134320402Y-72685604D01*
X134259081Y-72719088D01*
X134259070Y-72719096D01*
X134143914Y-72805302D01*
X134143893Y-72805320D01*
X134114777Y-72834436D01*
X134078589Y-72874726D01*
X134078570Y-72874748D01*
X134061960Y-72895363D01*
X134030403Y-72939117D01*
X134029394Y-72941326D01*
X134029152Y-72941852D01*
X134025560Y-72949612D01*
X134007402Y-72977874D01*
X133986305Y-73034433D01*
X133984309Y-73038747D01*
X133964292Y-73061613D01*
X133946082Y-73085937D01*
X133939713Y-73089691D01*
X133938288Y-73091320D01*
X133935673Y-73092073D01*
X133922661Y-73099745D01*
X132261750Y-73847156D01*
X132237317Y-73855224D01*
X132212581Y-73860625D01*
X132187008Y-73863476D01*
X128787407Y-73887587D01*
X128787405Y-73887586D01*
X128787405Y-73887587D01*
X128752435Y-73882811D01*
X128737405Y-73878513D01*
X128678362Y-73841155D01*
X128678335Y-73841125D01*
X128677295Y-73839941D01*
X128649386Y-73784894D01*
X128647628Y-73776948D01*
X128644700Y-73750162D01*
X128644700Y-69610829D01*
X128649723Y-69575893D01*
X128654127Y-69560895D01*
X128691872Y-69502144D01*
X128691900Y-69502119D01*
X128691899Y-69502119D01*
X128693241Y-69500956D01*
X128748120Y-69473477D01*
X128755679Y-69471833D01*
X128782032Y-69469000D01*
X130950407Y-69469000D01*
X130970888Y-69470703D01*
G37*
%TD.AperFunction*%
%TD*%
%TA.AperFunction,Conductor*%
%TO.N,+5V*%
G36*
X142633597Y-68498271D02*
G01*
X142679525Y-68550925D01*
X142690900Y-68602806D01*
X142690900Y-70209821D01*
X142671215Y-70276860D01*
X142618411Y-70322615D01*
X142568128Y-70333815D01*
X135116633Y-70407592D01*
X135049402Y-70388572D01*
X135003126Y-70336224D01*
X134991449Y-70286904D01*
X134947283Y-68630685D01*
X134965174Y-68563147D01*
X135016739Y-68516001D01*
X135070828Y-68503383D01*
X138131690Y-68493348D01*
X138171090Y-68499639D01*
X138227703Y-68518399D01*
X138330491Y-68528900D01*
X139380508Y-68528899D01*
X139380516Y-68528898D01*
X139380519Y-68528898D01*
X139404396Y-68526458D01*
X139483297Y-68518399D01*
X139554365Y-68494849D01*
X139592956Y-68488557D01*
X140446042Y-68485760D01*
X140485449Y-68492053D01*
X140488303Y-68492999D01*
X140591091Y-68503500D01*
X141641108Y-68503499D01*
X141641116Y-68503498D01*
X141641119Y-68503498D01*
X141678885Y-68499640D01*
X141743897Y-68492999D01*
X141760136Y-68487618D01*
X141798731Y-68481325D01*
X142566496Y-68478807D01*
X142633597Y-68498271D01*
G37*
%TD.AperFunction*%
%TD*%
%TA.AperFunction,Conductor*%
%TO.N,GND*%
G36*
X140286649Y-64157705D02*
G01*
X140319135Y-64166747D01*
X140350981Y-64180667D01*
X140423359Y-64225310D01*
X140423360Y-64225310D01*
X140423366Y-64225314D01*
X140589903Y-64280499D01*
X140692691Y-64291000D01*
X141385012Y-64290999D01*
X141387251Y-64291321D01*
X141419946Y-64296022D01*
X141445183Y-64303432D01*
X141497930Y-64334728D01*
X142181829Y-65018627D01*
X142202979Y-65046879D01*
X142215691Y-65070158D01*
X142230854Y-65128376D01*
X142257423Y-67849513D01*
X142238394Y-67916742D01*
X142186039Y-67963010D01*
X142133836Y-67974723D01*
X141797088Y-67975827D01*
X141797062Y-67975828D01*
X141717386Y-67982413D01*
X141717383Y-67982413D01*
X141678782Y-67988707D01*
X141678771Y-67988710D01*
X141667543Y-67991466D01*
X141650595Y-67994397D01*
X141621644Y-67997356D01*
X141609036Y-67997999D01*
X140623166Y-67997999D01*
X140610565Y-67997357D01*
X140596654Y-67995936D01*
X140565901Y-67992794D01*
X140558953Y-67991885D01*
X140525764Y-67986585D01*
X140525753Y-67986584D01*
X140444404Y-67980263D01*
X140444366Y-67980262D01*
X139591315Y-67983059D01*
X139591301Y-67983059D01*
X139591299Y-67983060D01*
X139591287Y-67983061D01*
X139511619Y-67989644D01*
X139511609Y-67989645D01*
X139473024Y-67995936D01*
X139473011Y-67995939D01*
X139395365Y-68015006D01*
X139389723Y-68016875D01*
X139363396Y-68022514D01*
X139361076Y-68022752D01*
X139348422Y-68023399D01*
X138362564Y-68023399D01*
X138349964Y-68022757D01*
X138345147Y-68022265D01*
X138328374Y-68019378D01*
X138250790Y-68000461D01*
X138250782Y-68000459D01*
X138211393Y-67994170D01*
X138130034Y-67987851D01*
X138130013Y-67987850D01*
X135069174Y-67997885D01*
X135069164Y-67997886D01*
X134955996Y-68011099D01*
X134955987Y-68011101D01*
X134907064Y-68022514D01*
X134901894Y-68023720D01*
X134862206Y-68037854D01*
X134821003Y-68045039D01*
X134475707Y-68046144D01*
X134475707Y-68046145D01*
X134475706Y-68046144D01*
X134475704Y-68046145D01*
X134440756Y-68041235D01*
X134425742Y-68036879D01*
X134366850Y-67999303D01*
X134365586Y-67997854D01*
X134337995Y-67943298D01*
X134336356Y-67935939D01*
X134333393Y-67909803D01*
X134333304Y-67896390D01*
X134310022Y-64380759D01*
X134329262Y-64313593D01*
X134381762Y-64267489D01*
X134433220Y-64255943D01*
X137708506Y-64234950D01*
X137759969Y-64231991D01*
X137785085Y-64229257D01*
X137836011Y-64221067D01*
X137842460Y-64219689D01*
X137846053Y-64218445D01*
X137915844Y-64215129D01*
X137951691Y-64230089D01*
X138061166Y-64297614D01*
X138227703Y-64352799D01*
X138330491Y-64363300D01*
X139380508Y-64363299D01*
X139380516Y-64363298D01*
X139380519Y-64363298D01*
X139380527Y-64363297D01*
X139380817Y-64363279D01*
X139381833Y-64363163D01*
X139426959Y-64358553D01*
X139436803Y-64357548D01*
X139436803Y-64357547D01*
X139483297Y-64352799D01*
X139649834Y-64297614D01*
X139799156Y-64205512D01*
X139799161Y-64205506D01*
X139804819Y-64201034D01*
X139804942Y-64201189D01*
X139827369Y-64184399D01*
X139834203Y-64180667D01*
X139850643Y-64171688D01*
X139908862Y-64156523D01*
X140252193Y-64153171D01*
X140286649Y-64157705D01*
G37*
%TD.AperFunction*%
%TD*%
M02*
